Hack-Bold.ufo
<glyph name="exclam" format="1">
  <advance width="1233"/>
  <unicode hex="0021"/>
  <note>
	exclam
  </note>
  <outline>
    <contour>
      <point x="464" y="65"/>
      <point x="478" y="26"/>
      <point x="507" y="-4" type="curve" smooth="yes"/>
      <point x="536" y="-33"/>
      <point x="572" y="-48"/>
      <point x="615" y="-48" type="curve" smooth="yes"/>
      <point x="636" y="-48"/>
      <point x="656" y="-44"/>
      <point x="675" y="-37" type="curve" smooth="yes"/>
      <point x="693" y="-29"/>
      <point x="709" y="-18"/>
      <point x="723" y="-3" type="curve" smooth="yes"/>
      <point x="732" y="6"/>
      <point x="740" y="17"/>
      <point x="747" y="30" type="curve" smooth="yes"/>
      <point x="754" y="42"/>
      <point x="759" y="55"/>
      <point x="762" y="69" type="curve" smooth="yes"/>
      <point x="765" y="82"/>
      <point x="766" y="97"/>
      <point x="766" y="113" type="curve" smooth="yes"/>
      <point x="766" y="160"/>
      <point x="752" y="199"/>
      <point x="723" y="228" type="curve" smooth="yes"/>
      <point x="694" y="257"/>
      <point x="658" y="272"/>
      <point x="615" y="272" type="curve" smooth="yes"/>
      <point x="606" y="272"/>
      <point x="598" y="271"/>
      <point x="590" y="270" type="curve" smooth="yes"/>
      <point x="582" y="269"/>
      <point x="574" y="267"/>
      <point x="567" y="265" type="curve" smooth="yes"/>
      <point x="559" y="262"/>
      <point x="552" y="259"/>
      <point x="545" y="256" type="curve" smooth="yes"/>
      <point x="538" y="253"/>
      <point x="531" y="249"/>
      <point x="525" y="244" type="curve" smooth="yes"/>
      <point x="519" y="239"/>
      <point x="513" y="233"/>
      <point x="507" y="227" type="curve" smooth="yes"/>
      <point x="478" y="198"/>
      <point x="464" y="160"/>
      <point x="464" y="113" type="curve" smooth="yes"/>
    </contour>
    <contour>
      <point x="470" y="1508" type="line"/>
      <point x="470" y="1052" type="line"/>
      <point x="548" y="476" type="line"/>
      <point x="687" y="476" type="line"/>
      <point x="755" y="1052" type="line"/>
      <point x="755" y="1508" type="line"/>
    </contour>
  </outline>
</glyph>
<glyph name="quotedbl" format="1">
  <advance width="1233"/>
  <unicode hex="0022"/>
  <outline>
    <contour>
      <point x="231" y="1493" type="line" name="hr00"/>
      <point x="487" y="1493" type="line" name="sh01"/>
      <point x="487" y="938" type="line" name="av01"/>
      <point x="231" y="938" type="line"/>
    </contour>
    <contour>
      <point x="743" y="1493" type="line" name="ah01"/>
      <point x="999" y="1493" type="line" name="sh02"/>
      <point x="999" y="938" type="line" name="av02"/>
      <point x="743" y="938" type="line"/>
    </contour>
  </outline>
</glyph>
<glyph name="numbersign" format="1">
  <advance width="1233"/>
  <unicode hex="0023"/>
  <outline>
    <contour>
      <point x="209" y="373" type="line" name="hr00"/>
      <point x="2" y="373" type="line"/>
      <point x="2" y="588" type="line"/>
      <point x="262" y="588" type="line" name="dv01"/>
      <point x="336" y="881" type="line" name="dv02"/>
      <point x="117" y="881" type="line"/>
      <point x="117" y="1096" type="line"/>
      <point x="391" y="1096" type="line" name="dv03"/>
      <point x="485" y="1470" type="line" name="av01"/>
      <point x="707" y="1470" type="line"/>
      <point x="612" y="1096" type="line" name="sv01"/>
      <point x="815" y="1096" type="line"/>
      <point x="909" y="1470" type="line" name="av02"/>
      <point x="1133" y="1470" type="line"/>
      <point x="1036" y="1096" type="line" name="sv02"/>
      <point x="1229" y="1096" type="line"/>
      <point x="1229" y="881" type="line" name="sv03"/>
      <point x="983" y="881" type="line"/>
      <point x="909" y="588" type="line" name="sv04"/>
      <point x="1114" y="588" type="line"/>
      <point x="1114" y="373" type="line" name="sv05"/>
      <point x="856" y="373" type="line"/>
      <point x="762" y="0" type="line" name="ab01"/>
      <point x="541" y="0" type="line"/>
      <point x="635" y="373" type="line" name="sv06"/>
      <point x="430" y="373" type="line"/>
      <point x="336" y="0" type="line" name="ab02"/>
      <point x="115" y="0" type="line"/>
    </contour>
    <contour>
      <point x="688" y="588" type="line" name="sv07"/>
      <point x="762" y="881" type="line" name="sv08"/>
      <point x="557" y="881" type="line"/>
      <point x="483" y="588" type="line"/>
    </contour>
  </outline>
</glyph>
<glyph name="dollar" format="1">
  <advance width="1233"/>
  <unicode hex="0024"/>
  <note>
	dollar
  </note>
  <outline>
    <contour>
      <point x="694" y="528" type="line"/>
      <point x="737" y="520"/>
      <point x="770" y="503"/>
      <point x="793" y="477" type="curve" smooth="yes"/>
      <point x="816" y="450"/>
      <point x="827" y="416"/>
      <point x="827" y="375" type="curve" smooth="yes"/>
      <point x="827" y="334"/>
      <point x="815" y="301"/>
      <point x="792" y="275" type="curve" smooth="yes"/>
      <point x="769" y="248"/>
      <point x="736" y="232"/>
      <point x="694" y="226" type="curve"/>
    </contour>
    <contour>
      <point x="553" y="817" type="line"/>
      <point x="512" y="828"/>
      <point x="481" y="847"/>
      <point x="460" y="872" type="curve" smooth="yes"/>
      <point x="439" y="897"/>
      <point x="428" y="929"/>
      <point x="428" y="967" type="curve" smooth="yes"/>
      <point x="428" y="1006"/>
      <point x="439" y="1036"/>
      <point x="460" y="1059" type="curve" smooth="yes"/>
      <point x="481" y="1081"/>
      <point x="512" y="1095"/>
      <point x="553" y="1100" type="curve"/>
    </contour>
    <contour>
      <point x="694" y="-301" type="line"/>
      <point x="695" y="0" type="line"/>
      <point x="815" y="6"/>
      <point x="911" y="44"/>
      <point x="984" y="114" type="curve" smooth="yes"/>
      <point x="1056" y="184"/>
      <point x="1092" y="274"/>
      <point x="1092" y="383" type="curve" smooth="yes"/>
      <point x="1092" y="498"/>
      <point x="1059" y="590"/>
      <point x="992" y="659" type="curve" smooth="yes"/>
      <point x="925" y="728"/>
      <point x="825" y="772"/>
      <point x="694" y="793" type="curve"/>
      <point x="694" y="1100" type="line"/>
      <point x="755" y="1096"/>
      <point x="810" y="1086"/>
      <point x="861" y="1070" type="curve" smooth="yes"/>
      <point x="912" y="1054"/>
      <point x="958" y="1033"/>
      <point x="999" y="1006" type="curve"/>
      <point x="999" y="1262" type="line"/>
      <point x="946" y="1279"/>
      <point x="894" y="1292"/>
      <point x="843" y="1301" type="curve" smooth="yes"/>
      <point x="792" y="1310"/>
      <point x="742" y="1316"/>
      <point x="695" y="1319" type="curve"/>
      <point x="694" y="1556" type="line"/>
      <point x="553" y="1556" type="line"/>
      <point x="553" y="1319" type="line"/>
      <point x="430" y="1311"/>
      <point x="334" y="1274"/>
      <point x="266" y="1208" type="curve" smooth="yes"/>
      <point x="198" y="1142"/>
      <point x="164" y="1053"/>
      <point x="164" y="942" type="curve" smooth="yes"/>
      <point x="164" y="837"/>
      <point x="196" y="753"/>
      <point x="260" y="690" type="curve" smooth="yes"/>
      <point x="324" y="626"/>
      <point x="422" y="581"/>
      <point x="553" y="555" type="curve"/>
      <point x="553" y="226" type="line"/>
      <point x="496" y="227"/>
      <point x="436" y="238"/>
      <point x="372" y="260" type="curve" smooth="yes"/>
      <point x="307" y="282"/>
      <point x="241" y="313"/>
      <point x="172" y="354" type="curve"/>
      <point x="172" y="92" type="line"/>
      <point x="241" y="63"/>
      <point x="307" y="41"/>
      <point x="370" y="26" type="curve" smooth="yes"/>
      <point x="433" y="11"/>
      <point x="494" y="2"/>
      <point x="552" y="0" type="curve"/>
      <point x="553" y="-301" type="line"/>
    </contour>
  </outline>
</glyph>
<glyph name="percent" format="1">
  <advance width="1233"/>
  <unicode hex="0025"/>
  <note>
	percent
  </note>
  <outline>
    <contour>
      <point x="33" y="1023"/>
      <point x="64" y="947"/>
      <point x="126" y="886" type="curve" smooth="yes"/>
      <point x="188" y="824"/>
      <point x="263" y="793"/>
      <point x="352" y="793" type="curve" smooth="yes"/>
      <point x="441" y="793"/>
      <point x="516" y="824"/>
      <point x="579" y="886" type="curve" smooth="yes"/>
      <point x="641" y="948"/>
      <point x="672" y="1023"/>
      <point x="672" y="1112" type="curve" smooth="yes"/>
      <point x="672" y="1201"/>
      <point x="641" y="1276"/>
      <point x="579" y="1339" type="curve" smooth="yes"/>
      <point x="516" y="1401"/>
      <point x="441" y="1432"/>
      <point x="352" y="1432" type="curve" smooth="yes"/>
      <point x="263" y="1432"/>
      <point x="188" y="1401"/>
      <point x="126" y="1339" type="curve" smooth="yes"/>
      <point x="64" y="1277"/>
      <point x="33" y="1201"/>
      <point x="33" y="1112" type="curve" smooth="yes"/>
    </contour>
    <contour>
      <point x="390" y="1249"/>
      <point x="422" y="1236"/>
      <point x="449" y="1209" type="curve" smooth="yes"/>
      <point x="476" y="1182"/>
      <point x="489" y="1150"/>
      <point x="489" y="1112" type="curve" smooth="yes"/>
      <point x="489" y="1073"/>
      <point x="476" y="1041"/>
      <point x="450" y="1015" type="curve" smooth="yes"/>
      <point x="423" y="988"/>
      <point x="391" y="975"/>
      <point x="352" y="975" type="curve" smooth="yes"/>
      <point x="314" y="975"/>
      <point x="282" y="988"/>
      <point x="255" y="1015" type="curve" smooth="yes"/>
      <point x="228" y="1041"/>
      <point x="215" y="1073"/>
      <point x="215" y="1112" type="curve" smooth="yes"/>
      <point x="215" y="1151"/>
      <point x="228" y="1183"/>
      <point x="255" y="1210" type="curve" smooth="yes"/>
      <point x="282" y="1236"/>
      <point x="314" y="1249"/>
      <point x="352" y="1249" type="curve" smooth="yes"/>
    </contour>
    <contour>
      <point x="48" y="561" type="line"/>
      <point x="52" y="451" type="line"/>
      <point x="1191" y="883" type="line"/>
      <point x="1191" y="997" type="line"/>
    </contour>
    <contour>
      <point x="580" y="230"/>
      <point x="611" y="154"/>
      <point x="673" y="93" type="curve" smooth="yes"/>
      <point x="734" y="31"/>
      <point x="810" y="0"/>
      <point x="899" y="0" type="curve" smooth="yes"/>
      <point x="987" y="0"/>
      <point x="1062" y="31"/>
      <point x="1125" y="94" type="curve" smooth="yes"/>
      <point x="1188" y="156"/>
      <point x="1219" y="231"/>
      <point x="1219" y="319" type="curve" smooth="yes"/>
      <point x="1219" y="408"/>
      <point x="1188" y="483"/>
      <point x="1125" y="546" type="curve" smooth="yes"/>
      <point x="1062" y="608"/>
      <point x="987" y="639"/>
      <point x="899" y="639" type="curve" smooth="yes"/>
      <point x="810" y="639"/>
      <point x="734" y="608"/>
      <point x="673" y="546" type="curve" smooth="yes"/>
      <point x="611" y="484"/>
      <point x="580" y="408"/>
      <point x="580" y="319" type="curve" smooth="yes"/>
    </contour>
    <contour>
      <point x="935" y="457"/>
      <point x="968" y="444"/>
      <point x="995" y="417" type="curve" smooth="yes"/>
      <point x="1022" y="390"/>
      <point x="1036" y="357"/>
      <point x="1036" y="319" type="curve" smooth="yes"/>
      <point x="1036" y="281"/>
      <point x="1023" y="249"/>
      <point x="996" y="222" type="curve" smooth="yes"/>
      <point x="969" y="195"/>
      <point x="936" y="182"/>
      <point x="897" y="182" type="curve" smooth="yes"/>
      <point x="859" y="182"/>
      <point x="827" y="195"/>
      <point x="801" y="222" type="curve" smooth="yes"/>
      <point x="775" y="248"/>
      <point x="762" y="280"/>
      <point x="762" y="319" type="curve" smooth="yes"/>
      <point x="762" y="358"/>
      <point x="775" y="390"/>
      <point x="802" y="417" type="curve" smooth="yes"/>
      <point x="828" y="444"/>
      <point x="860" y="457"/>
      <point x="897" y="457" type="curve" smooth="yes"/>
    </contour>
  </outline>
</glyph>
<glyph name="ampersand" format="1">
  <advance width="1233"/>
  <unicode hex="0026"/>
  <note>
	ampersand
  </note>
  <outline>
    <contour>
      <point x="603" y="-29"/>
      <point x="656" y="-20"/>
      <point x="711" y="-3" type="curve" smooth="yes"/>
      <point x="769" y="15"/>
      <point x="818" y="38"/>
      <point x="870" y="72" type="curve"/>
      <point x="918" y="0" type="line"/>
      <point x="1235" y="0" type="line"/>
      <point x="1073" y="246" type="line"/>
      <point x="1122" y="303"/>
      <point x="1157" y="368"/>
      <point x="1180" y="441" type="curve" smooth="yes"/>
      <point x="1203" y="513"/>
      <point x="1214" y="597"/>
      <point x="1214" y="694" type="curve" smooth="yes"/>
      <point x="1214" y="745" type="line"/>
      <point x="979" y="745" type="line"/>
      <point x="982" y="728"/>
      <point x="984" y="714"/>
      <point x="985" y="692" type="curve" smooth="yes"/>
      <point x="986" y="675"/>
      <point x="987" y="651"/>
      <point x="987" y="633" type="curve" smooth="yes"/>
      <point x="987" y="596"/>
      <point x="983" y="560"/>
      <point x="976" y="527" type="curve" smooth="yes"/>
      <point x="969" y="494"/>
      <point x="959" y="467"/>
      <point x="944" y="440" type="curve"/>
      <point x="631" y="920" type="line" smooth="yes"/>
      <point x="584" y="992"/>
      <point x="558" y="1034"/>
      <point x="533" y="1085" type="curve" smooth="yes"/>
      <point x="511" y="1130"/>
      <point x="502" y="1159"/>
      <point x="502" y="1186" type="curve" smooth="yes"/>
      <point x="502" y="1219"/>
      <point x="516" y="1247"/>
      <point x="543" y="1266" type="curve" smooth="yes"/>
      <point x="570" y="1285"/>
      <point x="612" y="1294"/>
      <point x="663" y="1294" type="curve" smooth="yes"/>
      <point x="708" y="1294"/>
      <point x="757" y="1287"/>
      <point x="795" y="1276" type="curve" smooth="yes"/>
      <point x="834" y="1265"/>
      <point x="887" y="1242"/>
      <point x="924" y="1221" type="curve"/>
      <point x="924" y="1477" type="line"/>
      <point x="878" y="1491"/>
      <point x="839" y="1501"/>
      <point x="786" y="1509" type="curve" smooth="yes"/>
      <point x="739" y="1516"/>
      <point x="693" y="1520"/>
      <point x="643" y="1520" type="curve" smooth="yes"/>
      <point x="507" y="1520"/>
      <point x="401" y="1491"/>
      <point x="328" y="1433" type="curve" smooth="yes"/>
      <point x="255" y="1375"/>
      <point x="219" y="1290"/>
      <point x="219" y="1189" type="curve" smooth="yes"/>
      <point x="219" y="1142"/>
      <point x="227" y="1102"/>
      <point x="243" y="1058" type="curve" smooth="yes"/>
      <point x="257" y="1018"/>
      <point x="281" y="970"/>
      <point x="317" y="913" type="curve"/>
      <point x="224" y="854"/>
      <point x="156" y="786"/>
      <point x="108" y="706" type="curve" smooth="yes"/>
      <point x="62" y="629"/>
      <point x="37" y="545"/>
      <point x="37" y="442" type="curve" smooth="yes"/>
      <point x="37" y="303"/>
      <point x="83" y="189"/>
      <point x="176" y="102" type="curve" smooth="yes"/>
      <point x="269" y="15"/>
      <point x="391" y="-29"/>
      <point x="537" y="-29" type="curve" smooth="yes"/>
    </contour>
    <contour>
      <point x="504" y="207"/>
      <point x="438" y="235"/>
      <point x="385" y="291" type="curve" smooth="yes"/>
      <point x="340" y="339"/>
      <point x="307" y="407"/>
      <point x="307" y="494" type="curve" smooth="yes"/>
      <point x="307" y="545"/>
      <point x="318" y="589"/>
      <point x="341" y="629" type="curve" smooth="yes"/>
      <point x="363" y="668"/>
      <point x="396" y="702"/>
      <point x="440" y="731" type="curve"/>
      <point x="748" y="262" type="line"/>
      <point x="731" y="251"/>
      <point x="729" y="250"/>
      <point x="701" y="236" type="curve" smooth="yes"/>
      <point x="693" y="232" type="line"/>
      <point x="669" y="222"/>
      <point x="654" y="218"/>
      <point x="636" y="214" type="curve" smooth="yes"/>
      <point x="614" y="209"/>
      <point x="600" y="207"/>
      <point x="580" y="207" type="curve" smooth="yes"/>
    </contour>
  </outline>
</glyph>
<glyph name="parenleft" format="1">
  <advance width="1233"/>
  <unicode hex="0028"/>
  <note>
	parenleft
  </note>
  <outline>
    <contour>
      <point x="824" y="-270" type="line"/>
      <point x="736" y="-110"/>
      <point x="671" y="45"/>
      <point x="628" y="196" type="curve" smooth="yes"/>
      <point x="585" y="346"/>
      <point x="564" y="495"/>
      <point x="564" y="643" type="curve" smooth="yes"/>
      <point x="564" y="792"/>
      <point x="585" y="942"/>
      <point x="628" y="1091" type="curve" smooth="yes"/>
      <point x="672" y="1244"/>
      <point x="739" y="1400"/>
      <point x="824" y="1554" type="curve"/>
      <point x="596" y="1554" type="line"/>
      <point x="485" y="1393"/>
      <point x="411" y="1247"/>
      <point x="361" y="1101" type="curve" smooth="yes"/>
      <point x="309" y="950"/>
      <point x="283" y="798"/>
      <point x="283" y="643" type="curve" smooth="yes"/>
      <point x="283" y="488"/>
      <point x="309" y="335"/>
      <point x="360" y="186" type="curve" smooth="yes"/>
      <point x="415" y="24"/>
      <point x="498" y="-128"/>
      <point x="596" y="-270" type="curve"/>
    </contour>
  </outline>
</glyph>
<glyph name="parenright" format="1">
  <advance width="1233"/>
  <unicode hex="0029"/>
  <note>
	parenright
  </note>
  <outline>
    <contour>
      <point x="309" y="1554" type="line"/>
      <point x="397" y="1395"/>
      <point x="462" y="1240"/>
      <point x="505" y="1091" type="curve" smooth="yes"/>
      <point x="548" y="942"/>
      <point x="569" y="792"/>
      <point x="569" y="643" type="curve" smooth="yes"/>
      <point x="569" y="495"/>
      <point x="548" y="346"/>
      <point x="505" y="196" type="curve" smooth="yes"/>
      <point x="462" y="45"/>
      <point x="397" y="-110"/>
      <point x="309" y="-270" type="curve"/>
      <point x="537" y="-270" type="line"/>
      <point x="643" y="-116"/>
      <point x="722" y="36"/>
      <point x="773" y="186" type="curve" smooth="yes"/>
      <point x="824" y="335"/>
      <point x="850" y="488"/>
      <point x="850" y="643" type="curve" smooth="yes"/>
      <point x="850" y="798"/>
      <point x="824" y="950"/>
      <point x="773" y="1101" type="curve" smooth="yes"/>
      <point x="721" y="1251"/>
      <point x="642" y="1402"/>
      <point x="537" y="1554" type="curve"/>
    </contour>
  </outline>
</glyph>
<glyph name="asterisk" format="1">
  <advance width="1233"/>
  <unicode hex="002A"/>
  <note>
	asterisk
  </note>
  <outline>
    <contour>
      <point x="614" y="815" type="line"/>
      <point x="879" y="465" type="line"/>
      <point x="1012" y="560" type="line"/>
      <point x="773" y="926" type="line"/>
      <point x="1131" y="1081" type="line"/>
      <point x="1080" y="1229" type="line"/>
      <point x="711" y="1109" type="line"/>
      <point x="692" y="1525" type="line"/>
      <point x="536" y="1525" type="line"/>
      <point x="517" y="1109" type="line"/>
      <point x="148" y="1229" type="line"/>
      <point x="97" y="1081" type="line"/>
      <point x="455" y="926" type="line"/>
      <point x="216" y="560" type="line"/>
      <point x="349" y="465" type="line"/>
    </contour>
  </outline>
</glyph>
<glyph name="comma" format="1">
  <advance width="1233"/>
  <unicode hex="002C"/>
  <outline>
    <contour>
      <point x="380" y="-275" type="line" name="hr00"/>
      <point x="394" y="-269" type="line"/>
      <point x="496" y="-225"/>
      <point x="628" y="-71"/>
      <point x="636" y="34" type="qcurve" name="sh01"/>
      <point x="629" y="33"/>
      <point x="618" y="32"/>
      <point x="609" y="32" type="qcurve"/>
      <point x="577" y="32"/>
      <point x="516" y="53"/>
      <point x="492" y="75" type="qcurve"/>
      <point x="469" y="95"/>
      <point x="443" y="153"/>
      <point x="443" y="196" type="qcurve" name="dh01"/>
      <point x="443" y="210"/>
      <point x="446" y="233"/>
      <point x="449" y="244" type="qcurve"/>
      <point x="453" y="258"/>
      <point x="462" y="278"/>
      <point x="466" y="285" type="qcurve"/>
      <point x="470" y="292"/>
      <point x="484" y="311"/>
      <point x="494" y="319" type="qcurve"/>
      <point x="508" y="331"/>
      <point x="534" y="347"/>
      <point x="551" y="353" type="qcurve" name="av02"/>
      <point x="566" y="358"/>
      <point x="598" y="364"/>
      <point x="618" y="364" type="qcurve" name="av03"/>
      <point x="635" y="364"/>
      <point x="662" y="360"/>
      <point x="676" y="356" type="qcurve" name="av04"/>
      <point x="703" y="348"/>
      <point x="726" y="331" type="qcurve"/>
      <point x="738" y="322"/>
      <point x="756" y="302"/>
      <point x="764" y="289" type="qcurve"/>
      <point x="789" y="254"/>
      <point x="801" y="204" type="qcurve"/>
      <point x="813" y="154"/>
      <point x="813" y="93" type="qcurve" name="dh02"/>
      <point x="813" y="5"/>
      <point x="789" y="-71" type="qcurve"/>
      <point x="778" y="-106"/>
      <point x="744" y="-176"/>
      <point x="718" y="-211" type="qcurve" name="hr01"/>
      <point x="669" y="-278"/>
      <point x="536" y="-369"/>
      <point x="451" y="-401" type="qcurve"/>
      <point x="438" y="-406" type="line" name="av01"/>
    </contour>
  </outline>
</glyph>
<glyph name="hyphen" format="1">
  <advance width="1233"/>
  <unicode hex="002D"/>
  <note>
	hyphen
  </note>
  <outline>
    <contour>
      <point x="301" y="746" type="line"/>
      <point x="301" y="455" type="line"/>
      <point x="932" y="455" type="line"/>
      <point x="932" y="746" type="line"/>
    </contour>
  </outline>
</glyph>
<glyph name="period" format="1">
  <advance width="1233"/>
  <unicode hex="002E"/>
  <note>
	period
  </note>
  <outline>
    <contour>
      <point x="436" y="88"/>
      <point x="452" y="46"/>
      <point x="488" y="10" type="curve" smooth="yes"/>
      <point x="521" y="-23"/>
      <point x="560" y="-42"/>
      <point x="612" y="-42" type="curve" smooth="yes"/>
      <point x="662" y="-42"/>
      <point x="704" y="-25"/>
      <point x="739" y="10" type="curve" smooth="yes"/>
      <point x="773" y="44"/>
      <point x="790" y="88"/>
      <point x="790" y="141" type="curve" smooth="yes"/>
      <point x="790" y="196"/>
      <point x="772" y="242"/>
      <point x="739" y="275" type="curve" smooth="yes"/>
      <point x="705" y="309"/>
      <point x="661" y="326"/>
      <point x="613" y="326" type="curve" smooth="yes"/>
      <point x="564" y="326"/>
      <point x="522" y="309"/>
      <point x="488" y="275" type="curve" smooth="yes"/>
      <point x="453" y="240"/>
      <point x="436" y="196"/>
      <point x="436" y="141" type="curve" smooth="yes"/>
    </contour>
  </outline>
</glyph>
<glyph name="slash" format="1">
  <advance width="1233"/>
  <unicode hex="002F"/>
  <note>
	slash
  </note>
  <outline>
    <contour>
      <point x="899" y="1493" type="line"/>
      <point x="113" y="-190" type="line"/>
      <point x="334" y="-190" type="line"/>
      <point x="1120" y="1493" type="line"/>
    </contour>
  </outline>
</glyph>
<glyph name="zero" format="1">
  <advance width="1233"/>
  <unicode hex="0030"/>
  <note>
	zero
  </note>
  <outline>
    <contour>
      <point x="781" y="-29"/>
      <point x="905" y="35"/>
      <point x="987" y="164" type="curve" smooth="yes"/>
      <point x="1069" y="293"/>
      <point x="1110" y="486"/>
      <point x="1110" y="745" type="curve" smooth="yes"/>
      <point x="1110" y="1004"/>
      <point x="1069" y="1198"/>
      <point x="987" y="1327" type="curve" smooth="yes"/>
      <point x="905" y="1456"/>
      <point x="781" y="1520"/>
      <point x="616" y="1520" type="curve" smooth="yes"/>
      <point x="451" y="1520"/>
      <point x="328" y="1456"/>
      <point x="246" y="1327" type="curve" smooth="yes"/>
      <point x="164" y="1198"/>
      <point x="123" y="1004"/>
      <point x="123" y="745" type="curve" smooth="yes"/>
      <point x="123" y="487"/>
      <point x="164" y="294"/>
      <point x="246" y="165" type="curve" smooth="yes"/>
      <point x="328" y="36"/>
      <point x="451" y="-29"/>
      <point x="617" y="-29" type="curve" smooth="yes"/>
    </contour>
    <contour>
      <point x="548" y="221"/>
      <point x="498" y="263"/>
      <point x="467" y="346" type="curve" smooth="yes"/>
      <point x="436" y="429"/>
      <point x="420" y="562"/>
      <point x="420" y="745" type="curve" smooth="yes"/>
      <point x="420" y="928"/>
      <point x="436" y="1062"/>
      <point x="467" y="1145" type="curve" smooth="yes"/>
      <point x="498" y="1228"/>
      <point x="548" y="1270"/>
      <point x="616" y="1270" type="curve" smooth="yes"/>
      <point x="685" y="1270"/>
      <point x="735" y="1228"/>
      <point x="766" y="1145" type="curve" smooth="yes"/>
      <point x="797" y="1062"/>
      <point x="813" y="928"/>
      <point x="813" y="745" type="curve" smooth="yes"/>
      <point x="813" y="562"/>
      <point x="797" y="429"/>
      <point x="766" y="346" type="curve" smooth="yes"/>
      <point x="735" y="263"/>
      <point x="685" y="221"/>
      <point x="616" y="221" type="curve" smooth="yes"/>
    </contour>
    <contour>
      <point x="635" y="460"/>
      <point x="651" y="499"/>
      <point x="660" y="579" type="curve" smooth="yes"/>
      <point x="667" y="646"/>
      <point x="669" y="720"/>
      <point x="669" y="743" type="curve" smooth="yes"/>
      <point x="669" y="779"/>
      <point x="664" y="858"/>
      <point x="658" y="913" type="curve" smooth="yes"/>
      <point x="650" y="982"/>
      <point x="635" y="1032"/>
      <point x="615" y="1032" type="curve" smooth="yes"/>
      <point x="598" y="1032"/>
      <point x="583" y="993"/>
      <point x="574" y="915" type="curve" smooth="yes"/>
      <point x="567" y="854"/>
      <point x="564" y="776"/>
      <point x="564" y="749" type="curve" smooth="yes"/>
      <point x="564" y="712"/>
      <point x="570" y="629"/>
      <point x="576" y="578" type="curve" smooth="yes"/>
      <point x="583" y="518"/>
      <point x="596" y="460"/>
      <point x="617" y="460" type="curve" smooth="yes"/>
    </contour>
  </outline>
</glyph>
<glyph name="one" format="1">
  <advance width="1233"/>
  <unicode hex="0031"/>
  <note>
	one
  </note>
  <outline>
    <contour>
      <point x="188" y="260" type="line"/>
      <point x="188" y="0" type="line"/>
      <point x="1135" y="0" type="line"/>
      <point x="1135" y="260" type="line"/>
      <point x="805" y="260" type="line"/>
      <point x="805" y="1493" type="line"/>
      <point x="520" y="1493" type="line"/>
      <point x="211" y="1419" type="line"/>
      <point x="211" y="1153" type="line"/>
      <point x="518" y="1229" type="line"/>
      <point x="518" y="260" type="line"/>
    </contour>
  </outline>
</glyph>
<glyph name="two" format="1">
  <advance width="1233"/>
  <unicode hex="0032"/>
  <note>
	two
  </note>
  <outline>
    <contour>
      <point x="115" y="0" type="line"/>
      <point x="1063" y="0" type="line"/>
      <point x="1063" y="260" type="line"/>
      <point x="404" y="260" type="line"/>
      <point x="455" y="314"/>
      <point x="492" y="317"/>
      <point x="639" y="466" type="curve" smooth="yes"/>
      <point x="802" y="629"/>
      <point x="883" y="714"/>
      <point x="930" y="772" type="curve" smooth="yes"/>
      <point x="974" y="828"/>
      <point x="1008" y="887"/>
      <point x="1031" y="943" type="curve" smooth="yes"/>
      <point x="1052" y="998"/>
      <point x="1061" y="1045"/>
      <point x="1061" y="1104" type="curve" smooth="yes"/>
      <point x="1061" y="1243"/>
      <point x="1011" y="1341"/>
      <point x="926" y="1410" type="curve" smooth="yes"/>
      <point x="831" y="1486"/>
      <point x="702" y="1520"/>
      <point x="557" y="1520" type="curve" smooth="yes"/>
      <point x="490" y="1520"/>
      <point x="424" y="1513"/>
      <point x="357" y="1500" type="curve" smooth="yes"/>
      <point x="301" y="1489"/>
      <point x="227" y="1469"/>
      <point x="147" y="1440" type="curve"/>
      <point x="147" y="1165" type="line"/>
      <point x="219" y="1206"/>
      <point x="288" y="1236"/>
      <point x="353" y="1257" type="curve" smooth="yes"/>
      <point x="417" y="1278"/>
      <point x="476" y="1288"/>
      <point x="530" y="1288" type="curve" smooth="yes"/>
      <point x="601" y="1288"/>
      <point x="661" y="1271"/>
      <point x="702" y="1234" type="curve" smooth="yes"/>
      <point x="743" y="1197"/>
      <point x="762" y="1142"/>
      <point x="762" y="1082" type="curve" smooth="yes"/>
      <point x="762" y="1037"/>
      <point x="751" y="992"/>
      <point x="729" y="947" type="curve" smooth="yes"/>
      <point x="706" y="898"/>
      <point x="670" y="853"/>
      <point x="621" y="796" type="curve" smooth="yes"/>
      <point x="560" y="727"/>
      <point x="498" y="661"/>
      <point x="275" y="422" type="curve" smooth="yes"/>
      <point x="140" y="278" type="line" smooth="yes"/>
      <point x="123" y="259"/>
      <point x="115" y="241"/>
      <point x="115" y="216" type="curve" smooth="yes"/>
    </contour>
  </outline>
</glyph>
<glyph name="three" format="1">
  <advance width="1233"/>
  <unicode hex="0033"/>
  <note>
	three
  </note>
  <outline>
    <contour>
      <point x="549" y="668" type="line" smooth="yes"/>
      <point x="634" y="668"/>
      <point x="700" y="647"/>
      <point x="747" y="606" type="curve" smooth="yes"/>
      <point x="794" y="564"/>
      <point x="817" y="505"/>
      <point x="817" y="428" type="curve" smooth="yes"/>
      <point x="817" y="365"/>
      <point x="794" y="316"/>
      <point x="747" y="279" type="curve" smooth="yes"/>
      <point x="700" y="242"/>
      <point x="637" y="223"/>
      <point x="557" y="223" type="curve" smooth="yes"/>
      <point x="477" y="223"/>
      <point x="401" y="231"/>
      <point x="328" y="248" type="curve" smooth="yes"/>
      <point x="255" y="264"/>
      <point x="188" y="288"/>
      <point x="125" y="319" type="curve"/>
      <point x="125" y="45" type="line"/>
      <point x="192" y="21"/>
      <point x="262" y="3"/>
      <point x="335" y="-10" type="curve" smooth="yes"/>
      <point x="408" y="-23"/>
      <point x="482" y="-29"/>
      <point x="557" y="-29" type="curve" smooth="yes"/>
      <point x="734" y="-29"/>
      <point x="868" y="9"/>
      <point x="961" y="85" type="curve" smooth="yes"/>
      <point x="1054" y="161"/>
      <point x="1100" y="271"/>
      <point x="1100" y="416" type="curve" smooth="yes"/>
      <point x="1100" y="524"/>
      <point x="1072" y="611"/>
      <point x="1016" y="678" type="curve" smooth="yes"/>
      <point x="960" y="744"/>
      <point x="879" y="786"/>
      <point x="772" y="805" type="curve"/>
      <point x="866" y="822"/>
      <point x="938" y="859"/>
      <point x="989" y="916" type="curve" smooth="yes"/>
      <point x="1040" y="972"/>
      <point x="1065" y="1044"/>
      <point x="1065" y="1133" type="curve" smooth="yes"/>
      <point x="1065" y="1254"/>
      <point x="1021" y="1348"/>
      <point x="933" y="1417" type="curve" smooth="yes"/>
      <point x="845" y="1486"/>
      <point x="722" y="1520"/>
      <point x="565" y="1520" type="curve" smooth="yes"/>
      <point x="504" y="1520"/>
      <point x="440" y="1515"/>
      <point x="373" y="1504" type="curve" smooth="yes"/>
      <point x="306" y="1493"/>
      <point x="239" y="1477"/>
      <point x="170" y="1456" type="curve"/>
      <point x="170" y="1188" type="line"/>
      <point x="239" y="1215"/>
      <point x="305" y="1235"/>
      <point x="369" y="1249" type="curve" smooth="yes"/>
      <point x="433" y="1263"/>
      <point x="493" y="1270"/>
      <point x="549" y="1270" type="curve" smooth="yes"/>
      <point x="622" y="1270"/>
      <point x="679" y="1255"/>
      <point x="720" y="1224" type="curve" smooth="yes"/>
      <point x="760" y="1193"/>
      <point x="780" y="1149"/>
      <point x="780" y="1094" type="curve" smooth="yes"/>
      <point x="780" y="1041"/>
      <point x="760" y="1001"/>
      <point x="720" y="972" type="curve" smooth="yes"/>
      <point x="679" y="943"/>
      <point x="622" y="928"/>
      <point x="549" y="928" type="curve" smooth="yes"/>
      <point x="391" y="928" type="line"/>
      <point x="391" y="668" type="line"/>
    </contour>
  </outline>
</glyph>
<glyph name="four" format="1">
  <advance width="1233"/>
  <unicode hex="0034"/>
  <outline>
    <contour>
      <point x="694" y="322" type="line" name="hr00"/>
      <point x="102" y="322" type="line"/>
      <point x="102" y="608" type="line"/>
      <point x="668" y="1493" type="line" name="at01"/>
      <point x="977" y="1493" type="line" name="sh01"/>
      <point x="977" y="575" type="line" name="sv01"/>
      <point x="1141" y="575" type="line"/>
      <point x="1141" y="322" type="line" name="sv02"/>
      <point x="977" y="322" type="line" name="dh01"/>
      <point x="977" y="0" type="line" name="ab01"/>
      <point x="694" y="0" type="line"/>
    </contour>
    <contour>
      <point x="694" y="575" type="line" name="sh02"/>
      <point x="694" y="1165" type="line"/>
      <point x="317" y="575" type="line"/>
    </contour>
  </outline>
</glyph>
<glyph name="five" format="1">
  <advance width="1233"/>
  <unicode hex="0035"/>
  <note>
	five
  </note>
  <outline>
    <contour>
      <point x="193" y="1493" type="line"/>
      <point x="193" y="659" type="line"/>
      <point x="247" y="685"/>
      <point x="301" y="705"/>
      <point x="354" y="718" type="curve" smooth="yes"/>
      <point x="407" y="731"/>
      <point x="459" y="737"/>
      <point x="512" y="737" type="curve" smooth="yes"/>
      <point x="601" y="737"/>
      <point x="673" y="714"/>
      <point x="727" y="667" type="curve" smooth="yes"/>
      <point x="780" y="620"/>
      <point x="807" y="557"/>
      <point x="807" y="479" type="curve" smooth="yes"/>
      <point x="807" y="394"/>
      <point x="780" y="330"/>
      <point x="726" y="286" type="curve" smooth="yes"/>
      <point x="672" y="241"/>
      <point x="593" y="219"/>
      <point x="489" y="219" type="curve" smooth="yes"/>
      <point x="430" y="219"/>
      <point x="372" y="226"/>
      <point x="314" y="240" type="curve" smooth="yes"/>
      <point x="255" y="253"/>
      <point x="198" y="274"/>
      <point x="143" y="301" type="curve"/>
      <point x="143" y="35" type="line"/>
      <point x="211" y="14"/>
      <point x="278" y="-2"/>
      <point x="343" y="-13" type="curve" smooth="yes"/>
      <point x="408" y="-24"/>
      <point x="473" y="-29"/>
      <point x="537" y="-29" type="curve" smooth="yes"/>
      <point x="709" y="-29"/>
      <point x="845" y="17"/>
      <point x="945" y="108" type="curve" smooth="yes"/>
      <point x="1044" y="199"/>
      <point x="1094" y="322"/>
      <point x="1094" y="479" type="curve" smooth="yes"/>
      <point x="1094" y="628"/>
      <point x="1048" y="750"/>
      <point x="956" y="843" type="curve" smooth="yes"/>
      <point x="864" y="936"/>
      <point x="744" y="983"/>
      <point x="596" y="983" type="curve" smooth="yes"/>
      <point x="565" y="983"/>
      <point x="536" y="981"/>
      <point x="509" y="977" type="curve" smooth="yes"/>
      <point x="482" y="972"/>
      <point x="456" y="965"/>
      <point x="432" y="956" type="curve"/>
      <point x="432" y="1233" type="line"/>
      <point x="1004" y="1233" type="line"/>
      <point x="1004" y="1493" type="line"/>
    </contour>
  </outline>
</glyph>
<glyph name="six" format="1">
  <advance width="1233"/>
  <unicode hex="0036"/>
  <note>
	six
  </note>
  <outline>
    <contour>
      <point x="707" y="748"/>
      <point x="756" y="725"/>
      <point x="791" y="678" type="curve" smooth="yes"/>
      <point x="825" y="631"/>
      <point x="842" y="564"/>
      <point x="842" y="477" type="curve" smooth="yes"/>
      <point x="842" y="390"/>
      <point x="825" y="323"/>
      <point x="791" y="277" type="curve" smooth="yes"/>
      <point x="756" y="230"/>
      <point x="707" y="207"/>
      <point x="643" y="207" type="curve" smooth="yes"/>
      <point x="579" y="207"/>
      <point x="530" y="230"/>
      <point x="497" y="277" type="curve" smooth="yes"/>
      <point x="463" y="323"/>
      <point x="446" y="390"/>
      <point x="446" y="477" type="curve" smooth="yes"/>
      <point x="446" y="565"/>
      <point x="463" y="632"/>
      <point x="497" y="679" type="curve" smooth="yes"/>
      <point x="530" y="725"/>
      <point x="579" y="748"/>
      <point x="643" y="748" type="curve" smooth="yes"/>
    </contour>
    <contour>
      <point x="1030" y="1458" type="line"/>
      <point x="979" y="1478"/>
      <point x="929" y="1493"/>
      <point x="880" y="1503" type="curve" smooth="yes"/>
      <point x="830" y="1513"/>
      <point x="782" y="1518"/>
      <point x="735" y="1518" type="curve" smooth="yes"/>
      <point x="534" y="1518"/>
      <point x="383" y="1454"/>
      <point x="282" y="1325" type="curve" smooth="yes"/>
      <point x="181" y="1196"/>
      <point x="131" y="1002"/>
      <point x="131" y="743" type="curve" smooth="yes"/>
      <point x="131" y="471"/>
      <point x="172" y="274"/>
      <point x="255" y="152" type="curve" smooth="yes"/>
      <point x="337" y="30"/>
      <point x="469" y="-31"/>
      <point x="651" y="-31" type="curve" smooth="yes"/>
      <point x="800" y="-31"/>
      <point x="916" y="15"/>
      <point x="999" y="107" type="curve" smooth="yes"/>
      <point x="1081" y="199"/>
      <point x="1122" y="329"/>
      <point x="1122" y="496" type="curve" smooth="yes"/>
      <point x="1122" y="652"/>
      <point x="1085" y="773"/>
      <point x="1012" y="858" type="curve" smooth="yes"/>
      <point x="939" y="943"/>
      <point x="835" y="985"/>
      <point x="700" y="985" type="curve" smooth="yes"/>
      <point x="634" y="985"/>
      <point x="577" y="974"/>
      <point x="528" y="953" type="curve" smooth="yes"/>
      <point x="479" y="931"/>
      <point x="439" y="898"/>
      <point x="408" y="855" type="curve"/>
      <point x="411" y="995"/>
      <point x="440" y="1101"/>
      <point x="496" y="1173" type="curve" smooth="yes"/>
      <point x="551" y="1244"/>
      <point x="632" y="1280"/>
      <point x="739" y="1280" type="curve" smooth="yes"/>
      <point x="784" y="1280"/>
      <point x="830" y="1273"/>
      <point x="879" y="1258" type="curve" smooth="yes"/>
      <point x="927" y="1243"/>
      <point x="977" y="1220"/>
      <point x="1030" y="1190" type="curve"/>
    </contour>
  </outline>
</glyph>
<glyph name="eight" format="1">
  <advance width="1233"/>
  <unicode hex="0038"/>
  <note>
	eight
  </note>
  <outline>
    <contour>
      <point x="683" y="666"/>
      <point x="736" y="645"/>
      <point x="777" y="604" type="curve" smooth="yes"/>
      <point x="818" y="562"/>
      <point x="838" y="507"/>
      <point x="838" y="438" type="curve" smooth="yes"/>
      <point x="838" y="371"/>
      <point x="818" y="316"/>
      <point x="777" y="273" type="curve" smooth="yes"/>
      <point x="736" y="230"/>
      <point x="682" y="209"/>
      <point x="616" y="209" type="curve" smooth="yes"/>
      <point x="550" y="209"/>
      <point x="497" y="230"/>
      <point x="456" y="272" type="curve" smooth="yes"/>
      <point x="415" y="314"/>
      <point x="395" y="369"/>
      <point x="395" y="438" type="curve" smooth="yes"/>
      <point x="395" y="507"/>
      <point x="415" y="562"/>
      <point x="456" y="604" type="curve" smooth="yes"/>
      <point x="497" y="645"/>
      <point x="550" y="666"/>
      <point x="616" y="666" type="curve" smooth="yes"/>
    </contour>
    <contour>
      <point x="313" y="766"/>
      <point x="247" y="721"/>
      <point x="200" y="656" type="curve" smooth="yes"/>
      <point x="153" y="591"/>
      <point x="129" y="512"/>
      <point x="129" y="420" type="curve" smooth="yes"/>
      <point x="129" y="277"/>
      <point x="171" y="166"/>
      <point x="256" y="88" type="curve" smooth="yes"/>
      <point x="341" y="10"/>
      <point x="461" y="-29"/>
      <point x="616" y="-29" type="curve" smooth="yes"/>
      <point x="772" y="-29"/>
      <point x="892" y="10"/>
      <point x="977" y="88" type="curve" smooth="yes"/>
      <point x="1062" y="166"/>
      <point x="1104" y="277"/>
      <point x="1104" y="420" type="curve" smooth="yes"/>
      <point x="1104" y="511"/>
      <point x="1081" y="590"/>
      <point x="1034" y="655" type="curve" smooth="yes"/>
      <point x="987" y="720"/>
      <point x="923" y="766"/>
      <point x="840" y="791" type="curve"/>
      <point x="914" y="818"/>
      <point x="970" y="859"/>
      <point x="1009" y="915" type="curve" smooth="yes"/>
      <point x="1048" y="970"/>
      <point x="1067" y="1038"/>
      <point x="1067" y="1118" type="curve" smooth="yes"/>
      <point x="1067" y="1242"/>
      <point x="1027" y="1340"/>
      <point x="946" y="1412" type="curve" smooth="yes"/>
      <point x="865" y="1484"/>
      <point x="755" y="1520"/>
      <point x="616" y="1520" type="curve" smooth="yes"/>
      <point x="477" y="1520"/>
      <point x="368" y="1484"/>
      <point x="287" y="1412" type="curve" smooth="yes"/>
      <point x="206" y="1340"/>
      <point x="166" y="1242"/>
      <point x="166" y="1118" type="curve" smooth="yes"/>
      <point x="166" y="1037"/>
      <point x="186" y="969"/>
      <point x="225" y="914" type="curve" smooth="yes"/>
      <point x="264" y="858"/>
      <point x="322" y="817"/>
      <point x="397" y="791" type="curve"/>
    </contour>
    <contour>
      <point x="428" y="1151"/>
      <point x="445" y="1197"/>
      <point x="479" y="1231" type="curve" smooth="yes"/>
      <point x="513" y="1265"/>
      <point x="559" y="1282"/>
      <point x="616" y="1282" type="curve" smooth="yes"/>
      <point x="675" y="1282"/>
      <point x="721" y="1265"/>
      <point x="755" y="1232" type="curve" smooth="yes"/>
      <point x="788" y="1198"/>
      <point x="805" y="1152"/>
      <point x="805" y="1094" type="curve" smooth="yes"/>
      <point x="805" y="1035"/>
      <point x="788" y="989"/>
      <point x="755" y="955" type="curve" smooth="yes"/>
      <point x="721" y="920"/>
      <point x="675" y="903"/>
      <point x="616" y="903" type="curve" smooth="yes"/>
      <point x="558" y="903"/>
      <point x="512" y="920"/>
      <point x="479" y="955" type="curve" smooth="yes"/>
      <point x="445" y="989"/>
      <point x="428" y="1035"/>
      <point x="428" y="1094" type="curve" smooth="yes"/>
    </contour>
  </outline>
</glyph>
<glyph name="nine" format="1">
  <advance width="1233"/>
  <unicode hex="0039"/>
  <note>
	nine
  </note>
  <outline>
    <contour>
      <point x="691" y="-39"/>
      <point x="848" y="22"/>
      <point x="952" y="155" type="curve" smooth="yes"/>
      <point x="1048" y="278"/>
      <point x="1102" y="462"/>
      <point x="1102" y="756" type="curve" smooth="yes"/>
      <point x="1102" y="993"/>
      <point x="1068" y="1191"/>
      <point x="977" y="1324" type="curve" smooth="yes"/>
      <point x="897" y="1441"/>
      <point x="775" y="1507"/>
      <point x="590" y="1507" type="curve" smooth="yes"/>
      <point x="433" y="1507"/>
      <point x="314" y="1461"/>
      <point x="233" y="1370" type="curve" smooth="yes"/>
      <point x="152" y="1278"/>
      <point x="111" y="1146"/>
      <point x="111" y="983" type="curve" smooth="yes"/>
      <point x="111" y="827"/>
      <point x="148" y="706"/>
      <point x="220" y="622" type="curve" smooth="yes"/>
      <point x="293" y="537"/>
      <point x="400" y="494"/>
      <point x="533" y="494" type="curve" smooth="yes"/>
      <point x="601" y="494"/>
      <point x="654" y="504"/>
      <point x="705" y="527" type="curve" smooth="yes"/>
      <point x="756" y="550"/>
      <point x="792" y="579"/>
      <point x="825" y="624" type="curve"/>
      <point x="822" y="479"/>
      <point x="790" y="374"/>
      <point x="737" y="306" type="curve" smooth="yes"/>
      <point x="680" y="233"/>
      <point x="596" y="199"/>
      <point x="495" y="199" type="curve" smooth="yes"/>
      <point x="448" y="199"/>
      <point x="402" y="206"/>
      <point x="355" y="221" type="curve" smooth="yes"/>
      <point x="306" y="236"/>
      <point x="256" y="258"/>
      <point x="203" y="289" type="curve"/>
      <point x="203" y="20" type="line"/>
      <point x="254" y="1"/>
      <point x="303" y="-13"/>
      <point x="354" y="-24" type="curve" smooth="yes"/>
      <point x="403" y="-35"/>
      <point x="449" y="-39"/>
      <point x="502" y="-39" type="curve" smooth="yes"/>
    </contour>
    <contour>
      <point x="524" y="741"/>
      <point x="478" y="764"/>
      <point x="443" y="811" type="curve" smooth="yes"/>
      <point x="408" y="858"/>
      <point x="391" y="925"/>
      <point x="391" y="1012" type="curve" smooth="yes"/>
      <point x="391" y="1099"/>
      <point x="408" y="1166"/>
      <point x="443" y="1213" type="curve" smooth="yes"/>
      <point x="475" y="1256"/>
      <point x="521" y="1282"/>
      <point x="589" y="1282" type="curve" smooth="yes"/>
      <point x="652" y="1282"/>
      <point x="701" y="1260"/>
      <point x="736" y="1213" type="curve" smooth="yes"/>
      <point x="767" y="1170"/>
      <point x="786" y="1103"/>
      <point x="786" y="1011" type="curve" smooth="yes"/>
      <point x="786" y="924"/>
      <point x="769" y="858"/>
      <point x="736" y="811" type="curve" smooth="yes"/>
      <point x="702" y="764"/>
      <point x="653" y="741"/>
      <point x="589" y="741" type="curve" smooth="yes"/>
    </contour>
  </outline>
</glyph>
<glyph name="colon" format="1">
  <advance width="1233"/>
  <unicode hex="003A"/>
  <note>
	colon
  </note>
  <outline>
    <contour>
      <point x="443" y="830"/>
      <point x="460" y="788"/>
      <point x="495" y="753" type="curve" smooth="yes"/>
      <point x="528" y="720"/>
      <point x="567" y="701"/>
      <point x="619" y="701" type="curve" smooth="yes"/>
      <point x="669" y="701"/>
      <point x="711" y="718"/>
      <point x="746" y="753" type="curve" smooth="yes"/>
      <point x="780" y="787"/>
      <point x="797" y="832"/>
      <point x="797" y="885" type="curve" smooth="yes"/>
      <point x="797" y="943"/>
      <point x="777" y="987"/>
      <point x="746" y="1018" type="curve" smooth="yes"/>
      <point x="712" y="1052"/>
      <point x="668" y="1069"/>
      <point x="620" y="1069" type="curve" smooth="yes"/>
      <point x="571" y="1069"/>
      <point x="529" y="1052"/>
      <point x="495" y="1018" type="curve" smooth="yes"/>
      <point x="460" y="983"/>
      <point x="443" y="940"/>
      <point x="443" y="885" type="curve" smooth="yes"/>
    </contour>
    <contour>
      <point x="443" y="115"/>
      <point x="460" y="71"/>
      <point x="495" y="36" type="curve" smooth="yes"/>
      <point x="529" y="2"/>
      <point x="571" y="-15"/>
      <point x="620" y="-15" type="curve" smooth="yes"/>
      <point x="668" y="-15"/>
      <point x="712" y="2"/>
      <point x="746" y="36" type="curve" smooth="yes"/>
      <point x="778" y="68"/>
      <point x="797" y="113"/>
      <point x="797" y="169" type="curve" smooth="yes"/>
      <point x="797" y="226"/>
      <point x="777" y="271"/>
      <point x="746" y="302" type="curve" smooth="yes"/>
      <point x="712" y="336"/>
      <point x="668" y="353"/>
      <point x="620" y="353" type="curve" smooth="yes"/>
      <point x="571" y="353"/>
      <point x="529" y="336"/>
      <point x="495" y="302" type="curve" smooth="yes"/>
      <point x="460" y="267"/>
      <point x="443" y="223"/>
      <point x="443" y="169" type="curve" smooth="yes"/>
    </contour>
  </outline>
</glyph>
<glyph name="semicolon" format="1">
  <advance width="1233"/>
  <unicode hex="003B"/>
  <note>
	semicolon
  </note>
  <outline>
    <contour>
      <point x="448" y="-478" type="line" smooth="yes"/>
      <point x="572" y="-431"/>
      <point x="666" y="-365"/>
      <point x="729" y="-278" type="curve" smooth="yes"/>
      <point x="792" y="-192"/>
      <point x="828" y="-83"/>
      <point x="828" y="41" type="curve" smooth="yes"/>
      <point x="828" y="83"/>
      <point x="824" y="123"/>
      <point x="815" y="157" type="curve" smooth="yes"/>
      <point x="807" y="192"/>
      <point x="795" y="219"/>
      <point x="776" y="247" type="curve" smooth="yes"/>
      <point x="759" y="273"/>
      <point x="738" y="292"/>
      <point x="711" y="305" type="curve" smooth="yes"/>
      <point x="685" y="319"/>
      <point x="655" y="325"/>
      <point x="624" y="325" type="curve" smooth="yes"/>
      <point x="596" y="325"/>
      <point x="571" y="320"/>
      <point x="553" y="314" type="curve" smooth="yes"/>
      <point x="531" y="305"/>
      <point x="511" y="294"/>
      <point x="493" y="278" type="curve" smooth="yes"/>
      <point x="457" y="247"/>
      <point x="439" y="205"/>
      <point x="439" y="150" type="curve" smooth="yes"/>
      <point x="439" y="97"/>
      <point x="456" y="52"/>
      <point x="490" y="22" type="curve" smooth="yes"/>
      <point x="523" y="-9"/>
      <point x="572" y="-23"/>
      <point x="619" y="-23" type="curve" smooth="yes"/>
      <point x="622" y="-23"/>
      <point x="626" y="-23"/>
      <point x="629" y="-23" type="curve" smooth="yes"/>
      <point x="631" y="-23"/>
      <point x="637" y="-22"/>
      <point x="642" y="-21" type="curve"/>
      <point x="637" y="-94"/>
      <point x="609" y="-159"/>
      <point x="571" y="-207" type="curve" smooth="yes"/>
      <point x="529" y="-260"/>
      <point x="461" y="-308"/>
      <point x="388" y="-339" type="curve" smooth="yes"/>
      <point x="373" y="-346" type="line"/>
      <point x="434" y="-483" type="line"/>
    </contour>
    <contour>
      <point x="662" y="695"/>
      <point x="710" y="716"/>
      <point x="743" y="748" type="curve" smooth="yes"/>
      <point x="775" y="781"/>
      <point x="796" y="830"/>
      <point x="796" y="889" type="curve" smooth="yes"/>
      <point x="796" y="948"/>
      <point x="775" y="995"/>
      <point x="743" y="1028" type="curve" smooth="yes"/>
      <point x="707" y="1063"/>
      <point x="661" y="1081"/>
      <point x="612" y="1081" type="curve" smooth="yes"/>
      <point x="562" y="1081"/>
      <point x="514" y="1063"/>
      <point x="478" y="1028" type="curve" smooth="yes"/>
      <point x="447" y="996"/>
      <point x="425" y="948"/>
      <point x="425" y="888" type="curve" smooth="yes"/>
      <point x="425" y="836"/>
      <point x="441" y="786"/>
      <point x="479" y="748" type="curve" smooth="yes"/>
      <point x="510" y="718"/>
      <point x="555" y="695"/>
      <point x="609" y="695" type="curve" smooth="yes"/>
    </contour>
  </outline>
</glyph>
<glyph name="equal" format="1">
  <advance width="1233"/>
  <unicode hex="003D"/>
  <note>
	equal
  </note>
  <outline>
    <contour>
      <point x="1145" y="295" type="line"/>
      <point x="1145" y="532" type="line"/>
      <point x="88" y="532" type="line"/>
      <point x="88" y="295" type="line"/>
    </contour>
    <contour>
      <point x="1145" y="752" type="line"/>
      <point x="1145" y="987" type="line"/>
      <point x="88" y="987" type="line"/>
      <point x="88" y="752" type="line"/>
    </contour>
  </outline>
</glyph>
<glyph name="question" format="1">
  <advance width="1233"/>
  <unicode hex="003F"/>
  <note>
	question
  </note>
  <outline>
    <contour>
      <point x="699" y="457" type="line"/>
      <point x="699" y="599" type="line" smooth="yes"/>
      <point x="699" y="622"/>
      <point x="706" y="655"/>
      <point x="717" y="676" type="curve" smooth="yes"/>
      <point x="723" y="687"/>
      <point x="734" y="705"/>
      <point x="747" y="721" type="curve" smooth="yes"/>
      <point x="763" y="740"/>
      <point x="773" y="751"/>
      <point x="802" y="779" type="curve" smooth="yes"/>
      <point x="889" y="865" type="line" smooth="yes"/>
      <point x="960" y="935"/>
      <point x="997" y="984"/>
      <point x="1019" y="1026" type="curve" smooth="yes"/>
      <point x="1043" y="1072"/>
      <point x="1055" y="1121"/>
      <point x="1055" y="1177" type="curve" smooth="yes"/>
      <point x="1055" y="1229"/>
      <point x="1045" y="1281"/>
      <point x="1026" y="1326" type="curve" smooth="yes"/>
      <point x="1006" y="1373"/>
      <point x="976" y="1412"/>
      <point x="940" y="1443" type="curve" smooth="yes"/>
      <point x="901" y="1476"/>
      <point x="856" y="1501"/>
      <point x="805" y="1518" type="curve" smooth="yes"/>
      <point x="754" y="1535"/>
      <point x="697" y="1543"/>
      <point x="632" y="1543" type="curve" smooth="yes"/>
      <point x="563" y="1543"/>
      <point x="495" y="1534"/>
      <point x="430" y="1515" type="curve" smooth="yes"/>
      <point x="365" y="1496"/>
      <point x="300" y="1467"/>
      <point x="236" y="1428" type="curve"/>
      <point x="229" y="1423" type="line"/>
      <point x="229" y="1198" type="line"/>
      <point x="253" y="1215" type="line" smooth="yes"/>
      <point x="317" y="1260"/>
      <point x="384" y="1296"/>
      <point x="436" y="1316" type="curve" smooth="yes"/>
      <point x="449" y="1321"/>
      <point x="474" y="1330"/>
      <point x="493" y="1335" type="curve" smooth="yes"/>
      <point x="513" y="1340"/>
      <point x="532" y="1344"/>
      <point x="547" y="1346" type="curve" smooth="yes"/>
      <point x="561" y="1348"/>
      <point x="585" y="1349"/>
      <point x="599" y="1349" type="curve" smooth="yes"/>
      <point x="620" y="1349"/>
      <point x="643" y="1347"/>
      <point x="663" y="1343" type="curve" smooth="yes"/>
      <point x="685" y="1339"/>
      <point x="711" y="1329"/>
      <point x="718" y="1326" type="curve" smooth="yes"/>
      <point x="730" y="1321"/>
      <point x="745" y="1313"/>
      <point x="763" y="1298" type="curve" smooth="yes"/>
      <point x="775" y="1288"/>
      <point x="782" y="1280"/>
      <point x="790" y="1270" type="curve" smooth="yes"/>
      <point x="798" y="1260"/>
      <point x="804" y="1252"/>
      <point x="809" y="1240" type="curve" smooth="yes"/>
      <point x="814" y="1229"/>
      <point x="819" y="1210"/>
      <point x="820" y="1205" type="curve" smooth="yes"/>
      <point x="822" y="1194"/>
      <point x="823" y="1175"/>
      <point x="823" y="1165" type="curve" smooth="yes"/>
      <point x="823" y="1148"/>
      <point x="820" y="1129"/>
      <point x="818" y="1121" type="curve" smooth="yes"/>
      <point x="814" y="1106"/>
      <point x="807" y="1090"/>
      <point x="801" y="1079" type="curve" smooth="yes"/>
      <point x="795" y="1068"/>
      <point x="785" y="1054"/>
      <point x="769" y="1035" type="curve" smooth="yes"/>
      <point x="754" y="1017"/>
      <point x="732" y="994"/>
      <point x="718" y="980" type="curve" smooth="yes"/>
      <point x="628" y="891" type="line" smooth="yes"/>
      <point x="569" y="833"/>
      <point x="532" y="784"/>
      <point x="510" y="735" type="curve" smooth="yes"/>
      <point x="489" y="688"/>
      <point x="479" y="637"/>
      <point x="479" y="583" type="curve" smooth="yes"/>
      <point x="479" y="457" type="line"/>
    </contour>
    <contour>
      <point x="637" y="-50"/>
      <point x="675" y="-34"/>
      <point x="706" y="-3" type="curve" smooth="yes"/>
      <point x="737" y="28"/>
      <point x="753" y="69"/>
      <point x="753" y="118" type="curve" smooth="yes"/>
      <point x="753" y="142"/>
      <point x="749" y="164"/>
      <point x="741" y="184" type="curve" smooth="yes"/>
      <point x="732" y="207"/>
      <point x="719" y="224"/>
      <point x="706" y="237" type="curve" smooth="yes"/>
      <point x="695" y="248"/>
      <point x="686" y="255"/>
      <point x="681" y="258" type="curve" smooth="yes"/>
      <point x="676" y="261"/>
      <point x="663" y="268"/>
      <point x="654" y="272" type="curve" smooth="yes"/>
      <point x="643" y="277"/>
      <point x="630" y="280"/>
      <point x="625" y="281" type="curve" smooth="yes"/>
      <point x="614" y="283"/>
      <point x="603" y="284"/>
      <point x="592" y="284" type="curve" smooth="yes"/>
      <point x="552" y="284"/>
      <point x="510" y="270"/>
      <point x="478" y="239" type="curve" smooth="yes"/>
      <point x="448" y="209"/>
      <point x="431" y="166"/>
      <point x="431" y="117" type="curve" smooth="yes"/>
      <point x="431" y="70"/>
      <point x="447" y="28"/>
      <point x="478" y="-3" type="curve" smooth="yes"/>
      <point x="509" y="-34"/>
      <point x="547" y="-50"/>
      <point x="592" y="-50" type="curve" smooth="yes"/>
    </contour>
  </outline>
</glyph>
<glyph name="at" format="1">
  <advance width="1233"/>
  <unicode hex="0040"/>
  <note>
	at
  </note>
  <outline>
    <contour>
      <point x="973" y="469"/>
      <point x="956" y="410"/>
      <point x="922" y="367" type="curve" smooth="yes"/>
      <point x="888" y="324"/>
      <point x="841" y="303"/>
      <point x="782" y="303" type="curve" smooth="yes"/>
      <point x="716" y="303"/>
      <point x="674" y="328"/>
      <point x="643" y="367" type="curve" smooth="yes"/>
      <point x="609" y="410"/>
      <point x="592" y="469"/>
      <point x="592" y="545" type="curve" smooth="yes"/>
      <point x="592" y="620"/>
      <point x="609" y="679"/>
      <point x="643" y="722" type="curve" smooth="yes"/>
      <point x="674" y="761"/>
      <point x="716" y="786"/>
      <point x="782" y="786" type="curve" smooth="yes"/>
      <point x="841" y="786"/>
      <point x="888" y="765"/>
      <point x="922" y="722" type="curve" smooth="yes"/>
      <point x="956" y="679"/>
      <point x="973" y="620"/>
      <point x="973" y="545" type="curve" smooth="yes"/>
    </contour>
    <contour>
      <point x="1159" y="135" type="line"/>
      <point x="1159" y="905" type="line" smooth="yes"/>
      <point x="1159" y="1056"/>
      <point x="1117" y="1176"/>
      <point x="1033" y="1264" type="curve" smooth="yes"/>
      <point x="953" y="1347"/>
      <point x="840" y="1395"/>
      <point x="683" y="1395" type="curve" smooth="yes"/>
      <point x="485" y="1395"/>
      <point x="318" y="1318"/>
      <point x="193" y="1163" type="curve" smooth="yes"/>
      <point x="68" y="1008"/>
      <point x="6" y="800"/>
      <point x="6" y="546" type="curve" smooth="yes"/>
      <point x="6" y="278"/>
      <point x="75" y="69"/>
      <point x="214" y="-86" type="curve" smooth="yes"/>
      <point x="353" y="-241"/>
      <point x="541" y="-319"/>
      <point x="767" y="-319" type="curve" smooth="yes"/>
      <point x="848" y="-319"/>
      <point x="919" y="-309"/>
      <point x="977" y="-292" type="curve" smooth="yes"/>
      <point x="1032" y="-276"/>
      <point x="1098" y="-247"/>
      <point x="1153" y="-209" type="curve"/>
      <point x="1061" y="-33" type="line"/>
      <point x="1015" y="-64"/>
      <point x="965" y="-89"/>
      <point x="917" y="-104" type="curve" smooth="yes"/>
      <point x="866" y="-120"/>
      <point x="810" y="-127"/>
      <point x="757" y="-127" type="curve" smooth="yes"/>
      <point x="604" y="-127"/>
      <point x="459" y="-69"/>
      <point x="356" y="54" type="curve" smooth="yes"/>
      <point x="264" y="164"/>
      <point x="205" y="330"/>
      <point x="205" y="544" type="curve" smooth="yes"/>
      <point x="205" y="742"/>
      <point x="255" y="907"/>
      <point x="336" y="1020" type="curve" smooth="yes"/>
      <point x="418" y="1135"/>
      <point x="536" y="1202"/>
      <point x="679" y="1202" type="curve" smooth="yes"/>
      <point x="767" y="1202"/>
      <point x="839" y="1177"/>
      <point x="889" y="1128" type="curve" smooth="yes"/>
      <point x="938" y="1079"/>
      <point x="963" y="1009"/>
      <point x="963" y="918" type="curve" smooth="yes"/>
      <point x="963" y="877" type="line"/>
      <point x="942" y="906"/>
      <point x="910" y="933"/>
      <point x="875" y="949" type="curve" smooth="yes"/>
      <point x="838" y="966"/>
      <point x="793" y="973"/>
      <point x="748" y="973" type="curve" smooth="yes"/>
      <point x="641" y="973"/>
      <point x="552" y="934"/>
      <point x="485" y="856" type="curve" smooth="yes"/>
      <point x="420" y="780"/>
      <point x="385" y="677"/>
      <point x="385" y="546" type="curve" smooth="yes"/>
      <point x="385" y="416"/>
      <point x="419" y="312"/>
      <point x="486" y="233" type="curve" smooth="yes"/>
      <point x="553" y="154"/>
      <point x="641" y="115"/>
      <point x="749" y="115" type="curve" smooth="yes"/>
      <point x="798" y="115"/>
      <point x="839" y="123"/>
      <point x="874" y="140" type="curve" smooth="yes"/>
      <point x="905" y="155"/>
      <point x="934" y="177"/>
      <point x="963" y="217" type="curve"/>
      <point x="963" y="135" type="line"/>
    </contour>
  </outline>
</glyph>
<glyph name="A" format="1">
  <advance width="1233"/>
  <unicode hex="0041"/>
  <outline>
    <contour>
      <point x="436" y="1493" type="line"/>
      <point x="797" y="1493" type="line"/>
      <point x="1200" y="0" type="line"/>
      <point x="905" y="0" type="line"/>
      <point x="813" y="369" type="line"/>
      <point x="418" y="369" type="line"/>
      <point x="328" y="0" type="line"/>
      <point x="33" y="0" type="line"/>
    </contour>
    <contour>
      <point x="756" y="612" type="line"/>
      <point x="616" y="1223" type="line"/>
      <point x="477" y="612" type="line"/>
    </contour>
  </outline>
</glyph>
<glyph name="B" format="1">
  <advance width="1233"/>
  <unicode hex="0042"/>
  <note>
	B
  </note>
  <outline>
    <contour>
      <point x="410" y="678" type="line"/>
      <point x="606" y="678" type="line" smooth="yes"/>
      <point x="697" y="678"/>
      <point x="762" y="660"/>
      <point x="801" y="625" type="curve" smooth="yes"/>
      <point x="840" y="590"/>
      <point x="860" y="532"/>
      <point x="860" y="451" type="curve" smooth="yes"/>
      <point x="860" y="372"/>
      <point x="841" y="316"/>
      <point x="804" y="284" type="curve" smooth="yes"/>
      <point x="766" y="252"/>
      <point x="700" y="236"/>
      <point x="606" y="236" type="curve" smooth="yes"/>
      <point x="410" y="236" type="line"/>
    </contour>
    <contour>
      <point x="410" y="1260" type="line"/>
      <point x="606" y="1260" type="line" smooth="yes"/>
      <point x="679" y="1260"/>
      <point x="732" y="1246"/>
      <point x="765" y="1219" type="curve" smooth="yes"/>
      <point x="797" y="1191"/>
      <point x="813" y="1146"/>
      <point x="813" y="1085" type="curve" smooth="yes"/>
      <point x="813" y="1024"/>
      <point x="797" y="980"/>
      <point x="766" y="953" type="curve" smooth="yes"/>
      <point x="734" y="926"/>
      <point x="681" y="913"/>
      <point x="606" y="913" type="curve" smooth="yes"/>
      <point x="410" y="913" type="line"/>
    </contour>
    <contour>
      <point x="125" y="1495" type="line"/>
      <point x="125" y="0" type="line"/>
      <point x="606" y="0" type="line" smooth="yes"/>
      <point x="801" y="0"/>
      <point x="942" y="32"/>
      <point x="1029" y="97" type="curve" smooth="yes"/>
      <point x="1116" y="162"/>
      <point x="1159" y="266"/>
      <point x="1159" y="410" type="curve" smooth="yes"/>
      <point x="1159" y="527"/>
      <point x="1130" y="619"/>
      <point x="1073" y="684" type="curve" smooth="yes"/>
      <point x="1015" y="749"/>
      <point x="929" y="788"/>
      <point x="815" y="799" type="curve"/>
      <point x="910" y="808"/>
      <point x="983" y="839"/>
      <point x="1032" y="893" type="curve" smooth="yes"/>
      <point x="1081" y="947"/>
      <point x="1106" y="1022"/>
      <point x="1106" y="1118" type="curve" smooth="yes"/>
      <point x="1106" y="1243"/>
      <point x="1064" y="1338"/>
      <point x="981" y="1401" type="curve" smooth="yes"/>
      <point x="897" y="1464"/>
      <point x="772" y="1495"/>
      <point x="606" y="1495" type="curve" smooth="yes"/>
    </contour>
  </outline>
</glyph>
<glyph name="C" format="1">
  <advance width="1233"/>
  <unicode hex="0043"/>
  <note>
	C
  </note>
  <outline>
    <contour>
      <point x="1081" y="371" type="line"/>
      <point x="1030" y="324"/>
      <point x="981" y="290"/>
      <point x="934" y="269" type="curve" smooth="yes"/>
      <point x="886" y="247"/>
      <point x="837" y="236"/>
      <point x="786" y="236" type="curve" smooth="yes"/>
      <point x="678" y="236"/>
      <point x="597" y="279"/>
      <point x="542" y="365" type="curve" smooth="yes"/>
      <point x="487" y="450"/>
      <point x="459" y="577"/>
      <point x="459" y="745" type="curve" smooth="yes"/>
      <point x="459" y="914"/>
      <point x="487" y="1041"/>
      <point x="542" y="1127" type="curve" smooth="yes"/>
      <point x="597" y="1212"/>
      <point x="678" y="1255"/>
      <point x="786" y="1255" type="curve" smooth="yes"/>
      <point x="837" y="1255"/>
      <point x="886" y="1244"/>
      <point x="934" y="1223" type="curve" smooth="yes"/>
      <point x="981" y="1201"/>
      <point x="1030" y="1167"/>
      <point x="1081" y="1120" type="curve"/>
      <point x="1081" y="1448" type="line"/>
      <point x="1036" y="1472"/>
      <point x="987" y="1490"/>
      <point x="935" y="1502" type="curve" smooth="yes"/>
      <point x="883" y="1514"/>
      <point x="829" y="1520"/>
      <point x="772" y="1520" type="curve" smooth="yes"/>
      <point x="571" y="1520"/>
      <point x="417" y="1454"/>
      <point x="311" y="1321" type="curve" smooth="yes"/>
      <point x="205" y="1188"/>
      <point x="152" y="996"/>
      <point x="152" y="745" type="curve" smooth="yes"/>
      <point x="152" y="494"/>
      <point x="205" y="303"/>
      <point x="311" y="170" type="curve" smooth="yes"/>
      <point x="417" y="37"/>
      <point x="571" y="-29"/>
      <point x="772" y="-29" type="curve" smooth="yes"/>
      <point x="829" y="-29"/>
      <point x="883" y="-23"/>
      <point x="934" y="-11" type="curve" smooth="yes"/>
      <point x="985" y="1"/>
      <point x="1034" y="19"/>
      <point x="1081" y="43" type="curve"/>
    </contour>
  </outline>
</glyph>
<glyph name="D" format="1">
  <advance width="1233"/>
  <unicode hex="0044"/>
  <note>
	D
  </note>
  <outline>
    <contour>
      <point x="453" y="0" type="line" smooth="yes"/>
      <point x="697" y="0"/>
      <point x="873" y="59"/>
      <point x="980" y="176" type="curve" smooth="yes"/>
      <point x="1087" y="293"/>
      <point x="1141" y="483"/>
      <point x="1141" y="747" type="curve" smooth="yes"/>
      <point x="1141" y="1016"/>
      <point x="1085" y="1205"/>
      <point x="980" y="1319" type="curve" smooth="yes"/>
      <point x="873" y="1435"/>
      <point x="697" y="1493"/>
      <point x="453" y="1493" type="curve" smooth="yes"/>
      <point x="137" y="1493" type="line"/>
      <point x="137" y="0" type="line"/>
    </contour>
    <contour>
      <point x="432" y="1227" type="line"/>
      <point x="512" y="1227" type="line" smooth="yes"/>
      <point x="628" y="1227"/>
      <point x="711" y="1191"/>
      <point x="760" y="1118" type="curve" smooth="yes"/>
      <point x="809" y="1045"/>
      <point x="834" y="922"/>
      <point x="834" y="748" type="curve" smooth="yes"/>
      <point x="834" y="573"/>
      <point x="809" y="449"/>
      <point x="760" y="376" type="curve" smooth="yes"/>
      <point x="711" y="303"/>
      <point x="628" y="266"/>
      <point x="512" y="266" type="curve" smooth="yes"/>
      <point x="432" y="266" type="line"/>
    </contour>
  </outline>
</glyph>
<glyph name="E" format="2">
  <advance width="1233"/>
  <unicode hex="0045"/>
  <outline>
    <contour>
      <point x="168" y="1493" type="line"/>
      <point x="1098" y="1493" type="line"/>
      <point x="1098" y="1233" type="line"/>
      <point x="463" y="1233" type="line"/>
      <point x="463" y="911" type="line"/>
      <point x="1038" y="911" type="line"/>
      <point x="1038" y="651" type="line"/>
      <point x="463" y="651" type="line"/>
      <point x="463" y="260" type="line"/>
      <point x="1098" y="260" type="line"/>
      <point x="1098" y="0" type="line"/>
      <point x="168" y="0" type="line"/>
    </contour>
  </outline>
</glyph>
<glyph name="F" format="2">
  <advance width="1233"/>
  <unicode hex="0046"/>
  <outline>
    <contour>
      <point x="182" y="1493" type="line"/>
      <point x="1112" y="1493" type="line"/>
      <point x="1112" y="1233" type="line"/>
      <point x="477" y="1233" type="line"/>
      <point x="477" y="901" type="line"/>
      <point x="1055" y="901" type="line"/>
      <point x="1055" y="641" type="line"/>
      <point x="477" y="641" type="line"/>
      <point x="477" y="0" type="line"/>
      <point x="182" y="0" type="line"/>
    </contour>
  </outline>
</glyph>
<glyph name="G" format="1">
  <advance width="1233"/>
  <unicode hex="0047"/>
  <note>
	G
  </note>
  <outline>
    <contour>
      <point x="803" y="-29"/>
      <point x="874" y="-16"/>
      <point x="943" y="9" type="curve" smooth="yes"/>
      <point x="1011" y="34"/>
      <point x="1073" y="70"/>
      <point x="1130" y="119" type="curve"/>
      <point x="1130" y="803" type="line"/>
      <point x="670" y="803" type="line"/>
      <point x="670" y="555" type="line"/>
      <point x="872" y="555" type="line"/>
      <point x="872" y="270" type="line"/>
      <point x="857" y="259"/>
      <point x="846" y="252"/>
      <point x="817" y="245" type="curve" smooth="yes"/>
      <point x="794" y="239"/>
      <point x="765" y="236"/>
      <point x="738" y="236" type="curve" smooth="yes"/>
      <point x="630" y="236"/>
      <point x="554" y="283"/>
      <point x="504" y="365" type="curve" smooth="yes"/>
      <point x="451" y="452"/>
      <point x="424" y="582"/>
      <point x="424" y="747" type="curve" smooth="yes"/>
      <point x="424" y="916"/>
      <point x="452" y="1044"/>
      <point x="507" y="1129" type="curve" smooth="yes"/>
      <point x="562" y="1213"/>
      <point x="646" y="1255"/>
      <point x="759" y="1255" type="curve" smooth="yes"/>
      <point x="822" y="1255"/>
      <point x="881" y="1242"/>
      <point x="935" y="1215" type="curve" smooth="yes"/>
      <point x="988" y="1188"/>
      <point x="1036" y="1147"/>
      <point x="1077" y="1094" type="curve"/>
      <point x="1077" y="1421" type="line"/>
      <point x="1026" y="1453"/>
      <point x="972" y="1478"/>
      <point x="914" y="1495" type="curve" smooth="yes"/>
      <point x="856" y="1512"/>
      <point x="800" y="1520"/>
      <point x="732" y="1520" type="curve" smooth="yes"/>
      <point x="536" y="1520"/>
      <point x="383" y="1453"/>
      <point x="277" y="1321" type="curve" smooth="yes"/>
      <point x="170" y="1188"/>
      <point x="117" y="994"/>
      <point x="117" y="747" type="curve" smooth="yes"/>
      <point x="117" y="489"/>
      <point x="175" y="299"/>
      <point x="275" y="172" type="curve" smooth="yes"/>
      <point x="379" y="40"/>
      <point x="530" y="-29"/>
      <point x="720" y="-29" type="curve" smooth="yes"/>
    </contour>
  </outline>
</glyph>
<glyph name="I" format="2">
  <advance width="1233"/>
  <unicode hex="0049"/>
  <outline>
    <contour>
      <point x="172" y="260" type="line"/>
      <point x="469" y="260" type="line"/>
      <point x="469" y="1233" type="line"/>
      <point x="172" y="1233" type="line"/>
      <point x="172" y="1493" type="line"/>
      <point x="1061" y="1493" type="line"/>
      <point x="1061" y="1233" type="line"/>
      <point x="764" y="1233" type="line"/>
      <point x="764" y="260" type="line"/>
      <point x="1061" y="260" type="line"/>
      <point x="1061" y="0" type="line"/>
      <point x="172" y="0" type="line"/>
    </contour>
  </outline>
</glyph>
<glyph name="J" format="1">
  <advance width="1233"/>
  <unicode hex="004A"/>
  <note>
	J
  </note>
  <outline>
    <contour>
      <point x="109" y="74" type="line"/>
      <point x="179" y="40"/>
      <point x="249" y="14"/>
      <point x="318" y="-3" type="curve" smooth="yes"/>
      <point x="387" y="-20"/>
      <point x="453" y="-29"/>
      <point x="516" y="-29" type="curve" smooth="yes"/>
      <point x="691" y="-29"/>
      <point x="817" y="10"/>
      <point x="894" y="89" type="curve" smooth="yes"/>
      <point x="970" y="167"/>
      <point x="1008" y="297"/>
      <point x="1008" y="479" type="curve" smooth="yes"/>
      <point x="1008" y="1493" type="line"/>
      <point x="352" y="1493" type="line"/>
      <point x="352" y="1233" type="line"/>
      <point x="713" y="1233" type="line"/>
      <point x="713" y="479" type="line" smooth="yes"/>
      <point x="713" y="394"/>
      <point x="695" y="333"/>
      <point x="659" y="294" type="curve" smooth="yes"/>
      <point x="623" y="255"/>
      <point x="566" y="236"/>
      <point x="489" y="236" type="curve" smooth="yes"/>
      <point x="423" y="236"/>
      <point x="358" y="251"/>
      <point x="293" y="282" type="curve" smooth="yes"/>
      <point x="228" y="313"/>
      <point x="166" y="357"/>
      <point x="109" y="416" type="curve"/>
    </contour>
  </outline>
</glyph>
<glyph name="K" format="1">
  <advance width="1233"/>
  <unicode hex="004B"/>
  <outline>
    <contour>
      <point x="117" y="1493" type="line" name="hr00"/>
      <point x="412" y="1493" type="line" name="dh01"/>
      <point x="412" y="903" type="line" name="iv01"/>
      <point x="874" y="1493" type="line" name="at01"/>
      <point x="1208" y="1493" type="line"/>
      <point x="737" y="905" type="line"/>
      <point x="1225" y="0" type="line" name="ab01"/>
      <point x="897" y="0" type="line"/>
      <point x="543" y="672" type="line" name="iv02"/>
      <point x="412" y="506" type="line" name="sh01"/>
      <point x="412" y="0" type="line" name="ab02"/>
      <point x="117" y="0" type="line"/>
    </contour>
  </outline>
</glyph>
<glyph name="L" format="1">
  <advance width="1233"/>
  <unicode hex="004C"/>
  <note>
	L
  </note>
  <outline>
    <contour>
      <point x="1151" y="0" type="line"/>
      <point x="1151" y="260" type="line"/>
      <point x="520" y="260" type="line"/>
      <point x="520" y="1493" type="line"/>
      <point x="225" y="1493" type="line"/>
      <point x="225" y="0" type="line"/>
    </contour>
  </outline>
</glyph>
<glyph name="N" format="2">
  <advance width="1233"/>
  <unicode hex="004E"/>
  <outline>
    <contour>
      <point x="119" y="1493" type="line"/>
      <point x="436" y="1493" type="line"/>
      <point x="852" y="408" type="line"/>
      <point x="852" y="1493" type="line"/>
      <point x="1112" y="1493" type="line"/>
      <point x="1112" y="0" type="line"/>
      <point x="797" y="0" type="line"/>
      <point x="379" y="1085" type="line"/>
      <point x="379" y="0" type="line"/>
      <point x="119" y="0" type="line"/>
    </contour>
  </outline>
</glyph>
<glyph name="O" format="1">
  <advance width="1233"/>
  <unicode hex="004F"/>
  <outline>
    <contour>
      <point x="629.017" y="-29" type="curve" smooth="yes"/>
      <point x="289.744" y="-29"/>
      <point x="92" y="261.249"/>
      <point x="92" y="758.999" type="curve" smooth="yes"/>
      <point x="92" y="1246.23"/>
      <point x="281.474" y="1520"/>
      <point x="618.581" y="1520" type="curve" smooth="yes"/>
      <point x="956.215" y="1520"/>
      <point x="1141" y="1245.37"/>
      <point x="1141" y="743.576" type="curve" smooth="yes"/>
      <point x="1141" y="245.589"/>
      <point x="959.011" y="-29"/>
    </contour>
    <contour>
      <point x="619.951" y="236" type="curve" smooth="yes"/>
      <point x="759.542" y="236"/>
      <point x="834.091" y="405.385"/>
      <point x="834.091" y="724.752" type="curve" smooth="yes"/>
      <point x="834.091" y="743.074" type="line" smooth="yes"/>
      <point x="834.091" y="762.158" type="line" smooth="yes"/>
      <point x="834.091" y="1086.59"/>
      <point x="757.906" y="1255"/>
      <point x="611.122" y="1255" type="curve" smooth="yes"/>
      <point x="398.727" y="1255"/>
      <point x="398.996" y="902.378"/>
      <point x="398.996" y="745.169" type="curve" smooth="yes"/>
      <point x="398.996" y="732.002" type="line" smooth="yes"/>
      <point x="398.996" y="412.714"/>
      <point x="477.373" y="236"/>
    </contour>
  </outline>
</glyph>
<glyph name="P" format="1">
  <advance width="1233"/>
  <unicode hex="0050"/>
  <note>
	P
  </note>
  <outline>
    <contour>
      <point x="457" y="1245" type="line"/>
      <point x="578" y="1245" type="line" smooth="yes"/>
      <point x="675" y="1245"/>
      <point x="743" y="1229"/>
      <point x="782" y="1196" type="curve" smooth="yes"/>
      <point x="821" y="1163"/>
      <point x="840" y="1107"/>
      <point x="840" y="1026" type="curve" smooth="yes"/>
      <point x="840" y="945"/>
      <point x="821" y="889"/>
      <point x="782" y="856" type="curve" smooth="yes"/>
      <point x="743" y="823"/>
      <point x="675" y="807"/>
      <point x="578" y="807" type="curve" smooth="yes"/>
      <point x="457" y="807" type="line"/>
    </contour>
    <contour>
      <point x="162" y="1493" type="line"/>
      <point x="162" y="0" type="line"/>
      <point x="457" y="0" type="line"/>
      <point x="457" y="559" type="line"/>
      <point x="567" y="559" type="line" smooth="yes"/>
      <point x="773" y="559"/>
      <point x="921" y="596"/>
      <point x="1012" y="669" type="curve" smooth="yes"/>
      <point x="1102" y="742"/>
      <point x="1147" y="861"/>
      <point x="1147" y="1026" type="curve" smooth="yes"/>
      <point x="1147" y="1191"/>
      <point x="1102" y="1310"/>
      <point x="1012" y="1383" type="curve" smooth="yes"/>
      <point x="921" y="1456"/>
      <point x="773" y="1493"/>
      <point x="567" y="1493" type="curve" smooth="yes"/>
    </contour>
  </outline>
</glyph>
<glyph name="Q" format="1">
  <advance width="1233"/>
  <unicode hex="0051"/>
  <note>
	Q
  </note>
  <outline>
    <contour>
      <point x="879" y="-281" type="line"/>
      <point x="1081" y="-131" type="line"/>
      <point x="895" y="51" type="line"/>
      <point x="975" y="102"/>
      <point x="1036" y="186"/>
      <point x="1078" y="305" type="curve" smooth="yes"/>
      <point x="1120" y="423"/>
      <point x="1141" y="570"/>
      <point x="1141" y="745" type="curve" smooth="yes"/>
      <point x="1141" y="1000"/>
      <point x="1097" y="1193"/>
      <point x="1009" y="1324" type="curve" smooth="yes"/>
      <point x="920" y="1455"/>
      <point x="789" y="1520"/>
      <point x="616" y="1520" type="curve" smooth="yes"/>
      <point x="443" y="1520"/>
      <point x="313" y="1455"/>
      <point x="225" y="1324" type="curve" smooth="yes"/>
      <point x="136" y="1193"/>
      <point x="92" y="1000"/>
      <point x="92" y="745" type="curve" smooth="yes"/>
      <point x="92" y="490"/>
      <point x="136" y="298"/>
      <point x="225" y="167" type="curve" smooth="yes"/>
      <point x="313" y="36"/>
      <point x="443" y="-29"/>
      <point x="614" y="-29" type="curve" smooth="yes"/>
      <point x="620" y="-29"/>
      <point x="626" y="-29"/>
      <point x="633" y="-28" type="curve" smooth="yes"/>
      <point x="639" y="-27"/>
      <point x="647" y="-25"/>
      <point x="656" y="-23" type="curve"/>
    </contour>
    <contour>
      <point x="692" y="1255"/>
      <point x="747" y="1215"/>
      <point x="782" y="1135" type="curve" smooth="yes"/>
      <point x="817" y="1054"/>
      <point x="834" y="924"/>
      <point x="834" y="745" type="curve" smooth="yes"/>
      <point x="834" y="566"/>
      <point x="817" y="437"/>
      <point x="782" y="357" type="curve" smooth="yes"/>
      <point x="747" y="276"/>
      <point x="692" y="236"/>
      <point x="616" y="236" type="curve" smooth="yes"/>
      <point x="541" y="236"/>
      <point x="486" y="276"/>
      <point x="451" y="357" type="curve" smooth="yes"/>
      <point x="416" y="437"/>
      <point x="399" y="566"/>
      <point x="399" y="745" type="curve" smooth="yes"/>
      <point x="399" y="924"/>
      <point x="416" y="1054"/>
      <point x="451" y="1135" type="curve" smooth="yes"/>
      <point x="486" y="1215"/>
      <point x="541" y="1255"/>
      <point x="616" y="1255" type="curve" smooth="yes"/>
    </contour>
  </outline>
</glyph>
<glyph name="R" format="1">
  <advance width="1233"/>
  <unicode hex="0052"/>
  <note>
	R
  </note>
  <outline>
    <contour>
      <point x="907" y="718"/>
      <point x="975" y="756"/>
      <point x="1023" y="814" type="curve" smooth="yes"/>
      <point x="1073" y="875"/>
      <point x="1098" y="953"/>
      <point x="1098" y="1064" type="curve" smooth="yes"/>
      <point x="1098" y="1209"/>
      <point x="1056" y="1323"/>
      <point x="973" y="1391" type="curve" smooth="yes"/>
      <point x="889" y="1459"/>
      <point x="751" y="1493"/>
      <point x="559" y="1493" type="curve" smooth="yes"/>
      <point x="133" y="1493" type="line"/>
      <point x="133" y="0" type="line"/>
      <point x="428" y="0" type="line"/>
      <point x="428" y="590" type="line"/>
      <point x="522" y="590" type="line" smooth="yes"/>
      <point x="596" y="590"/>
      <point x="652" y="535"/>
      <point x="708" y="421" type="curve" smooth="yes"/>
      <point x="716" y="404"/>
      <point x="710" y="417"/>
      <point x="729" y="377" type="curve" smooth="yes"/>
      <point x="909" y="0" type="line"/>
      <point x="1233" y="0" type="line"/>
      <point x="963" y="537" type="line" smooth="yes"/>
      <point x="930" y="603"/>
      <point x="904" y="644"/>
      <point x="884" y="664" type="curve" smooth="yes"/>
      <point x="866" y="682"/>
      <point x="837" y="699"/>
      <point x="807" y="705" type="curve"/>
    </contour>
    <contour>
      <point x="428" y="1245" type="line"/>
      <point x="567" y="1245" type="line" smooth="yes"/>
      <point x="648" y="1245"/>
      <point x="706" y="1229"/>
      <point x="741" y="1198" type="curve" smooth="yes"/>
      <point x="776" y="1167"/>
      <point x="793" y="1115"/>
      <point x="793" y="1042" type="curve" smooth="yes"/>
      <point x="793" y="962"/>
      <point x="773" y="915"/>
      <point x="741" y="886" type="curve" smooth="yes"/>
      <point x="706" y="854"/>
      <point x="648" y="838"/>
      <point x="567" y="838" type="curve" smooth="yes"/>
      <point x="428" y="838" type="line"/>
    </contour>
  </outline>
</glyph>
<glyph name="S" format="1">
  <advance width="1233"/>
  <unicode hex="0053"/>
  <note>
	S
  </note>
  <outline>
    <contour>
      <point x="655" y="600" type="line" smooth="yes"/>
      <point x="706" y="581"/>
      <point x="744" y="554"/>
      <point x="771" y="521" type="curve" smooth="yes"/>
      <point x="798" y="487"/>
      <point x="811" y="448"/>
      <point x="811" y="403" type="curve" smooth="yes"/>
      <point x="811" y="344"/>
      <point x="791" y="298"/>
      <point x="751" y="265" type="curve" smooth="yes"/>
      <point x="711" y="232"/>
      <point x="655" y="215"/>
      <point x="582" y="215" type="curve" smooth="yes"/>
      <point x="510" y="215"/>
      <point x="437" y="229"/>
      <point x="364" y="256" type="curve" smooth="yes"/>
      <point x="290" y="283"/>
      <point x="214" y="325"/>
      <point x="135" y="381" type="curve"/>
      <point x="135" y="76" type="line"/>
      <point x="204" y="41"/>
      <point x="276" y="15"/>
      <point x="351" y="-3" type="curve" smooth="yes"/>
      <point x="425" y="-20"/>
      <point x="499" y="-29"/>
      <point x="573" y="-29" type="curve" smooth="yes"/>
      <point x="753" y="-29"/>
      <point x="888" y="8"/>
      <point x="977" y="83" type="curve" smooth="yes"/>
      <point x="1066" y="157"/>
      <point x="1110" y="269"/>
      <point x="1110" y="420" type="curve" smooth="yes"/>
      <point x="1110" y="531"/>
      <point x="1082" y="622"/>
      <point x="1025" y="695" type="curve" smooth="yes"/>
      <point x="968" y="768"/>
      <point x="880" y="826"/>
      <point x="760" y="870" type="curve" smooth="yes"/>
      <point x="633" y="918" type="line" smooth="yes"/>
      <point x="545" y="951"/>
      <point x="487" y="981"/>
      <point x="460" y="1008" type="curve" smooth="yes"/>
      <point x="432" y="1035"/>
      <point x="418" y="1069"/>
      <point x="418" y="1110" type="curve" smooth="yes"/>
      <point x="418" y="1163"/>
      <point x="437" y="1204"/>
      <point x="475" y="1233" type="curve" smooth="yes"/>
      <point x="513" y="1262"/>
      <point x="568" y="1276"/>
      <point x="639" y="1276" type="curve" smooth="yes"/>
      <point x="703" y="1276"/>
      <point x="768" y="1264"/>
      <point x="833" y="1241" type="curve" smooth="yes"/>
      <point x="898" y="1218"/>
      <point x="963" y="1184"/>
      <point x="1026" y="1139" type="curve"/>
      <point x="1026" y="1427" type="line"/>
      <point x="959" y="1458"/>
      <point x="891" y="1481"/>
      <point x="822" y="1497" type="curve" smooth="yes"/>
      <point x="753" y="1512"/>
      <point x="685" y="1520"/>
      <point x="616" y="1520" type="curve" smooth="yes"/>
      <point x="465" y="1520"/>
      <point x="346" y="1481"/>
      <point x="259" y="1404" type="curve" smooth="yes"/>
      <point x="172" y="1327"/>
      <point x="129" y="1220"/>
      <point x="129" y="1085" type="curve" smooth="yes"/>
      <point x="129" y="980"/>
      <point x="155" y="896"/>
      <point x="208" y="834" type="curve" smooth="yes"/>
      <point x="261" y="771"/>
      <point x="361" y="712"/>
      <point x="510" y="655" type="curve" smooth="yes"/>
    </contour>
  </outline>
</glyph>
<glyph name="U" format="1">
  <advance width="1233"/>
  <unicode hex="0055"/>
  <outline>
    <contour>
      <point x="617.774" y="-29" type="curve" smooth="yes"/>
      <point x="297.52" y="-29"/>
      <point x="106" y="188.052"/>
      <point x="106" y="551" type="curve" smooth="yes"/>
      <point x="106" y="1493" type="line"/>
      <point x="401" y="1493" type="line"/>
      <point x="401" y="477" type="line" smooth="yes"/>
      <point x="401" y="327.512"/>
      <point x="481.523" y="238"/>
      <point x="616" y="238" type="curve" smooth="yes"/>
      <point x="750.477" y="238"/>
      <point x="831" y="327.512"/>
      <point x="831" y="477" type="curve" smooth="yes"/>
      <point x="831" y="1493" type="line"/>
      <point x="1126" y="1493" type="line"/>
      <point x="1126" y="551" type="line" smooth="yes"/>
      <point x="1126" y="147.185"/>
      <point x="971.618" y="-29"/>
    </contour>
  </outline>
</glyph>
<glyph name="V" format="2">
  <advance width="1233"/>
  <unicode hex="0056"/>
  <outline>
    <contour>
      <point x="57" y="1493" type="line"/>
      <point x="354" y="1493" type="line"/>
      <point x="616" y="246" type="line"/>
      <point x="879" y="1493" type="line"/>
      <point x="1176" y="1493" type="line"/>
      <point x="821" y="0" type="line"/>
      <point x="412" y="0" type="line"/>
    </contour>
  </outline>
</glyph>
<glyph name="W" format="2">
  <advance width="1233"/>
  <unicode hex="0057"/>
  <outline>
    <contour>
      <point x="0" y="1493" type="line"/>
      <point x="258" y="1493" type="line"/>
      <point x="365" y="397" type="line"/>
      <point x="494" y="1106" type="line"/>
      <point x="739" y="1106" type="line"/>
      <point x="889" y="397" type="line"/>
      <point x="973" y="1493" type="line"/>
      <point x="1233" y="1493" type="line"/>
      <point x="1061" y="0" type="line"/>
      <point x="786" y="0" type="line"/>
      <point x="616" y="784" type="line"/>
      <point x="457" y="0" type="line"/>
      <point x="184" y="0" type="line"/>
    </contour>
  </outline>
</glyph>
<glyph name="Y" format="1">
  <advance width="1233"/>
  <unicode hex="0059"/>
  <note>
	Y
  </note>
  <outline>
    <contour>
      <point x="8" y="1493" type="line"/>
      <point x="469" y="588" type="line"/>
      <point x="469" y="0" type="line"/>
      <point x="764" y="0" type="line"/>
      <point x="764" y="588" type="line"/>
      <point x="1225" y="1493" type="line"/>
      <point x="907" y="1493" type="line"/>
      <point x="616" y="893" type="line"/>
      <point x="326" y="1493" type="line"/>
    </contour>
  </outline>
</glyph>
<glyph name="Z" format="1">
  <advance width="1233"/>
  <unicode hex="005A"/>
  <outline>
    <contour>
      <point x="94" y="244" type="line" name="hr00"/>
      <point x="765" y="1233" type="line" name="sv01"/>
      <point x="116" y="1233" type="line"/>
      <point x="116" y="1493" type="line" name="at01"/>
      <point x="1126" y="1493" type="line"/>
      <point x="1126" y="1249" type="line"/>
      <point x="434" y="260" type="line" name="sv02"/>
      <point x="1140" y="260" type="line"/>
      <point x="1140" y="0" type="line" name="ab01"/>
      <point x="94" y="0" type="line"/>
    </contour>
  </outline>
</glyph>
<glyph name="bracketleft" format="1">
  <advance width="1233"/>
  <unicode hex="005B"/>
  <note>
	bracketleft
  </note>
  <outline>
    <contour>
      <point x="927" y="-270" type="line"/>
      <point x="927" y="-85" type="line"/>
      <point x="689" y="-85" type="line"/>
      <point x="689" y="1446" type="line"/>
      <point x="927" y="1446" type="line"/>
      <point x="927" y="1636" type="line"/>
      <point x="424" y="1636" type="line"/>
      <point x="424" y="-270" type="line"/>
    </contour>
  </outline>
</glyph>
<glyph name="backslash" format="1">
  <advance width="1233"/>
  <unicode hex="005C"/>
  <outline>
    <contour>
      <point x="112" y="1493" type="line" name="hr00"/>
      <point x="335" y="1493" type="line"/>
      <point x="1121" y="-190" type="line" name="av01"/>
      <point x="898" y="-190" type="line"/>
    </contour>
  </outline>
</glyph>
<glyph name="bracketright" format="1">
  <advance width="1233"/>
  <unicode hex="005D"/>
  <note>
	bracketright
  </note>
  <outline>
    <contour>
      <point x="809" y="1635" type="line"/>
      <point x="304" y="1635" type="line"/>
      <point x="304" y="1445" type="line"/>
      <point x="547" y="1445" type="line"/>
      <point x="547" y="-83" type="line"/>
      <point x="304" y="-83" type="line"/>
      <point x="304" y="-270" type="line"/>
      <point x="809" y="-270" type="line"/>
    </contour>
  </outline>
</glyph>
<glyph name="underscore" format="1">
  <advance width="1233"/>
  <unicode hex="005F"/>
  <note>
	underscore
  </note>
  <outline>
    <contour>
      <point x="1233" y="-293" type="line"/>
      <point x="0" y="-293" type="line"/>
      <point x="0" y="-483" type="line"/>
      <point x="1233" y="-483" type="line"/>
    </contour>
  </outline>
</glyph>
<glyph name="a" format="1">
  <advance width="1233"/>
  <unicode hex="0061"/>
  <outline>
    <contour>
      <point x="494" y="-29" type="qcurve" name="dv01"/>
      <point x="403" y="-29"/>
      <point x="256" y="21"/>
      <point x="202" y="72" type="qcurve"/>
      <point x="95" y="173"/>
      <point x="95" y="354" type="qcurve" name="sh01"/>
      <point x="95" y="450"/>
      <point x="156" y="596"/>
      <point x="222" y="644" type="qcurve"/>
      <point x="349" y="737"/>
      <point x="615" y="737" type="qcurve"/>
      <point x="818" y="737" type="line" name="ah01"/>
      <point x="818" y="786" type="line"/>
      <point x="818" y="823"/>
      <point x="791" y="877"/>
      <point x="767" y="894" type="qcurve"/>
      <point x="741" y="913"/>
      <point x="662" y="930"/>
      <point x="610" y="930" type="qcurve" name="dv03"/>
      <point x="562" y="930"/>
      <point x="461" y="917"/>
      <point x="412" y="904" type="qcurve" name="sh03"/>
      <point x="364" y="891"/>
      <point x="260" y="848"/>
      <point x="206" y="819" type="qcurve" name="ih01"/>
      <point x="206" y="1069" type="line"/>
      <point x="248" y="1086"/>
      <point x="353" y="1119"/>
      <point x="403" y="1128" type="qcurve" name="sh04"/>
      <point x="444" y="1136"/>
      <point x="562" y="1148"/>
      <point x="628" y="1148" type="qcurve" name="hr01"/>
      <point x="698" y="1148"/>
      <point x="811" y="1132"/>
      <point x="902" y="1102"/>
      <point x="971" y="1060"/>
      <point x="997" y="1035" type="qcurve"/>
      <point x="1024" y="1008"/>
      <point x="1066" y="938"/>
      <point x="1095" y="843"/>
      <point x="1109" y="722"/>
      <point x="1109" y="644" type="qcurve" name="sh05"/>
      <point x="1109" y="625"/>
      <point x="1108" y="563"/>
      <point x="1107" y="489"/>
      <point x="1106" y="410"/>
      <point x="1105" y="340"/>
      <point x="1104" y="286"/>
      <point x="1104" y="274" type="qcurve" name="sh06"/>
      <point x="1104" y="253"/>
      <point x="1105" y="211"/>
      <point x="1106" y="197" type="qcurve" name="sh07"/>
      <point x="1108" y="177"/>
      <point x="1111" y="138"/>
      <point x="1113" y="125" type="qcurve" name="sh08"/>
      <point x="1116" y="105"/>
      <point x="1124" y="68"/>
      <point x="1127" y="58" type="qcurve"/>
      <point x="1132" y="43"/>
      <point x="1147" y="11"/>
      <point x="1155" y="0" type="qcurve" name="ab01"/>
      <point x="865" y="0" type="line"/>
      <point x="856" y="15"/>
      <point x="841" y="47"/>
      <point x="837" y="58" type="qcurve"/>
      <point x="834" y="68"/>
      <point x="826" y="105"/>
      <point x="824" y="125" type="qcurve" name="sh09"/>
      <point x="769" y="52"/>
      <point x="682" y="11" type="qcurve" name="ab02"/>
      <point x="640" y="-9"/>
      <point x="551" y="-29"/>
    </contour>
    <contour>
      <point x="576" y="174" type="qcurve" name="dv02"/>
      <point x="632" y="174"/>
      <point x="722" y="217"/>
      <point x="754" y="262" type="qcurve"/>
      <point x="818" y="348"/>
      <point x="818" y="506" type="qcurve" name="sh10"/>
      <point x="818" y="526" type="line" name="dv04"/>
      <point x="701" y="526" type="line"/>
      <point x="536" y="526"/>
      <point x="472" y="484" type="qcurve"/>
      <point x="407" y="442"/>
      <point x="407" y="342" type="qcurve" name="sh02"/>
      <point x="407" y="301"/>
      <point x="429" y="242"/>
      <point x="452" y="219" type="qcurve"/>
      <point x="497" y="174"/>
    </contour>
  </outline>
</glyph>
<glyph name="b" format="1">
  <advance width="1233"/>
  <unicode hex="0062"/>
  <note>
	b
  </note>
  <outline>
    <contour>
      <point x="850" y="449"/>
      <point x="832" y="364"/>
      <point x="796" y="303" type="curve" smooth="yes"/>
      <point x="760" y="242"/>
      <point x="710" y="211"/>
      <point x="647" y="211" type="curve" smooth="yes"/>
      <point x="584" y="211"/>
      <point x="534" y="242"/>
      <point x="497" y="303" type="curve" smooth="yes"/>
      <point x="460" y="364"/>
      <point x="442" y="449"/>
      <point x="442" y="557" type="curve" smooth="yes"/>
      <point x="442" y="665"/>
      <point x="460" y="750"/>
      <point x="497" y="811" type="curve" smooth="yes"/>
      <point x="534" y="872"/>
      <point x="584" y="903"/>
      <point x="647" y="903" type="curve" smooth="yes"/>
      <point x="710" y="903"/>
      <point x="760" y="872"/>
      <point x="796" y="811" type="curve" smooth="yes"/>
      <point x="832" y="750"/>
      <point x="850" y="665"/>
      <point x="850" y="557" type="curve" smooth="yes"/>
    </contour>
    <contour>
      <point x="442" y="1556" type="line"/>
      <point x="150" y="1556" type="line"/>
      <point x="150" y="0" type="line"/>
      <point x="442" y="0" type="line"/>
      <point x="442" y="166" type="line"/>
      <point x="473" y="101"/>
      <point x="513" y="53"/>
      <point x="563" y="20" type="curve" smooth="yes"/>
      <point x="613" y="-13"/>
      <point x="671" y="-29"/>
      <point x="740" y="-29" type="curve" smooth="yes"/>
      <point x="864" y="-29"/>
      <point x="966" y="22"/>
      <point x="1037" y="124" type="curve" smooth="yes"/>
      <point x="1109" y="228"/>
      <point x="1143" y="378"/>
      <point x="1143" y="560" type="curve" smooth="yes"/>
      <point x="1143" y="754"/>
      <point x="1104" y="899"/>
      <point x="1036" y="995" type="curve" smooth="yes"/>
      <point x="966" y="1094"/>
      <point x="862" y="1147"/>
      <point x="735" y="1147" type="curve" smooth="yes"/>
      <point x="667" y="1147"/>
      <point x="615" y="1132"/>
      <point x="568" y="1101" type="curve" smooth="yes"/>
      <point x="520" y="1070"/>
      <point x="478" y="1023"/>
      <point x="442" y="961" type="curve"/>
    </contour>
  </outline>
</glyph>
<glyph name="c" format="1">
  <advance width="1233"/>
  <unicode hex="0063"/>
  <note>
	c
  </note>
  <outline>
    <contour>
      <point x="771" y="-29"/>
      <point x="826" y="-22"/>
      <point x="882" y="-7" type="curve" smooth="yes"/>
      <point x="938" y="8"/>
      <point x="988" y="26"/>
      <point x="1041" y="57" type="curve"/>
      <point x="1041" y="326" type="line"/>
      <point x="994" y="283"/>
      <point x="944" y="256"/>
      <point x="901" y="240" type="curve" smooth="yes"/>
      <point x="851" y="221"/>
      <point x="798" y="211"/>
      <point x="742" y="211" type="curve" smooth="yes"/>
      <point x="646" y="211"/>
      <point x="573" y="241"/>
      <point x="522" y="301" type="curve" smooth="yes"/>
      <point x="471" y="362"/>
      <point x="445" y="448"/>
      <point x="445" y="559" type="curve" smooth="yes"/>
      <point x="445" y="670"/>
      <point x="471" y="757"/>
      <point x="522" y="818" type="curve" smooth="yes"/>
      <point x="571" y="877"/>
      <point x="641" y="909"/>
      <point x="741" y="909" type="curve" smooth="yes"/>
      <point x="798" y="909"/>
      <point x="854" y="899"/>
      <point x="901" y="880" type="curve" smooth="yes"/>
      <point x="948" y="861"/>
      <point x="998" y="832"/>
      <point x="1041" y="795" type="curve"/>
      <point x="1041" y="1063" type="line"/>
      <point x="986" y="1092"/>
      <point x="930" y="1114"/>
      <point x="875" y="1128" type="curve" smooth="yes"/>
      <point x="819" y="1142"/>
      <point x="760" y="1149"/>
      <point x="699" y="1149" type="curve" smooth="yes"/>
      <point x="528" y="1149"/>
      <point x="393" y="1097"/>
      <point x="295" y="993" type="curve" smooth="yes"/>
      <point x="197" y="888"/>
      <point x="148" y="743"/>
      <point x="148" y="559" type="curve" smooth="yes"/>
      <point x="148" y="376"/>
      <point x="197" y="232"/>
      <point x="294" y="127" type="curve" smooth="yes"/>
      <point x="391" y="23"/>
      <point x="527" y="-29"/>
      <point x="702" y="-29" type="curve" smooth="yes"/>
    </contour>
  </outline>
</glyph>
<glyph name="d" format="1">
  <advance width="1233"/>
  <unicode hex="0064"/>
  <outline>
    <contour>
      <point x="492" y="-29" type="qcurve" name="dv01"/>
      <point x="399" y="-29"/>
      <point x="250" y="47"/>
      <point x="196" y="124" type="qcurve"/>
      <point x="90" y="277"/>
      <point x="90" y="560" type="qcurve" name="sh01"/>
      <point x="90" y="843"/>
      <point x="198" y="995" type="qcurve"/>
      <point x="249" y="1067"/>
      <point x="399" y="1147"/>
      <point x="498" y="1147" type="qcurve" name="at01"/>
      <point x="546" y="1147"/>
      <point x="628" y="1126"/>
      <point x="666" y="1101" type="qcurve"/>
      <point x="737" y="1054"/>
      <point x="791" y="961" type="qcurve" name="iv01"/>
      <point x="791" y="1556" type="line" name="ah01"/>
      <point x="1083" y="1556" type="line" name="sh02"/>
      <point x="1083" y="0" type="line" name="ab01"/>
      <point x="820" y="0" type="line"/>
      <point x="791" y="166" type="line" name="sh03"/>
      <point x="768" y="117"/>
      <point x="706" y="44"/>
      <point x="670" y="20" type="qcurve" name="hr01"/>
      <point x="596" y="-29"/>
    </contour>
    <contour>
      <point x="586" y="211" type="qcurve" name="dv02"/>
      <point x="680" y="211"/>
      <point x="736" y="303" type="qcurve"/>
      <point x="791" y="394"/>
      <point x="791" y="557" type="qcurve" name="sh04"/>
      <point x="791" y="720"/>
      <point x="736" y="811" type="qcurve"/>
      <point x="680" y="903"/>
      <point x="586" y="903" type="qcurve" name="sv01"/>
      <point x="491" y="903"/>
      <point x="437" y="811" type="qcurve"/>
      <point x="383" y="719"/>
      <point x="383" y="557" type="qcurve" name="sh05"/>
      <point x="383" y="394"/>
      <point x="437" y="303" type="qcurve"/>
      <point x="491" y="211"/>
    </contour>
  </outline>
</glyph>
<glyph name="e" format="1">
  <advance width="1233"/>
  <unicode hex="0065"/>
  <outline>
    <contour>
      <point x="665" y="-29" type="qcurve" name="hr00"/>
      <point x="519" y="-29"/>
      <point x="306" y="46"/>
      <point x="231" y="122" type="qcurve"/>
      <point x="82" y="274"/>
      <point x="82" y="554" type="qcurve"/>
      <point x="82" y="694"/>
      <point x="153" y="908"/>
      <point x="225" y="988" type="qcurve"/>
      <point x="367" y="1147"/>
      <point x="617" y="1147" type="qcurve" name="at01"/>
      <point x="735" y="1147"/>
      <point x="931" y="1076"/>
      <point x="1002" y="1000" type="qcurve"/>
      <point x="1073" y="924"/>
      <point x="1139" y="713"/>
      <point x="1139" y="584" type="qcurve"/>
      <point x="1139" y="465" type="line"/>
      <point x="380" y="465" type="line" name="dv02"/>
      <point x="382" y="332"/>
      <point x="458" y="268" type="qcurve"/>
      <point x="535" y="203"/>
      <point x="687" y="203" type="qcurve" name="dv01"/>
      <point x="788" y="203"/>
      <point x="887" y="232" type="qcurve"/>
      <point x="933" y="246"/>
      <point x="1035" y="290"/>
      <point x="1092" y="324" type="qcurve"/>
      <point x="1092" y="55" type="line"/>
      <point x="990" y="13"/>
      <point x="884" y="-8" type="qcurve"/>
      <point x="830" y="-19"/>
      <point x="719" y="-29"/>
    </contour>
    <contour>
      <point x="844" y="685" type="line"/>
      <point x="842" y="802"/>
      <point x="785" y="861" type="qcurve"/>
      <point x="758" y="889"/>
      <point x="673" y="920"/>
      <point x="617" y="920" type="qcurve" name="sv01"/>
      <point x="514" y="920"/>
      <point x="454" y="859" type="qcurve"/>
      <point x="394" y="797"/>
      <point x="383" y="684" type="qcurve" name="dv03"/>
    </contour>
  </outline>
</glyph>
<glyph name="f" format="1">
  <advance width="1233"/>
  <unicode hex="0066"/>
  <note>
	f
  </note>
  <outline>
    <contour>
      <point x="729" y="0" type="line"/>
      <point x="729" y="895" type="line"/>
      <point x="1073" y="895" type="line"/>
      <point x="1073" y="1120" type="line"/>
      <point x="729" y="1120" type="line"/>
      <point x="729" y="1218" type="line" smooth="yes"/>
      <point x="729" y="1257"/>
      <point x="739" y="1291"/>
      <point x="755" y="1307" type="curve" smooth="yes"/>
      <point x="770" y="1323"/>
      <point x="800" y="1331"/>
      <point x="844" y="1331" type="curve" smooth="yes"/>
      <point x="1073" y="1331" type="line"/>
      <point x="1073" y="1556" type="line"/>
      <point x="832" y="1556" type="line" smooth="yes"/>
      <point x="680" y="1556"/>
      <point x="576" y="1530"/>
      <point x="520" y="1478" type="curve" smooth="yes"/>
      <point x="464" y="1426"/>
      <point x="436" y="1333"/>
      <point x="436" y="1198" type="curve" smooth="yes"/>
      <point x="436" y="1120" type="line"/>
      <point x="164" y="1120" type="line"/>
      <point x="164" y="895" type="line"/>
      <point x="436" y="895" type="line"/>
      <point x="436" y="0" type="line"/>
    </contour>
  </outline>
</glyph>
<glyph name="g" format="1">
  <advance width="1233"/>
  <unicode hex="0067"/>
  <note>
	g
  </note>
  <outline>
    <contour>
      <point x="803" y="474"/>
      <point x="783" y="396"/>
      <point x="746" y="337" type="curve" smooth="yes"/>
      <point x="708" y="276"/>
      <point x="658" y="246"/>
      <point x="596" y="246" type="curve" smooth="yes"/>
      <point x="533" y="246"/>
      <point x="485" y="277"/>
      <point x="448" y="336" type="curve" smooth="yes"/>
      <point x="410" y="396"/>
      <point x="391" y="477"/>
      <point x="391" y="578" type="curve" smooth="yes"/>
      <point x="391" y="679"/>
      <point x="410" y="759"/>
      <point x="448" y="819" type="curve" smooth="yes"/>
      <point x="485" y="878"/>
      <point x="533" y="909"/>
      <point x="596" y="909" type="curve" smooth="yes"/>
      <point x="658" y="909"/>
      <point x="708" y="879"/>
      <point x="746" y="819" type="curve" smooth="yes"/>
      <point x="785" y="757"/>
      <point x="803" y="675"/>
      <point x="803" y="577" type="curve" smooth="yes"/>
    </contour>
    <contour>
      <point x="1096" y="1120" type="line"/>
      <point x="803" y="1120" type="line"/>
      <point x="803" y="977" type="line"/>
      <point x="774" y="1032"/>
      <point x="735" y="1074"/>
      <point x="685" y="1104" type="curve" smooth="yes"/>
      <point x="635" y="1134"/>
      <point x="579" y="1149"/>
      <point x="512" y="1149" type="curve" smooth="yes"/>
      <point x="388" y="1149"/>
      <point x="286" y="1097"/>
      <point x="211" y="993" type="curve" smooth="yes"/>
      <point x="136" y="889"/>
      <point x="98" y="747"/>
      <point x="98" y="573" type="curve" smooth="yes"/>
      <point x="98" y="399"/>
      <point x="136" y="264"/>
      <point x="211" y="164" type="curve" smooth="yes"/>
      <point x="286" y="64"/>
      <point x="387" y="14"/>
      <point x="517" y="14" type="curve" smooth="yes"/>
      <point x="583" y="14"/>
      <point x="642" y="27"/>
      <point x="689" y="53" type="curve" smooth="yes"/>
      <point x="736" y="79"/>
      <point x="774" y="119"/>
      <point x="803" y="172" type="curve"/>
      <point x="803" y="51" type="line" smooth="yes"/>
      <point x="803" y="-32"/>
      <point x="783" y="-93"/>
      <point x="744" y="-132" type="curve" smooth="yes"/>
      <point x="705" y="-171"/>
      <point x="646" y="-190"/>
      <point x="556" y="-190" type="curve" smooth="yes"/>
      <point x="502" y="-190"/>
      <point x="441" y="-183"/>
      <point x="384" y="-168" type="curve" smooth="yes"/>
      <point x="330" y="-154"/>
      <point x="270" y="-131"/>
      <point x="215" y="-100" type="curve"/>
      <point x="215" y="-369" type="line"/>
      <point x="277" y="-388"/>
      <point x="338" y="-402"/>
      <point x="398" y="-411" type="curve" smooth="yes"/>
      <point x="458" y="-420"/>
      <point x="520" y="-424"/>
      <point x="578" y="-424" type="curve" smooth="yes"/>
      <point x="763" y="-424"/>
      <point x="894" y="-384"/>
      <point x="975" y="-305" type="curve" smooth="yes"/>
      <point x="1056" y="-225"/>
      <point x="1096" y="-95"/>
      <point x="1096" y="84" type="curve" smooth="yes"/>
    </contour>
  </outline>
</glyph>
<glyph name="h" format="1">
  <advance width="1233"/>
  <unicode hex="0068"/>
  <note>
	h
  </note>
  <outline>
    <contour>
      <point x="1071" y="727" type="line" smooth="yes"/>
      <point x="1071" y="866"/>
      <point x="1044" y="971"/>
      <point x="990" y="1042" type="curve" smooth="yes"/>
      <point x="936" y="1112"/>
      <point x="855" y="1147"/>
      <point x="751" y="1147" type="curve" smooth="yes"/>
      <point x="678" y="1147"/>
      <point x="619" y="1130"/>
      <point x="569" y="1096" type="curve" smooth="yes"/>
      <point x="519" y="1062"/>
      <point x="484" y="1014"/>
      <point x="463" y="952" type="curve"/>
      <point x="463" y="1556" type="line"/>
      <point x="172" y="1556" type="line"/>
      <point x="172" y="0" type="line"/>
      <point x="463" y="0" type="line"/>
      <point x="463" y="641" type="line" smooth="yes"/>
      <point x="463" y="724"/>
      <point x="478" y="790"/>
      <point x="508" y="837" type="curve" smooth="yes"/>
      <point x="538" y="884"/>
      <point x="579" y="907"/>
      <point x="635" y="907" type="curve" smooth="yes"/>
      <point x="684" y="907"/>
      <point x="723" y="890"/>
      <point x="746" y="855" type="curve" smooth="yes"/>
      <point x="769" y="820"/>
      <point x="780" y="763"/>
      <point x="780" y="682" type="curve" smooth="yes"/>
      <point x="780" y="0" type="line"/>
      <point x="1071" y="0" type="line"/>
    </contour>
  </outline>
</glyph>
<glyph name="i" format="1">
  <advance width="1233"/>
  <unicode hex="0069"/>
  <note>
	i
  </note>
  <outline>
    <contour>
      <point x="417" y="1665" type="line"/>
      <point x="417" y="1323" type="line"/>
      <point x="710" y="1323" type="line"/>
      <point x="710" y="1665" type="line"/>
    </contour>
    <contour>
      <point x="417" y="467" type="line" smooth="yes"/>
      <point x="417" y="300"/>
      <point x="447" y="180"/>
      <point x="508" y="108" type="curve" smooth="yes"/>
      <point x="569" y="36"/>
      <point x="669" y="0"/>
      <point x="808" y="0" type="curve" smooth="yes"/>
      <point x="1124" y="0" type="line"/>
      <point x="1124" y="225" type="line"/>
      <point x="890" y="225" type="line" smooth="yes"/>
      <point x="825" y="225"/>
      <point x="778" y="243"/>
      <point x="751" y="280" type="curve" smooth="yes"/>
      <point x="724" y="317"/>
      <point x="710" y="379"/>
      <point x="710" y="467" type="curve" smooth="yes"/>
      <point x="710" y="1116" type="line"/>
      <point x="120" y="1116" type="line"/>
      <point x="120" y="891" type="line"/>
      <point x="417" y="891" type="line"/>
    </contour>
  </outline>
</glyph>
<glyph name="j" format="1">
  <advance width="1233"/>
  <unicode hex="006A"/>
  <note>
	j
  </note>
  <outline>
    <contour>
      <point x="504" y="-424" type="line" smooth="yes"/>
      <point x="646" y="-424"/>
      <point x="747" y="-386"/>
      <point x="805" y="-317" type="curve" smooth="yes"/>
      <point x="865" y="-245"/>
      <point x="895" y="-125"/>
      <point x="895" y="43" type="curve" smooth="yes"/>
      <point x="895" y="1120" type="line"/>
      <point x="305" y="1120" type="line"/>
      <point x="305" y="895" type="line"/>
      <point x="602" y="895" type="line"/>
      <point x="602" y="43" type="line" smooth="yes"/>
      <point x="602" y="-45"/>
      <point x="588" y="-107"/>
      <point x="561" y="-144" type="curve" smooth="yes"/>
      <point x="534" y="-181"/>
      <point x="487" y="-199"/>
      <point x="422" y="-199" type="curve" smooth="yes"/>
      <point x="188" y="-199" type="line"/>
      <point x="188" y="-424" type="line"/>
    </contour>
    <contour>
      <point x="865" y="1253" type="line" smooth="yes"/>
      <point x="884" y="1253"/>
      <point x="895" y="1264"/>
      <point x="895" y="1283" type="curve" smooth="yes"/>
      <point x="895" y="1565" type="line" smooth="yes"/>
      <point x="895" y="1584"/>
      <point x="884" y="1595"/>
      <point x="865" y="1595" type="curve" smooth="yes"/>
      <point x="632" y="1595" type="line" smooth="yes"/>
      <point x="613" y="1595"/>
      <point x="602" y="1584"/>
      <point x="602" y="1565" type="curve" smooth="yes"/>
      <point x="602" y="1283" type="line" smooth="yes"/>
      <point x="602" y="1264"/>
      <point x="613" y="1253"/>
      <point x="632" y="1253" type="curve" smooth="yes"/>
    </contour>
  </outline>
</glyph>
<glyph name="k" format="1">
  <advance width="1233"/>
  <unicode hex="006B"/>
  <outline>
    <contour>
      <point x="174" y="1556" type="line"/>
      <point x="467" y="1556" type="line"/>
      <point x="467" y="739" type="line"/>
      <point x="819" y="1120" type="line"/>
      <point x="1174" y="1120" type="line"/>
      <point x="750" y="702" type="line"/>
      <point x="1198" y="0" type="line"/>
      <point x="874" y="0" type="line"/>
      <point x="567" y="524" type="line"/>
      <point x="467" y="428" type="line"/>
      <point x="467" y="0" type="line"/>
      <point x="174" y="0" type="line"/>
    </contour>
  </outline>
</glyph>
<glyph name="l" format="1">
  <advance width="1233"/>
  <unicode hex="006C"/>
  <note>
	l
  </note>
  <outline>
    <contour>
      <point x="1094" y="0" type="line"/>
      <point x="1094" y="225" type="line"/>
      <point x="860" y="225" type="line" smooth="yes"/>
      <point x="795" y="225"/>
      <point x="748" y="243"/>
      <point x="721" y="280" type="curve" smooth="yes"/>
      <point x="694" y="317"/>
      <point x="680" y="379"/>
      <point x="680" y="467" type="curve" smooth="yes"/>
      <point x="680" y="1556" type="line"/>
      <point x="90" y="1556" type="line"/>
      <point x="90" y="1331" type="line"/>
      <point x="387" y="1331" type="line"/>
      <point x="387" y="467" type="line" smooth="yes"/>
      <point x="387" y="300"/>
      <point x="417" y="180"/>
      <point x="478" y="108" type="curve" smooth="yes"/>
      <point x="539" y="36"/>
      <point x="639" y="0"/>
      <point x="778" y="0" type="curve" smooth="yes"/>
    </contour>
  </outline>
</glyph>
<glyph name="m" format="1">
  <advance width="1233"/>
  <unicode hex="006D"/>
  <note>
	m
  </note>
  <outline>
    <contour>
      <point x="682" y="1047"/>
      <point x="659" y="1080"/>
      <point x="622" y="1107" type="curve" smooth="yes"/>
      <point x="585" y="1134"/>
      <point x="543" y="1147"/>
      <point x="499" y="1147" type="curve" smooth="yes"/>
      <point x="451" y="1147"/>
      <point x="408" y="1132"/>
      <point x="375" y="1109" type="curve" smooth="yes"/>
      <point x="338" y="1083"/>
      <point x="312" y="1048"/>
      <point x="295" y="1004" type="curve"/>
      <point x="266" y="1120" type="line"/>
      <point x="82" y="1120" type="line"/>
      <point x="82" y="0" type="line"/>
      <point x="322" y="0" type="line"/>
      <point x="322" y="719" type="line" smooth="yes"/>
      <point x="322" y="802"/>
      <point x="328" y="858"/>
      <point x="341" y="886" type="curve" smooth="yes"/>
      <point x="354" y="914"/>
      <point x="377" y="928"/>
      <point x="410" y="928" type="curve" smooth="yes"/>
      <point x="443" y="928"/>
      <point x="467" y="914"/>
      <point x="480" y="885" type="curve" smooth="yes"/>
      <point x="493" y="856"/>
      <point x="500" y="801"/>
      <point x="500" y="719" type="curve" smooth="yes"/>
      <point x="500" y="0" type="line"/>
      <point x="737" y="0" type="line"/>
      <point x="737" y="719" type="line" smooth="yes"/>
      <point x="737" y="803"/>
      <point x="744" y="856"/>
      <point x="757" y="884" type="curve" smooth="yes"/>
      <point x="769" y="911"/>
      <point x="789" y="928"/>
      <point x="827" y="928" type="curve" smooth="yes"/>
      <point x="861" y="928"/>
      <point x="883" y="914"/>
      <point x="896" y="885" type="curve" smooth="yes"/>
      <point x="909" y="856"/>
      <point x="915" y="807"/>
      <point x="915" y="719" type="curve" smooth="yes"/>
      <point x="915" y="0" type="line"/>
      <point x="1155" y="0" type="line"/>
      <point x="1155" y="631" type="line" smooth="yes"/>
      <point x="1155" y="838"/>
      <point x="1138" y="977"/>
      <point x="1100" y="1047" type="curve" smooth="yes"/>
      <point x="1066" y="1110"/>
      <point x="999" y="1147"/>
      <point x="902" y="1147" type="curve" smooth="yes"/>
      <point x="849" y="1147"/>
      <point x="808" y="1136"/>
      <point x="774" y="1113" type="curve" smooth="yes"/>
      <point x="740" y="1090"/>
      <point x="712" y="1055"/>
      <point x="690" y="1008" type="curve"/>
    </contour>
  </outline>
</glyph>
<glyph name="n" format="1">
  <advance width="1233"/>
  <unicode hex="006E"/>
  <outline>
    <contour>
      <point x="172" y="1120" type="line" name="sh01"/>
      <point x="434" y="1120" type="line"/>
      <point x="463" y="952" type="line" name="sh02"/>
      <point x="495" y="1045"/>
      <point x="569" y="1096" type="qcurve"/>
      <point x="644" y="1147"/>
      <point x="751" y="1147" type="qcurve" name="at01"/>
      <point x="909" y="1147"/>
      <point x="990" y="1042" type="qcurve"/>
      <point x="1071" y="935"/>
      <point x="1071" y="727" type="qcurve"/>
      <point x="1071" y="0" type="line" name="sh03"/>
      <point x="780" y="0" type="line" name="ah01"/>
      <point x="780" y="682" type="line"/>
      <point x="780" y="805"/>
      <point x="746" y="857" type="qcurve"/>
      <point x="729" y="883"/>
      <point x="672" y="909"/>
      <point x="636" y="909" type="qcurve" name="sv01"/>
      <point x="593" y="909"/>
      <point x="532" y="873"/>
      <point x="509" y="838" type="qcurve"/>
      <point x="487" y="804"/>
      <point x="463" y="710"/>
      <point x="463" y="641" type="qcurve" name="sh04"/>
      <point x="463" y="0" type="line" name="hr01"/>
      <point x="172" y="0" type="line"/>
    </contour>
  </outline>
</glyph>
<glyph name="o" format="1">
  <advance width="1233"/>
  <unicode hex="006F"/>
  <outline>
    <contour>
      <point x="617" y="-29" type="qcurve" name="hr00"/>
      <point x="489" y="-29"/>
      <point x="301" y="58"/>
      <point x="238" y="129" type="qcurve"/>
      <point x="168" y="208"/>
      <point x="98" y="428"/>
      <point x="98" y="560" type="qcurve" name="sh01"/>
      <point x="98" y="694"/>
      <point x="169" y="911"/>
      <point x="238" y="989" type="qcurve"/>
      <point x="307" y="1067"/>
      <point x="498" y="1147"/>
      <point x="616" y="1147" type="qcurve" name="at01"/>
      <point x="739" y="1147"/>
      <point x="929" y="1064"/>
      <point x="995" y="990" type="qcurve"/>
      <point x="1061" y="916"/>
      <point x="1135" y="701"/>
      <point x="1135" y="559" type="qcurve" name="sh02"/>
      <point x="1135" y="425"/>
      <point x="1065" y="209"/>
      <point x="996" y="130" type="qcurve"/>
      <point x="930" y="55"/>
      <point x="739" y="-29"/>
    </contour>
    <contour>
      <point x="616" y="209" type="qcurve" name="dv01"/>
      <point x="722" y="209"/>
      <point x="782" y="301" type="qcurve"/>
      <point x="842" y="394"/>
      <point x="842" y="560" type="qcurve" name="ah01"/>
      <point x="842" y="724"/>
      <point x="782" y="817" type="qcurve"/>
      <point x="751" y="865"/>
      <point x="667" y="909"/>
      <point x="616" y="909" type="qcurve" name="sv01"/>
      <point x="560" y="909"/>
      <point x="479" y="860"/>
      <point x="451" y="817" type="qcurve"/>
      <point x="391" y="724"/>
      <point x="391" y="560" type="qcurve" name="sh03"/>
      <point x="391" y="394"/>
      <point x="451" y="301" type="qcurve"/>
      <point x="511" y="209"/>
    </contour>
  </outline>
</glyph>
<glyph name="p" format="1">
  <advance width="1233"/>
  <unicode hex="0070"/>
  <note>
	p
  </note>
  <outline>
    <contour>
      <point x="442" y="158" type="line"/>
      <point x="478" y="95"/>
      <point x="520" y="49"/>
      <point x="568" y="18" type="curve" smooth="yes"/>
      <point x="615" y="-14"/>
      <point x="669" y="-29"/>
      <point x="729" y="-29" type="curve" smooth="yes"/>
      <point x="862" y="-29"/>
      <point x="964" y="22"/>
      <point x="1036" y="123" type="curve" smooth="yes"/>
      <point x="1107" y="224"/>
      <point x="1143" y="370"/>
      <point x="1143" y="559" type="curve" smooth="yes"/>
      <point x="1143" y="746"/>
      <point x="1108" y="890"/>
      <point x="1037" y="993" type="curve" smooth="yes"/>
      <point x="966" y="1096"/>
      <point x="867" y="1147"/>
      <point x="739" y="1147" type="curve" smooth="yes"/>
      <point x="672" y="1147"/>
      <point x="613" y="1131"/>
      <point x="563" y="1098" type="curve" smooth="yes"/>
      <point x="513" y="1065"/>
      <point x="473" y="1017"/>
      <point x="442" y="952" type="curve"/>
      <point x="442" y="1120" type="line"/>
      <point x="150" y="1120" type="line"/>
      <point x="150" y="-426" type="line"/>
      <point x="442" y="-426" type="line"/>
    </contour>
    <contour>
      <point x="850" y="453"/>
      <point x="832" y="368"/>
      <point x="796" y="307" type="curve" smooth="yes"/>
      <point x="760" y="246"/>
      <point x="710" y="215"/>
      <point x="647" y="215" type="curve" smooth="yes"/>
      <point x="584" y="215"/>
      <point x="534" y="246"/>
      <point x="497" y="307" type="curve" smooth="yes"/>
      <point x="460" y="368"/>
      <point x="442" y="453"/>
      <point x="442" y="561" type="curve" smooth="yes"/>
      <point x="442" y="669"/>
      <point x="460" y="754"/>
      <point x="497" y="815" type="curve" smooth="yes"/>
      <point x="534" y="876"/>
      <point x="584" y="907"/>
      <point x="647" y="907" type="curve" smooth="yes"/>
      <point x="710" y="907"/>
      <point x="760" y="876"/>
      <point x="796" y="815" type="curve" smooth="yes"/>
      <point x="832" y="754"/>
      <point x="850" y="669"/>
      <point x="850" y="561" type="curve" smooth="yes"/>
    </contour>
  </outline>
</glyph>
<glyph name="q" format="1">
  <advance width="1233"/>
  <unicode hex="0071"/>
  <note>
	q
  </note>
  <outline>
    <contour>
      <point x="1083" y="-426" type="line"/>
      <point x="1083" y="1120" type="line"/>
      <point x="820" y="1120" type="line"/>
      <point x="791" y="952" type="line"/>
      <point x="760" y="1017"/>
      <point x="718" y="1066"/>
      <point x="670" y="1098" type="curve" smooth="yes"/>
      <point x="620" y="1131"/>
      <point x="562" y="1147"/>
      <point x="492" y="1147" type="curve" smooth="yes"/>
      <point x="369" y="1147"/>
      <point x="267" y="1096"/>
      <point x="196" y="994" type="curve" smooth="yes"/>
      <point x="126" y="893"/>
      <point x="90" y="745"/>
      <point x="90" y="558" type="curve" smooth="yes"/>
      <point x="90" y="371"/>
      <point x="126" y="224"/>
      <point x="198" y="123" type="curve" smooth="yes"/>
      <point x="272" y="19"/>
      <point x="376" y="-29"/>
      <point x="499" y="-29" type="curve" smooth="yes"/>
      <point x="567" y="-29"/>
      <point x="618" y="-14"/>
      <point x="666" y="18" type="curve" smooth="yes"/>
      <point x="713" y="49"/>
      <point x="755" y="95"/>
      <point x="791" y="158" type="curve"/>
      <point x="791" y="-426" type="line"/>
    </contour>
    <contour>
      <point x="523" y="215"/>
      <point x="473" y="246"/>
      <point x="437" y="307" type="curve" smooth="yes"/>
      <point x="401" y="368"/>
      <point x="383" y="453"/>
      <point x="383" y="561" type="curve" smooth="yes"/>
      <point x="383" y="669"/>
      <point x="401" y="754"/>
      <point x="437" y="815" type="curve" smooth="yes"/>
      <point x="473" y="876"/>
      <point x="523" y="907"/>
      <point x="586" y="907" type="curve" smooth="yes"/>
      <point x="649" y="907"/>
      <point x="699" y="876"/>
      <point x="736" y="815" type="curve" smooth="yes"/>
      <point x="773" y="754"/>
      <point x="791" y="669"/>
      <point x="791" y="561" type="curve" smooth="yes"/>
      <point x="791" y="453"/>
      <point x="773" y="368"/>
      <point x="736" y="307" type="curve" smooth="yes"/>
      <point x="699" y="246"/>
      <point x="649" y="215"/>
      <point x="586" y="215" type="curve" smooth="yes"/>
    </contour>
  </outline>
</glyph>
<glyph name="r" format="1">
  <advance width="1233"/>
  <unicode hex="0072"/>
  <note>
	r
  </note>
  <outline>
    <contour>
      <point x="1151" y="1090" type="line"/>
      <point x="1122" y="1106"/>
      <point x="1081" y="1123"/>
      <point x="1042" y="1133" type="curve" smooth="yes"/>
      <point x="1006" y="1142"/>
      <point x="961" y="1147"/>
      <point x="921" y="1147" type="curve" smooth="yes"/>
      <point x="847" y="1147"/>
      <point x="775" y="1130"/>
      <point x="716" y="1095" type="curve" smooth="yes"/>
      <point x="657" y="1060"/>
      <point x="613" y="1010"/>
      <point x="584" y="946" type="curve"/>
      <point x="584" y="1120" type="line"/>
      <point x="291" y="1120" type="line"/>
      <point x="291" y="0" type="line"/>
      <point x="584" y="0" type="line"/>
      <point x="584" y="516" type="line" smooth="yes"/>
      <point x="584" y="594"/>
      <point x="587" y="641"/>
      <point x="594" y="680" type="curve" smooth="yes"/>
      <point x="601" y="721"/>
      <point x="614" y="752"/>
      <point x="627" y="773" type="curve" smooth="yes"/>
      <point x="652" y="813"/>
      <point x="690" y="846"/>
      <point x="735" y="867" type="curve" smooth="yes"/>
      <point x="780" y="888"/>
      <point x="836" y="899"/>
      <point x="898" y="899" type="curve" smooth="yes"/>
      <point x="948" y="899"/>
      <point x="996" y="892"/>
      <point x="1039" y="877" type="curve" smooth="yes"/>
      <point x="1082" y="862"/>
      <point x="1119" y="840"/>
      <point x="1151" y="811" type="curve"/>
    </contour>
  </outline>
</glyph>
<glyph name="s" format="1">
  <advance width="1233"/>
  <unicode hex="0073"/>
  <note>
	s
  </note>
  <outline>
    <contour>
      <point x="991" y="1085" type="line"/>
      <point x="932" y="1106"/>
      <point x="871" y="1121"/>
      <point x="808" y="1132" type="curve" smooth="yes"/>
      <point x="745" y="1142"/>
      <point x="681" y="1147"/>
      <point x="618" y="1147" type="curve" smooth="yes"/>
      <point x="477" y="1147"/>
      <point x="367" y="1117"/>
      <point x="289" y="1057" type="curve" smooth="yes"/>
      <point x="211" y="997"/>
      <point x="172" y="913"/>
      <point x="172" y="805" type="curve" smooth="yes"/>
      <point x="172" y="714"/>
      <point x="198" y="642"/>
      <point x="249" y="588" type="curve" smooth="yes"/>
      <point x="300" y="534"/>
      <point x="382" y="494"/>
      <point x="494" y="469" type="curve" smooth="yes"/>
      <point x="575" y="451" type="line" smooth="yes"/>
      <point x="669" y="428"/>
      <point x="729" y="407"/>
      <point x="754" y="387" type="curve" smooth="yes"/>
      <point x="779" y="367"/>
      <point x="791" y="338"/>
      <point x="791" y="301" type="curve" smooth="yes"/>
      <point x="791" y="263"/>
      <point x="773" y="234"/>
      <point x="738" y="214" type="curve" smooth="yes"/>
      <point x="703" y="194"/>
      <point x="651" y="184"/>
      <point x="582" y="184" type="curve" smooth="yes"/>
      <point x="519" y="184"/>
      <point x="455" y="194"/>
      <point x="388" y="213" type="curve" smooth="yes"/>
      <point x="321" y="232"/>
      <point x="255" y="260"/>
      <point x="190" y="297" type="curve"/>
      <point x="190" y="41" type="line"/>
      <point x="263" y="18"/>
      <point x="334" y="0"/>
      <point x="405" y="-12" type="curve" smooth="yes"/>
      <point x="476" y="-23"/>
      <point x="545" y="-29"/>
      <point x="612" y="-29" type="curve" smooth="yes"/>
      <point x="764" y="-29"/>
      <point x="878" y="0"/>
      <point x="954" y="58" type="curve" smooth="yes"/>
      <point x="1029" y="115"/>
      <point x="1067" y="202"/>
      <point x="1067" y="317" type="curve" smooth="yes"/>
      <point x="1067" y="413"/>
      <point x="1042" y="489"/>
      <point x="993" y="546" type="curve" smooth="yes"/>
      <point x="943" y="602"/>
      <point x="865" y="643"/>
      <point x="758" y="668" type="curve" smooth="yes"/>
      <point x="674" y="688" type="line"/>
      <point x="663" y="691" type="line"/>
      <point x="520" y="724"/>
      <point x="449" y="768"/>
      <point x="449" y="821" type="curve" smooth="yes"/>
      <point x="449" y="858"/>
      <point x="466" y="887"/>
      <point x="499" y="906" type="curve" smooth="yes"/>
      <point x="532" y="925"/>
      <point x="582" y="934"/>
      <point x="647" y="934" type="curve" smooth="yes"/>
      <point x="706" y="934"/>
      <point x="764" y="925"/>
      <point x="823" y="908" type="curve" smooth="yes"/>
      <point x="881" y="890"/>
      <point x="937" y="864"/>
      <point x="991" y="829" type="curve"/>
    </contour>
  </outline>
</glyph>
<glyph name="t" format="1">
  <advance width="1233"/>
  <unicode hex="0074"/>
  <note>
	t
  </note>
  <outline>
    <contour>
      <point x="1073" y="-4" type="line"/>
      <point x="1073" y="221" type="line"/>
      <point x="848" y="221" type="line" smooth="yes"/>
      <point x="795" y="221"/>
      <point x="754" y="230"/>
      <point x="727" y="254" type="curve" smooth="yes"/>
      <point x="701" y="277"/>
      <point x="690" y="311"/>
      <point x="690" y="361" type="curve" smooth="yes"/>
      <point x="690" y="895" type="line"/>
      <point x="1073" y="895" type="line"/>
      <point x="1073" y="1120" type="line"/>
      <point x="690" y="1120" type="line"/>
      <point x="690" y="1556" type="line"/>
      <point x="397" y="1426" type="line"/>
      <point x="397" y="1120" type="line"/>
      <point x="111" y="1120" type="line"/>
      <point x="111" y="895" type="line"/>
      <point x="397" y="895" type="line"/>
      <point x="397" y="375" type="line" smooth="yes"/>
      <point x="397" y="230"/>
      <point x="427" y="130"/>
      <point x="486" y="77" type="curve" smooth="yes"/>
      <point x="545" y="23"/>
      <point x="659" y="-4"/>
      <point x="827" y="-4" type="curve" smooth="yes"/>
    </contour>
  </outline>
</glyph>
<glyph name="u" format="1">
  <advance width="1233"/>
  <unicode hex="0075"/>
  <note>
	u
  </note>
  <outline>
    <contour>
      <point x="552" y="-29"/>
      <point x="613" y="-12"/>
      <point x="663" y="22" type="curve" smooth="yes"/>
      <point x="712" y="56"/>
      <point x="747" y="104"/>
      <point x="768" y="166" type="curve"/>
      <point x="797" y="0" type="line"/>
      <point x="1061" y="0" type="line"/>
      <point x="1061" y="1120" type="line"/>
      <point x="768" y="1120" type="line"/>
      <point x="768" y="477" type="line" smooth="yes"/>
      <point x="768" y="394"/>
      <point x="753" y="328"/>
      <point x="724" y="281" type="curve" smooth="yes"/>
      <point x="692" y="230"/>
      <point x="649" y="211"/>
      <point x="598" y="211" type="curve" smooth="yes"/>
      <point x="549" y="211"/>
      <point x="510" y="228"/>
      <point x="487" y="263" type="curve" smooth="yes"/>
      <point x="464" y="298"/>
      <point x="453" y="355"/>
      <point x="453" y="436" type="curve" smooth="yes"/>
      <point x="453" y="1120" type="line"/>
      <point x="160" y="1120" type="line"/>
      <point x="160" y="391" type="line" smooth="yes"/>
      <point x="160" y="252"/>
      <point x="187" y="148"/>
      <point x="242" y="77" type="curve" smooth="yes"/>
      <point x="299" y="2"/>
      <point x="381" y="-29"/>
      <point x="481" y="-29" type="curve" smooth="yes"/>
    </contour>
  </outline>
</glyph>
<glyph name="v" format="1">
  <advance width="1233"/>
  <unicode hex="0076"/>
  <outline>
    <contour>
      <point x="80" y="1120" type="line"/>
      <point x="377" y="1120" type="line"/>
      <point x="616" y="246" type="line"/>
      <point x="856" y="1120" type="line"/>
      <point x="1153" y="1120" type="line"/>
      <point x="797" y="0" type="line"/>
      <point x="436" y="0" type="line"/>
    </contour>
  </outline>
</glyph>
<glyph name="w" format="1">
  <advance width="1233"/>
  <unicode hex="0077"/>
  <outline>
    <contour>
      <point x="0" y="1120" type="line"/>
      <point x="244" y="1120" type="line"/>
      <point x="377" y="262" type="line"/>
      <point x="498" y="827" type="line"/>
      <point x="735" y="827" type="line"/>
      <point x="854" y="262" type="line"/>
      <point x="989" y="1120" type="line"/>
      <point x="1233" y="1120" type="line"/>
      <point x="1030" y="0" type="line"/>
      <point x="752" y="0" type="line"/>
      <point x="616" y="582" type="line"/>
      <point x="481" y="0" type="line"/>
      <point x="203" y="0" type="line"/>
    </contour>
  </outline>
</glyph>
<glyph name="x" format="1">
  <advance width="1233"/>
  <unicode hex="0078"/>
  <outline>
    <contour>
      <point x="469" y="584" type="line"/>
      <point x="88" y="1120" type="line"/>
      <point x="430" y="1120" type="line"/>
      <point x="616" y="786" type="line"/>
      <point x="803" y="1120" type="line"/>
      <point x="1145" y="1120" type="line"/>
      <point x="768" y="584" type="line"/>
      <point x="1178" y="0" type="line"/>
      <point x="836" y="0" type="line"/>
      <point x="616" y="377" type="line"/>
      <point x="397" y="0" type="line"/>
      <point x="55" y="0" type="line"/>
    </contour>
  </outline>
</glyph>
<glyph name="y" format="1">
  <advance width="1233"/>
  <unicode hex="0079"/>
  <note>
	y
  </note>
  <outline>
    <contour>
      <point x="1176" y="1120" type="line"/>
      <point x="868" y="1120" type="line"/>
      <point x="623" y="393" type="line"/>
      <point x="367" y="1120" type="line"/>
      <point x="59" y="1120" type="line"/>
      <point x="485" y="31" type="line"/>
      <point x="463" y="-29" type="line" smooth="yes"/>
      <point x="434" y="-103"/>
      <point x="406" y="-150"/>
      <point x="378" y="-171" type="curve" smooth="yes"/>
      <point x="350" y="-191"/>
      <point x="306" y="-201"/>
      <point x="246" y="-201" type="curve" smooth="yes"/>
      <point x="127" y="-201" type="line"/>
      <point x="127" y="-424" type="line"/>
      <point x="369" y="-424" type="line" smooth="yes"/>
      <point x="448" y="-424"/>
      <point x="515" y="-400"/>
      <point x="570" y="-352" type="curve" smooth="yes"/>
      <point x="625" y="-303"/>
      <point x="672" y="-226"/>
      <point x="711" y="-121" type="curve" smooth="yes"/>
    </contour>
  </outline>
</glyph>
<glyph name="z" format="1">
  <advance width="1233"/>
  <unicode hex="007A"/>
  <outline>
    <contour>
      <point x="162" y="229" type="line"/>
      <point x="752" y="901" type="line"/>
      <point x="186" y="901" type="line"/>
      <point x="186" y="1120" type="line"/>
      <point x="1081" y="1120" type="line"/>
      <point x="1081" y="891" type="line"/>
      <point x="492" y="219" type="line"/>
      <point x="1081" y="219" type="line"/>
      <point x="1081" y="0" type="line"/>
      <point x="162" y="0" type="line"/>
    </contour>
  </outline>
</glyph>
<glyph name="braceleft" format="1">
  <advance width="1233"/>
  <unicode hex="007B"/>
  <note>
	braceleft
  </note>
  <outline>
    <contour>
      <point x="1053" y="-143" type="line"/>
      <point x="930" y="-143" type="line" smooth="yes"/>
      <point x="861" y="-143"/>
      <point x="814" y="-129"/>
      <point x="791" y="-101" type="curve" smooth="yes"/>
      <point x="768" y="-72"/>
      <point x="756" y="-10"/>
      <point x="756" y="86" type="curve" smooth="yes"/>
      <point x="756" y="291" type="line" smooth="yes"/>
      <point x="756" y="400"/>
      <point x="740" y="478"/>
      <point x="707" y="523" type="curve" smooth="yes"/>
      <point x="674" y="568"/>
      <point x="616" y="598"/>
      <point x="532" y="612" type="curve"/>
      <point x="616" y="625"/>
      <point x="674" y="653"/>
      <point x="707" y="698" type="curve" smooth="yes"/>
      <point x="740" y="743"/>
      <point x="756" y="820"/>
      <point x="756" y="930" type="curve" smooth="yes"/>
      <point x="756" y="1139" type="line" smooth="yes"/>
      <point x="756" y="1234"/>
      <point x="768" y="1296"/>
      <point x="791" y="1324" type="curve" smooth="yes"/>
      <point x="814" y="1352"/>
      <point x="861" y="1366"/>
      <point x="930" y="1366" type="curve" smooth="yes"/>
      <point x="1053" y="1366" type="line"/>
      <point x="1053" y="1556" type="line"/>
      <point x="903" y="1556" type="line" smooth="yes"/>
      <point x="737" y="1556"/>
      <point x="626" y="1532"/>
      <point x="570" y="1483" type="curve" smooth="yes"/>
      <point x="513" y="1434"/>
      <point x="485" y="1335"/>
      <point x="485" y="1188" type="curve" smooth="yes"/>
      <point x="485" y="973" type="line" smooth="yes"/>
      <point x="485" y="872"/>
      <point x="467" y="802"/>
      <point x="432" y="764" type="curve" smooth="yes"/>
      <point x="396" y="726"/>
      <point x="331" y="707"/>
      <point x="238" y="707" type="curve" smooth="yes"/>
      <point x="146" y="707" type="line"/>
      <point x="146" y="516" type="line"/>
      <point x="238" y="516" type="line" smooth="yes"/>
      <point x="327" y="516"/>
      <point x="396" y="498"/>
      <point x="432" y="459" type="curve" smooth="yes"/>
      <point x="469" y="419"/>
      <point x="485" y="343"/>
      <point x="485" y="250" type="curve" smooth="yes"/>
      <point x="485" y="35" type="line" smooth="yes"/>
      <point x="485" y="-112"/>
      <point x="513" y="-211"/>
      <point x="570" y="-260" type="curve" smooth="yes"/>
      <point x="626" y="-309"/>
      <point x="737" y="-334"/>
      <point x="903" y="-334" type="curve" smooth="yes"/>
      <point x="1053" y="-334" type="line"/>
    </contour>
  </outline>
</glyph>
<glyph name="braceright" format="1">
  <advance width="1233"/>
  <unicode hex="007D"/>
  <note>
	braceright
  </note>
  <outline>
    <contour>
      <point x="360" y="-334" type="line" smooth="yes"/>
      <point x="525" y="-334"/>
      <point x="636" y="-309"/>
      <point x="692" y="-260" type="curve" smooth="yes"/>
      <point x="747" y="-211"/>
      <point x="775" y="-112"/>
      <point x="775" y="35" type="curve" smooth="yes"/>
      <point x="775" y="250" type="line" smooth="yes"/>
      <point x="775" y="350"/>
      <point x="793" y="419"/>
      <point x="830" y="458" type="curve" smooth="yes"/>
      <point x="866" y="497"/>
      <point x="931" y="516"/>
      <point x="1025" y="516" type="curve" smooth="yes"/>
      <point x="1117" y="516" type="line"/>
      <point x="1117" y="707" type="line"/>
      <point x="1025" y="707" type="line" smooth="yes"/>
      <point x="925" y="707"/>
      <point x="865" y="728"/>
      <point x="830" y="765" type="curve" smooth="yes"/>
      <point x="795" y="802"/>
      <point x="775" y="865"/>
      <point x="775" y="973" type="curve" smooth="yes"/>
      <point x="775" y="1188" type="line" smooth="yes"/>
      <point x="775" y="1335"/>
      <point x="747" y="1434"/>
      <point x="692" y="1483" type="curve" smooth="yes"/>
      <point x="636" y="1532"/>
      <point x="525" y="1556"/>
      <point x="360" y="1556" type="curve" smooth="yes"/>
      <point x="210" y="1556" type="line"/>
      <point x="210" y="1366" type="line"/>
      <point x="331" y="1366" type="line" smooth="yes"/>
      <point x="395" y="1366"/>
      <point x="447" y="1354"/>
      <point x="472" y="1323" type="curve" smooth="yes"/>
      <point x="495" y="1294"/>
      <point x="507" y="1233"/>
      <point x="507" y="1139" type="curve" smooth="yes"/>
      <point x="507" y="930" type="line" smooth="yes"/>
      <point x="507" y="820"/>
      <point x="523" y="743"/>
      <point x="556" y="698" type="curve" smooth="yes"/>
      <point x="588" y="653"/>
      <point x="646" y="625"/>
      <point x="730" y="612" type="curve"/>
      <point x="652" y="599"/>
      <point x="590" y="570"/>
      <point x="556" y="523" type="curve" smooth="yes"/>
      <point x="523" y="478"/>
      <point x="507" y="400"/>
      <point x="507" y="291" type="curve" smooth="yes"/>
      <point x="507" y="86" type="line" smooth="yes"/>
      <point x="507" y="-9"/>
      <point x="495" y="-71"/>
      <point x="471" y="-100" type="curve" smooth="yes"/>
      <point x="447" y="-129"/>
      <point x="400" y="-143"/>
      <point x="331" y="-143" type="curve" smooth="yes"/>
      <point x="210" y="-143" type="line"/>
      <point x="210" y="-334" type="line"/>
    </contour>
  </outline>
</glyph>
<glyph name="asciitilde" format="1">
  <advance width="1233"/>
  <unicode hex="007E"/>
  <note>
	asciitilde
  </note>
  <outline>
    <contour>
      <point x="1145" y="811" type="line"/>
      <point x="1096" y="768"/>
      <point x="1049" y="737"/>
      <point x="1003" y="717" type="curve" smooth="yes"/>
      <point x="957" y="696"/>
      <point x="911" y="686"/>
      <point x="864" y="686" type="curve" smooth="yes"/>
      <point x="802" y="686"/>
      <point x="732" y="704"/>
      <point x="655" y="741" type="curve" smooth="yes"/>
      <point x="622" y="756" type="line" smooth="yes"/>
      <point x="573" y="777"/>
      <point x="531" y="791"/>
      <point x="498" y="798" type="curve" smooth="yes"/>
      <point x="465" y="805"/>
      <point x="430" y="809"/>
      <point x="395" y="809" type="curve" smooth="yes"/>
      <point x="340" y="809"/>
      <point x="288" y="800"/>
      <point x="239" y="782" type="curve" smooth="yes"/>
      <point x="190" y="764"/>
      <point x="140" y="735"/>
      <point x="88" y="694" type="curve"/>
      <point x="88" y="465" type="line"/>
      <point x="137" y="507"/>
      <point x="186" y="538"/>
      <point x="233" y="557" type="curve" smooth="yes"/>
      <point x="280" y="576"/>
      <point x="329" y="586"/>
      <point x="381" y="586" type="curve" smooth="yes"/>
      <point x="415" y="586"/>
      <point x="449" y="582"/>
      <point x="484" y="574" type="curve" smooth="yes"/>
      <point x="518" y="566"/>
      <point x="561" y="551"/>
      <point x="612" y="528" type="curve"/>
      <point x="619" y="525"/>
      <point x="630" y="521"/>
      <point x="645" y="514" type="curve" smooth="yes"/>
      <point x="720" y="480"/>
      <point x="788" y="463"/>
      <point x="848" y="463" type="curve" smooth="yes"/>
      <point x="901" y="463"/>
      <point x="951" y="472"/>
      <point x="999" y="491" type="curve" smooth="yes"/>
      <point x="1046" y="509"/>
      <point x="1095" y="538"/>
      <point x="1145" y="578" type="curve"/>
    </contour>
  </outline>
</glyph>
<glyph name="exclamdown" format="1">
  <advance width="1233"/>
  <unicode hex="00A1"/>
  <note>
	exclamdown
  </note>
  <outline>
    <contour>
      <point x="750" y="0" type="line"/>
      <point x="750" y="655" type="line"/>
      <point x="715" y="1012" type="line"/>
      <point x="516" y="1012" type="line"/>
      <point x="483" y="655" type="line"/>
      <point x="483" y="0" type="line"/>
    </contour>
    <contour>
      <point x="720" y="1210" type="line" smooth="yes"/>
      <point x="739" y="1210"/>
      <point x="750" y="1221"/>
      <point x="750" y="1240" type="curve" smooth="yes"/>
      <point x="750" y="1463" type="line" smooth="yes"/>
      <point x="750" y="1482"/>
      <point x="739" y="1493"/>
      <point x="720" y="1493" type="curve" smooth="yes"/>
      <point x="513" y="1493" type="line" smooth="yes"/>
      <point x="494" y="1493"/>
      <point x="483" y="1482"/>
      <point x="483" y="1463" type="curve" smooth="yes"/>
      <point x="483" y="1240" type="line" smooth="yes"/>
      <point x="483" y="1221"/>
      <point x="494" y="1210"/>
      <point x="513" y="1210" type="curve" smooth="yes"/>
    </contour>
  </outline>
</glyph>
<glyph name="cent" format="1">
  <advance width="1233"/>
  <unicode hex="00A2"/>
  <note>
	cent
  </note>
  <outline>
    <contour>
      <point x="1036" y="1077" type="line"/>
      <point x="995" y="1097"/>
      <point x="956" y="1113"/>
      <point x="917" y="1124" type="curve" smooth="yes"/>
      <point x="878" y="1135"/>
      <point x="838" y="1142"/>
      <point x="797" y="1145" type="curve"/>
      <point x="797" y="1432" type="line"/>
      <point x="655" y="1432" type="line"/>
      <point x="655" y="1145" type="line"/>
      <point x="498" y="1134"/>
      <point x="375" y="1077"/>
      <point x="284" y="973" type="curve" smooth="yes"/>
      <point x="193" y="868"/>
      <point x="147" y="731"/>
      <point x="147" y="561" type="curve" smooth="yes"/>
      <point x="147" y="394"/>
      <point x="193" y="259"/>
      <point x="284" y="154" type="curve" smooth="yes"/>
      <point x="375" y="49"/>
      <point x="498" y="-10"/>
      <point x="655" y="-25" type="curve"/>
      <point x="655" y="-313" type="line"/>
      <point x="797" y="-313" type="line"/>
      <point x="797" y="-25" type="line"/>
      <point x="842" y="-22"/>
      <point x="884" y="-14"/>
      <point x="924" y="-3" type="curve" smooth="yes"/>
      <point x="964" y="8"/>
      <point x="1001" y="24"/>
      <point x="1036" y="43" type="curve"/>
      <point x="1036" y="311" type="line"/>
      <point x="999" y="282"/>
      <point x="960" y="260"/>
      <point x="921" y="244" type="curve" smooth="yes"/>
      <point x="881" y="228"/>
      <point x="840" y="218"/>
      <point x="797" y="215" type="curve"/>
      <point x="797" y="907" type="line"/>
      <point x="839" y="902"/>
      <point x="880" y="892"/>
      <point x="920" y="876" type="curve" smooth="yes"/>
      <point x="960" y="859"/>
      <point x="999" y="837"/>
      <point x="1036" y="809" type="curve"/>
    </contour>
    <contour>
      <point x="655" y="215" type="line"/>
      <point x="581" y="219"/>
      <point x="523" y="252"/>
      <point x="481" y="314" type="curve" smooth="yes"/>
      <point x="439" y="375"/>
      <point x="418" y="458"/>
      <point x="418" y="561" type="curve" smooth="yes"/>
      <point x="418" y="663"/>
      <point x="439" y="744"/>
      <point x="480" y="804" type="curve" smooth="yes"/>
      <point x="521" y="863"/>
      <point x="579" y="898"/>
      <point x="655" y="907" type="curve"/>
    </contour>
  </outline>
</glyph>
<glyph name="sterling" format="1">
  <advance width="1233"/>
  <unicode hex="00A3"/>
  <note>
	sterling
  </note>
  <outline>
    <contour>
      <point x="1102" y="1462" type="line"/>
      <point x="1058" y="1481"/>
      <point x="1012" y="1496"/>
      <point x="965" y="1506" type="curve" smooth="yes"/>
      <point x="918" y="1515"/>
      <point x="866" y="1520"/>
      <point x="811" y="1520" type="curve" smooth="yes"/>
      <point x="656" y="1520"/>
      <point x="542" y="1479"/>
      <point x="467" y="1396" type="curve" smooth="yes"/>
      <point x="392" y="1313"/>
      <point x="354" y="1187"/>
      <point x="354" y="1016" type="curve" smooth="yes"/>
      <point x="354" y="819" type="line"/>
      <point x="156" y="819" type="line"/>
      <point x="156" y="594" type="line"/>
      <point x="354" y="594" type="line"/>
      <point x="354" y="260" type="line"/>
      <point x="119" y="260" type="line"/>
      <point x="119" y="0" type="line"/>
      <point x="1122" y="0" type="line"/>
      <point x="1122" y="260" type="line"/>
      <point x="641" y="260" type="line"/>
      <point x="641" y="594" type="line"/>
      <point x="977" y="594" type="line"/>
      <point x="977" y="819" type="line"/>
      <point x="641" y="819" type="line"/>
      <point x="641" y="995" type="line" smooth="yes"/>
      <point x="641" y="1091"/>
      <point x="658" y="1161"/>
      <point x="691" y="1206" type="curve" smooth="yes"/>
      <point x="724" y="1250"/>
      <point x="775" y="1272"/>
      <point x="846" y="1272" type="curve" smooth="yes"/>
      <point x="892" y="1272"/>
      <point x="937" y="1265"/>
      <point x="980" y="1251" type="curve" smooth="yes"/>
      <point x="1023" y="1236"/>
      <point x="1064" y="1215"/>
      <point x="1102" y="1188" type="curve"/>
    </contour>
  </outline>
</glyph>
<glyph name="currency" format="1">
  <advance width="1233"/>
  <unicode hex="00A4"/>
  <note>
	currency
  </note>
  <outline>
    <contour>
      <point x="485" y="344" type="line"/>
      <point x="515" y="329"/>
      <point x="544" y="319"/>
      <point x="572" y="312" type="curve" smooth="yes"/>
      <point x="600" y="305"/>
      <point x="626" y="301"/>
      <point x="656" y="301" type="curve" smooth="yes"/>
      <point x="689" y="301"/>
      <point x="716" y="306"/>
      <point x="741" y="313" type="curve" smooth="yes"/>
      <point x="769" y="321"/>
      <point x="788" y="329"/>
      <point x="817" y="348" type="curve"/>
      <point x="987" y="176" type="line"/>
      <point x="1118" y="307" type="line"/>
      <point x="946" y="477" type="line"/>
      <point x="963" y="502"/>
      <point x="976" y="533"/>
      <point x="982" y="554" type="curve" smooth="yes"/>
      <point x="989" y="579"/>
      <point x="993" y="613"/>
      <point x="993" y="641" type="curve" smooth="yes"/>
      <point x="993" y="670"/>
      <point x="989" y="699"/>
      <point x="982" y="727" type="curve" smooth="yes"/>
      <point x="975" y="754"/>
      <point x="963" y="782"/>
      <point x="948" y="809" type="curve"/>
      <point x="1118" y="979" type="line"/>
      <point x="991" y="1108" type="line"/>
      <point x="819" y="938" type="line"/>
      <point x="788" y="953"/>
      <point x="760" y="965"/>
      <point x="733" y="972" type="curve" smooth="yes"/>
      <point x="706" y="979"/>
      <point x="680" y="983"/>
      <point x="652" y="983" type="curve" smooth="yes"/>
      <point x="623" y="983"/>
      <point x="593" y="979"/>
      <point x="566" y="972" type="curve" smooth="yes"/>
      <point x="541" y="965"/>
      <point x="510" y="952"/>
      <point x="483" y="936" type="curve"/>
      <point x="317" y="1108" type="line"/>
      <point x="186" y="977" type="line"/>
      <point x="358" y="807" type="line"/>
      <point x="338" y="776"/>
      <point x="329" y="751"/>
      <point x="323" y="729" type="curve" smooth="yes"/>
      <point x="316" y="704"/>
      <point x="311" y="677"/>
      <point x="311" y="642" type="curve" smooth="yes"/>
      <point x="311" y="607"/>
      <point x="316" y="585"/>
      <point x="323" y="559" type="curve" smooth="yes"/>
      <point x="332" y="527"/>
      <point x="337" y="511"/>
      <point x="356" y="475" type="curve"/>
      <point x="186" y="305" type="line"/>
      <point x="315" y="176" type="line"/>
    </contour>
    <contour>
      <point x="604" y="467"/>
      <point x="560" y="486"/>
      <point x="529" y="518" type="curve" smooth="yes"/>
      <point x="496" y="552"/>
      <point x="479" y="597"/>
      <point x="479" y="643" type="curve" smooth="yes"/>
      <point x="479" y="694"/>
      <point x="500" y="738"/>
      <point x="530" y="767" type="curve" smooth="yes"/>
      <point x="563" y="799"/>
      <point x="607" y="815"/>
      <point x="653" y="815" type="curve" smooth="yes"/>
      <point x="700" y="815"/>
      <point x="746" y="798"/>
      <point x="778" y="766" type="curve" smooth="yes"/>
      <point x="809" y="735"/>
      <point x="827" y="690"/>
      <point x="827" y="642" type="curve" smooth="yes"/>
      <point x="827" y="595"/>
      <point x="810" y="552"/>
      <point x="777" y="518" type="curve" smooth="yes"/>
      <point x="744" y="484"/>
      <point x="701" y="467"/>
      <point x="654" y="467" type="curve" smooth="yes"/>
    </contour>
  </outline>
</glyph>
<glyph name="yen" format="1">
  <advance width="1233"/>
  <unicode hex="00A5"/>
  <outline>
    <contour>
      <point x="469" y="438" type="line" name="hr00"/>
      <point x="57" y="438" type="line"/>
      <point x="57" y="627" type="line"/>
      <point x="465" y="627" type="line" name="dv01"/>
      <point x="379" y="778" type="line" name="dv02"/>
      <point x="57" y="778" type="line"/>
      <point x="57" y="965" type="line"/>
      <point x="281" y="965" type="line" name="dv03"/>
      <point x="8" y="1493" type="line" name="at01"/>
      <point x="326" y="1493" type="line"/>
      <point x="616" y="893" type="line" name="ih01"/>
      <point x="907" y="1493" type="line" name="at02"/>
      <point x="1225" y="1493" type="line"/>
      <point x="952" y="965" type="line" name="sv01"/>
      <point x="1176" y="965" type="line"/>
      <point x="1176" y="778" type="line" name="sv02"/>
      <point x="854" y="778" type="line"/>
      <point x="768" y="627" type="line" name="sv03"/>
      <point x="1176" y="627" type="line"/>
      <point x="1176" y="438" type="line" name="sv04"/>
      <point x="764" y="438" type="line" name="dh01"/>
      <point x="764" y="0" type="line" name="ab01"/>
      <point x="469" y="0" type="line"/>
    </contour>
  </outline>
</glyph>
<glyph name="section" format="1">
  <advance width="1233"/>
  <unicode hex="00A7"/>
  <note>
	section
  </note>
  <outline>
    <contour>
      <point x="731" y="-195"/>
      <point x="829" y="-165"/>
      <point x="895" y="-112" type="curve" smooth="yes"/>
      <point x="965" y="-56"/>
      <point x="999" y="24"/>
      <point x="999" y="118" type="curve" smooth="yes"/>
      <point x="999" y="172"/>
      <point x="988" y="222"/>
      <point x="967" y="262" type="curve" smooth="yes"/>
      <point x="945" y="303"/>
      <point x="911" y="340"/>
      <point x="864" y="373" type="curve"/>
      <point x="932" y="404"/>
      <point x="983" y="442"/>
      <point x="1014" y="484" type="curve" smooth="yes"/>
      <point x="1045" y="526"/>
      <point x="1061" y="579"/>
      <point x="1061" y="638" type="curve" smooth="yes"/>
      <point x="1061" y="704"/>
      <point x="1041" y="762"/>
      <point x="1002" y="809" type="curve" smooth="yes"/>
      <point x="955" y="866"/>
      <point x="873" y="912"/>
      <point x="729" y="989" type="curve" smooth="yes"/>
      <point x="727" y="990"/>
      <point x="705" y="1002"/>
      <point x="701" y="1004" type="curve" smooth="yes"/>
      <point x="565" y="1077"/>
      <point x="498" y="1128"/>
      <point x="498" y="1189" type="curve" smooth="yes"/>
      <point x="498" y="1215"/>
      <point x="510" y="1244"/>
      <point x="541" y="1265" type="curve" smooth="yes"/>
      <point x="569" y="1284"/>
      <point x="609" y="1294"/>
      <point x="657" y="1294" type="curve" smooth="yes"/>
      <point x="691" y="1294"/>
      <point x="738" y="1289"/>
      <point x="779" y="1280" type="curve" smooth="yes"/>
      <point x="823" y="1270"/>
      <point x="873" y="1255"/>
      <point x="930" y="1235" type="curve"/>
      <point x="930" y="1460" type="line"/>
      <point x="877" y="1479"/>
      <point x="826" y="1494"/>
      <point x="769" y="1505" type="curve" smooth="yes"/>
      <point x="716" y="1515"/>
      <point x="665" y="1520"/>
      <point x="617" y="1520" type="curve" smooth="yes"/>
      <point x="501" y="1520"/>
      <point x="409" y="1491"/>
      <point x="340" y="1434" type="curve" smooth="yes"/>
      <point x="271" y="1377"/>
      <point x="236" y="1301"/>
      <point x="236" y="1205" type="curve" smooth="yes"/>
      <point x="236" y="1151"/>
      <point x="247" y="1104"/>
      <point x="268" y="1064" type="curve" smooth="yes"/>
      <point x="289" y="1024"/>
      <point x="324" y="987"/>
      <point x="371" y="954" type="curve"/>
      <point x="305" y="932"/>
      <point x="254" y="895"/>
      <point x="222" y="852" type="curve" smooth="yes"/>
      <point x="187" y="805"/>
      <point x="170" y="747"/>
      <point x="170" y="696" type="curve" smooth="yes"/>
      <point x="170" y="574"/>
      <point x="265" y="465"/>
      <point x="486" y="346" type="curve" smooth="yes"/>
      <point x="512" y="332" type="line"/>
      <point x="523" y="326" type="line" smooth="yes"/>
      <point x="677" y="242"/>
      <point x="737" y="189"/>
      <point x="737" y="134" type="curve" smooth="yes"/>
      <point x="737" y="107"/>
      <point x="722" y="79"/>
      <point x="696" y="60" type="curve" smooth="yes"/>
      <point x="670" y="41"/>
      <point x="632" y="31"/>
      <point x="571" y="31" type="curve" smooth="yes"/>
      <point x="524" y="31"/>
      <point x="476" y="37"/>
      <point x="424" y="47" type="curve" smooth="yes"/>
      <point x="367" y="58"/>
      <point x="321" y="70"/>
      <point x="258" y="92" type="curve"/>
      <point x="258" y="-137" type="line"/>
      <point x="312" y="-155"/>
      <point x="375" y="-172"/>
      <point x="429" y="-181" type="curve" smooth="yes"/>
      <point x="483" y="-190"/>
      <point x="550" y="-195"/>
      <point x="602" y="-195" type="curve" smooth="yes"/>
    </contour>
    <contour>
      <point x="560" y="546"/>
      <point x="495" y="585"/>
      <point x="463" y="613" type="curve" smooth="yes"/>
      <point x="430" y="642"/>
      <point x="414" y="674"/>
      <point x="414" y="712" type="curve" smooth="yes"/>
      <point x="414" y="739"/>
      <point x="422" y="762"/>
      <point x="439" y="786" type="curve" smooth="yes"/>
      <point x="456" y="810"/>
      <point x="481" y="832"/>
      <point x="518" y="856" type="curve"/>
      <point x="550" y="840" type="line" smooth="yes"/>
      <point x="724" y="753"/>
      <point x="815" y="674"/>
      <point x="815" y="613" type="curve" smooth="yes"/>
      <point x="815" y="595"/>
      <point x="807" y="567"/>
      <point x="791" y="544" type="curve" smooth="yes"/>
      <point x="777" y="524"/>
      <point x="747" y="496"/>
      <point x="711" y="473" type="curve"/>
    </contour>
  </outline>
</glyph>
<glyph name="dieresis" format="1">
  <advance width="1233"/>
  <unicode hex="00A8"/>
  <note>
	dieresis
  </note>
  <outline>
    <contour>
      <point x="696" y="1585" type="line"/>
      <point x="696" y="1339" type="line"/>
      <point x="932" y="1339" type="line"/>
      <point x="932" y="1585" type="line"/>
    </contour>
    <contour>
      <point x="301" y="1585" type="line"/>
      <point x="301" y="1339" type="line"/>
      <point x="537" y="1339" type="line"/>
      <point x="537" y="1585" type="line"/>
    </contour>
  </outline>
</glyph>
<glyph name="copyright" format="1">
  <advance width="1233"/>
  <unicode hex="00A9"/>
  <note>
	copyright
  </note>
  <outline>
    <contour>
      <point x="700" y="125"/>
      <point x="778" y="140"/>
      <point x="851" y="171" type="curve" smooth="yes"/>
      <point x="927" y="203"/>
      <point x="997" y="252"/>
      <point x="1052" y="307" type="curve" smooth="yes"/>
      <point x="1111" y="366"/>
      <point x="1158" y="437"/>
      <point x="1188" y="508" type="curve" smooth="yes"/>
      <point x="1218" y="579"/>
      <point x="1233" y="658"/>
      <point x="1233" y="742" type="curve" smooth="yes"/>
      <point x="1233" y="825"/>
      <point x="1218" y="904"/>
      <point x="1187" y="977" type="curve" smooth="yes"/>
      <point x="1158" y="1045"/>
      <point x="1113" y="1115"/>
      <point x="1051" y="1178" type="curve" smooth="yes"/>
      <point x="995" y="1235"/>
      <point x="927" y="1282"/>
      <point x="852" y="1313" type="curve" smooth="yes"/>
      <point x="779" y="1343"/>
      <point x="701" y="1358"/>
      <point x="616" y="1358" type="curve" smooth="yes"/>
      <point x="532" y="1358"/>
      <point x="454" y="1343"/>
      <point x="381" y="1313" type="curve" smooth="yes"/>
      <point x="311" y="1284"/>
      <point x="244" y="1241"/>
      <point x="182" y="1178" type="curve" smooth="yes"/>
      <point x="121" y="1116"/>
      <point x="76" y="1048"/>
      <point x="46" y="977" type="curve" smooth="yes"/>
      <point x="15" y="904"/>
      <point x="0" y="824"/>
      <point x="0" y="741" type="curve" smooth="yes"/>
      <point x="0" y="657"/>
      <point x="15" y="579"/>
      <point x="45" y="508" type="curve" smooth="yes"/>
      <point x="76" y="434"/>
      <point x="125" y="363"/>
      <point x="181" y="307" type="curve" smooth="yes"/>
      <point x="239" y="249"/>
      <point x="309" y="202"/>
      <point x="382" y="171" type="curve" smooth="yes"/>
      <point x="454" y="141"/>
      <point x="528" y="125"/>
      <point x="616" y="125" type="curve" smooth="yes"/>
    </contour>
    <contour>
      <point x="671" y="399"/>
      <point x="705" y="402"/>
      <point x="740" y="408" type="curve" smooth="yes"/>
      <point x="775" y="414"/>
      <point x="811" y="423"/>
      <point x="848" y="434" type="curve"/>
      <point x="848" y="602" type="line"/>
      <point x="814" y="578"/>
      <point x="788" y="567"/>
      <point x="758" y="558" type="curve" smooth="yes"/>
      <point x="728" y="549"/>
      <point x="697" y="543"/>
      <point x="658" y="543" type="curve" smooth="yes"/>
      <point x="592" y="543"/>
      <point x="541" y="560"/>
      <point x="506" y="595" type="curve" smooth="yes"/>
      <point x="471" y="629"/>
      <point x="453" y="678"/>
      <point x="453" y="741" type="curve" smooth="yes"/>
      <point x="453" y="804"/>
      <point x="471" y="853"/>
      <point x="507" y="888" type="curve" smooth="yes"/>
      <point x="542" y="922"/>
      <point x="590" y="940"/>
      <point x="655" y="940" type="curve" smooth="yes"/>
      <point x="690" y="940"/>
      <point x="720" y="935"/>
      <point x="751" y="926" type="curve" smooth="yes"/>
      <point x="781" y="917"/>
      <point x="813" y="902"/>
      <point x="848" y="881" type="curve"/>
      <point x="848" y="1049" type="line"/>
      <point x="817" y="1059"/>
      <point x="776" y="1070"/>
      <point x="745" y="1075" type="curve" smooth="yes"/>
      <point x="713" y="1080"/>
      <point x="670" y="1083"/>
      <point x="636" y="1083" type="curve" smooth="yes"/>
      <point x="522" y="1083"/>
      <point x="429" y="1048"/>
      <point x="367" y="991" type="curve" smooth="yes"/>
      <point x="306" y="935"/>
      <point x="266" y="850"/>
      <point x="266" y="741" type="curve" smooth="yes"/>
      <point x="266" y="643"/>
      <point x="299" y="555"/>
      <point x="367" y="492" type="curve" smooth="yes"/>
      <point x="435" y="429"/>
      <point x="529" y="399"/>
      <point x="637" y="399" type="curve" smooth="yes"/>
    </contour>
    <contour>
      <point x="550" y="256"/>
      <point x="492" y="267"/>
      <point x="431" y="293" type="curve" smooth="yes"/>
      <point x="374" y="317"/>
      <point x="323" y="351"/>
      <point x="274" y="401" type="curve" smooth="yes"/>
      <point x="228" y="448"/>
      <point x="192" y="499"/>
      <point x="167" y="558" type="curve" smooth="yes"/>
      <point x="143" y="615"/>
      <point x="131" y="676"/>
      <point x="131" y="742" type="curve" smooth="yes"/>
      <point x="131" y="808"/>
      <point x="143" y="871"/>
      <point x="167" y="928" type="curve" smooth="yes"/>
      <point x="190" y="982"/>
      <point x="227" y="1038"/>
      <point x="274" y="1086" type="curve" smooth="yes"/>
      <point x="324" y="1137"/>
      <point x="380" y="1171"/>
      <point x="432" y="1193" type="curve" smooth="yes"/>
      <point x="484" y="1215"/>
      <point x="539" y="1229"/>
      <point x="617" y="1229" type="curve" smooth="yes"/>
      <point x="680" y="1229"/>
      <point x="738" y="1220"/>
      <point x="802" y="1193" type="curve" smooth="yes"/>
      <point x="860" y="1169"/>
      <point x="913" y="1132"/>
      <point x="959" y="1085" type="curve" smooth="yes"/>
      <point x="1005" y="1038"/>
      <point x="1040" y="989"/>
      <point x="1066" y="927" type="curve" smooth="yes"/>
      <point x="1089" y="872"/>
      <point x="1102" y="814"/>
      <point x="1102" y="743" type="curve" smooth="yes"/>
      <point x="1102" y="675"/>
      <point x="1090" y="615"/>
      <point x="1066" y="558" type="curve" smooth="yes"/>
      <point x="1042" y="501"/>
      <point x="1002" y="444"/>
      <point x="958" y="400" type="curve" smooth="yes"/>
      <point x="908" y="350"/>
      <point x="855" y="316"/>
      <point x="802" y="293" type="curve" smooth="yes"/>
      <point x="741" y="267"/>
      <point x="683" y="256"/>
      <point x="616" y="256" type="curve" smooth="yes"/>
    </contour>
  </outline>
</glyph>
<glyph name="ordfeminine" format="1">
  <advance width="1233"/>
  <unicode hex="00AA"/>
  <note>
	ordfeminine
  </note>
  <outline>
    <contour>
      <point x="786" y="1049" type="line" smooth="yes"/>
      <point x="786" y="999"/>
      <point x="768" y="952"/>
      <point x="732" y="918" type="curve" smooth="yes"/>
      <point x="699" y="887"/>
      <point x="649" y="866"/>
      <point x="593" y="866" type="curve" smooth="yes"/>
      <point x="552" y="866"/>
      <point x="523" y="877"/>
      <point x="505" y="894" type="curve" smooth="yes"/>
      <point x="485" y="913"/>
      <point x="475" y="941"/>
      <point x="475" y="970" type="curve" smooth="yes"/>
      <point x="475" y="1008"/>
      <point x="492" y="1036"/>
      <point x="525" y="1053" type="curve" smooth="yes"/>
      <point x="558" y="1070"/>
      <point x="611" y="1079"/>
      <point x="684" y="1079" type="curve" smooth="yes"/>
      <point x="786" y="1079" type="line"/>
    </contour>
    <contour>
      <point x="805" y="717" type="line"/>
      <point x="979" y="717" type="line"/>
      <point x="979" y="1165" type="line" smooth="yes"/>
      <point x="979" y="1287"/>
      <point x="949" y="1377"/>
      <point x="890" y="1434" type="curve" smooth="yes"/>
      <point x="831" y="1491"/>
      <point x="738" y="1520"/>
      <point x="613" y="1520" type="curve" smooth="yes"/>
      <point x="561" y="1520"/>
      <point x="511" y="1515"/>
      <point x="462" y="1506" type="curve" smooth="yes"/>
      <point x="406" y="1496"/>
      <point x="351" y="1478"/>
      <point x="315" y="1464" type="curve"/>
      <point x="315" y="1276" type="line"/>
      <point x="358" y="1299"/>
      <point x="403" y="1316"/>
      <point x="451" y="1327" type="curve" smooth="yes"/>
      <point x="498" y="1338"/>
      <point x="551" y="1343"/>
      <point x="601" y="1343" type="curve" smooth="yes"/>
      <point x="669" y="1343"/>
      <point x="713" y="1334"/>
      <point x="741" y="1319" type="curve" smooth="yes"/>
      <point x="767" y="1305"/>
      <point x="786" y="1281"/>
      <point x="786" y="1245" type="curve" smooth="yes"/>
      <point x="786" y="1219" type="line"/>
      <point x="629" y="1219" type="line" smooth="yes"/>
      <point x="504" y="1219"/>
      <point x="410" y="1197"/>
      <point x="349" y="1153" type="curve" smooth="yes"/>
      <point x="289" y="1110"/>
      <point x="256" y="1042"/>
      <point x="256" y="953" type="curve" smooth="yes"/>
      <point x="256" y="874"/>
      <point x="282" y="811"/>
      <point x="332" y="766" type="curve" smooth="yes"/>
      <point x="383" y="721"/>
      <point x="452" y="698"/>
      <point x="537" y="698" type="curve" smooth="yes"/>
      <point x="590" y="698"/>
      <point x="635" y="707"/>
      <point x="676" y="725" type="curve" smooth="yes"/>
      <point x="716" y="743"/>
      <point x="753" y="771"/>
      <point x="786" y="809" type="curve"/>
    </contour>
    <contour>
      <point x="293" y="598" type="line"/>
      <point x="293" y="428" type="line"/>
      <point x="981" y="428" type="line"/>
      <point x="981" y="598" type="line"/>
    </contour>
  </outline>
</glyph>
<glyph name="guillemetleft" format="1">
  <advance width="1233"/>
  <unicode hex="00AB"/>
  <note>
	guillemotleft
  </note>
  <outline>
    <contour>
      <point x="1012" y="379" type="line"/>
      <point x="736" y="600" type="line"/>
      <point x="1012" y="821" type="line"/>
      <point x="1012" y="1059" type="line"/>
      <point x="543" y="666" type="line"/>
      <point x="543" y="535" type="line"/>
      <point x="1012" y="141" type="line"/>
    </contour>
    <contour>
      <point x="558" y="379" type="line"/>
      <point x="281" y="600" type="line"/>
      <point x="558" y="821" type="line"/>
      <point x="558" y="1059" type="line"/>
      <point x="89" y="666" type="line"/>
      <point x="89" y="535" type="line"/>
      <point x="558" y="141" type="line"/>
    </contour>
  </outline>
</glyph>
<glyph name="guillemotleft" format="1">
  <advance width="1233"/>
  <unicode hex="00AB"/>
  <note>
	guillemotleft
  </note>
  <outline>
    <contour>
      <point x="1042" y="1059" type="line"/>
      <point x="573" y="666" type="line"/>
      <point x="573" y="535" type="line"/>
      <point x="1042" y="141" type="line"/>
      <point x="1042" y="379" type="line"/>
      <point x="766" y="600" type="line"/>
      <point x="1042" y="821" type="line"/>
    </contour>
    <contour>
      <point x="588" y="1059" type="line"/>
      <point x="119" y="666" type="line"/>
      <point x="119" y="535" type="line"/>
      <point x="588" y="141" type="line"/>
      <point x="588" y="379" type="line"/>
      <point x="311" y="600" type="line"/>
      <point x="588" y="821" type="line"/>
    </contour>
  </outline>
</glyph>
<glyph name="sfthyphen" format="1">
  <advance width="1233"/>
  <unicode hex="00AD"/>
  <note>
	sfthyphen
  </note>
  <outline>
    <contour>
      <point x="932" y="444" type="line"/>
      <point x="932" y="735" type="line"/>
      <point x="301" y="735" type="line"/>
      <point x="301" y="444" type="line"/>
    </contour>
  </outline>
</glyph>
<glyph name="registered" format="1">
  <advance width="1233"/>
  <unicode hex="00AE"/>
  <note>
	registered
  </note>
  <outline>
    <contour>
      <point x="700" y="125"/>
      <point x="778" y="140"/>
      <point x="851" y="171" type="curve" smooth="yes"/>
      <point x="927" y="203"/>
      <point x="997" y="252"/>
      <point x="1052" y="307" type="curve" smooth="yes"/>
      <point x="1111" y="366"/>
      <point x="1158" y="437"/>
      <point x="1188" y="508" type="curve" smooth="yes"/>
      <point x="1218" y="579"/>
      <point x="1233" y="658"/>
      <point x="1233" y="742" type="curve" smooth="yes"/>
      <point x="1233" y="825"/>
      <point x="1218" y="904"/>
      <point x="1187" y="977" type="curve" smooth="yes"/>
      <point x="1158" y="1045"/>
      <point x="1113" y="1115"/>
      <point x="1051" y="1178" type="curve" smooth="yes"/>
      <point x="995" y="1235"/>
      <point x="927" y="1282"/>
      <point x="852" y="1313" type="curve" smooth="yes"/>
      <point x="779" y="1343"/>
      <point x="701" y="1358"/>
      <point x="616" y="1358" type="curve" smooth="yes"/>
      <point x="532" y="1358"/>
      <point x="454" y="1343"/>
      <point x="381" y="1313" type="curve" smooth="yes"/>
      <point x="308" y="1283"/>
      <point x="241" y="1238"/>
      <point x="182" y="1178" type="curve" smooth="yes"/>
      <point x="123" y="1118"/>
      <point x="77" y="1050"/>
      <point x="46" y="977" type="curve" smooth="yes"/>
      <point x="15" y="904"/>
      <point x="0" y="825"/>
      <point x="0" y="741" type="curve" smooth="yes"/>
      <point x="0" y="653"/>
      <point x="16" y="579"/>
      <point x="46" y="507" type="curve" smooth="yes"/>
      <point x="77" y="434"/>
      <point x="123" y="365"/>
      <point x="181" y="307" type="curve" smooth="yes"/>
      <point x="241" y="247"/>
      <point x="311" y="201"/>
      <point x="382" y="171" type="curve" smooth="yes"/>
      <point x="454" y="141"/>
      <point x="528" y="125"/>
      <point x="616" y="125" type="curve" smooth="yes"/>
    </contour>
    <contour>
      <point x="550" y="256"/>
      <point x="489" y="268"/>
      <point x="432" y="292" type="curve" smooth="yes"/>
      <point x="373" y="317"/>
      <point x="323" y="351"/>
      <point x="274" y="400" type="curve" smooth="yes"/>
      <point x="225" y="450"/>
      <point x="192" y="499"/>
      <point x="167" y="558" type="curve" smooth="yes"/>
      <point x="143" y="615"/>
      <point x="131" y="674"/>
      <point x="131" y="742" type="curve" smooth="yes"/>
      <point x="131" y="801"/>
      <point x="140" y="863"/>
      <point x="167" y="927" type="curve" smooth="yes"/>
      <point x="191" y="983"/>
      <point x="224" y="1035"/>
      <point x="273" y="1085" type="curve" smooth="yes"/>
      <point x="328" y="1141"/>
      <point x="385" y="1173"/>
      <point x="432" y="1193" type="curve" smooth="yes"/>
      <point x="484" y="1215"/>
      <point x="539" y="1229"/>
      <point x="617" y="1229" type="curve" smooth="yes"/>
      <point x="680" y="1229"/>
      <point x="738" y="1220"/>
      <point x="802" y="1193" type="curve" smooth="yes"/>
      <point x="860" y="1169"/>
      <point x="913" y="1132"/>
      <point x="959" y="1085" type="curve" smooth="yes"/>
      <point x="1005" y="1038"/>
      <point x="1040" y="989"/>
      <point x="1066" y="927" type="curve" smooth="yes"/>
      <point x="1091" y="867"/>
      <point x="1102" y="808"/>
      <point x="1102" y="742" type="curve" smooth="yes"/>
      <point x="1102" y="674"/>
      <point x="1090" y="615"/>
      <point x="1066" y="558" type="curve" smooth="yes"/>
      <point x="1040" y="496"/>
      <point x="1000" y="441"/>
      <point x="958" y="399" type="curve" smooth="yes"/>
      <point x="911" y="352"/>
      <point x="858" y="316"/>
      <point x="801" y="292" type="curve" smooth="yes"/>
      <point x="744" y="268"/>
      <point x="682" y="256"/>
      <point x="616" y="256" type="curve" smooth="yes"/>
    </contour>
    <contour>
      <point x="524" y="430" type="line"/>
      <point x="524" y="670" type="line"/>
      <point x="555" y="670" type="line"/>
      <point x="584" y="669"/>
      <point x="609" y="658"/>
      <point x="625" y="645" type="curve" smooth="yes"/>
      <point x="645" y="629"/>
      <point x="663" y="599"/>
      <point x="680" y="563" type="curve" smooth="yes"/>
      <point x="743" y="430" type="line"/>
      <point x="915" y="430" type="line"/>
      <point x="836" y="596" type="line" smooth="yes"/>
      <point x="821" y="628"/>
      <point x="801" y="657"/>
      <point x="785" y="673" type="curve" smooth="yes"/>
      <point x="772" y="686"/>
      <point x="750" y="704"/>
      <point x="719" y="715" type="curve"/>
      <point x="772" y="724"/>
      <point x="805" y="744"/>
      <point x="829" y="770" type="curve" smooth="yes"/>
      <point x="855" y="798"/>
      <point x="868" y="833"/>
      <point x="868" y="878" type="curve" smooth="yes"/>
      <point x="868" y="936"/>
      <point x="847" y="982"/>
      <point x="804" y="1011" type="curve" smooth="yes"/>
      <point x="761" y="1040"/>
      <point x="695" y="1055"/>
      <point x="606" y="1055" type="curve" smooth="yes"/>
      <point x="360" y="1055" type="line"/>
      <point x="360" y="430" type="line"/>
    </contour>
    <contour>
      <point x="524" y="944" type="line"/>
      <point x="588" y="944" type="line" smooth="yes"/>
      <point x="627" y="944"/>
      <point x="655" y="937"/>
      <point x="674" y="924" type="curve" smooth="yes"/>
      <point x="693" y="910"/>
      <point x="702" y="889"/>
      <point x="702" y="861" type="curve" smooth="yes"/>
      <point x="702" y="833"/>
      <point x="693" y="813"/>
      <point x="674" y="800" type="curve" smooth="yes"/>
      <point x="655" y="787"/>
      <point x="626" y="780"/>
      <point x="588" y="780" type="curve" smooth="yes"/>
      <point x="524" y="780" type="line"/>
    </contour>
  </outline>
</glyph>
<glyph name="degree" format="1">
  <advance width="1233"/>
  <unicode hex="00B0"/>
  <note>
	degree
  </note>
  <outline>
    <contour>
      <point x="660" y="854"/>
      <point x="702" y="863"/>
      <point x="743" y="880" type="curve" smooth="yes"/>
      <point x="786" y="898"/>
      <point x="823" y="923"/>
      <point x="852" y="952" type="curve" smooth="yes"/>
      <point x="883" y="983"/>
      <point x="906" y="1018"/>
      <point x="923" y="1059" type="curve" smooth="yes"/>
      <point x="940" y="1100"/>
      <point x="948" y="1142"/>
      <point x="948" y="1188" type="curve" smooth="yes"/>
      <point x="948" y="1233"/>
      <point x="940" y="1274"/>
      <point x="924" y="1313" type="curve" smooth="yes"/>
      <point x="909" y="1350"/>
      <point x="882" y="1392"/>
      <point x="852" y="1422" type="curve" smooth="yes"/>
      <point x="821" y="1453"/>
      <point x="782" y="1479"/>
      <point x="744" y="1495" type="curve" smooth="yes"/>
      <point x="703" y="1512"/>
      <point x="661" y="1520"/>
      <point x="616" y="1520" type="curve" smooth="yes"/>
      <point x="524" y="1520"/>
      <point x="441" y="1487"/>
      <point x="378" y="1424" type="curve" smooth="yes"/>
      <point x="315" y="1360"/>
      <point x="283" y="1276"/>
      <point x="283" y="1185" type="curve" smooth="yes"/>
      <point x="283" y="1093"/>
      <point x="316" y="1010"/>
      <point x="378" y="948" type="curve" smooth="yes"/>
      <point x="436" y="890"/>
      <point x="519" y="854"/>
      <point x="613" y="854" type="curve" smooth="yes"/>
    </contour>
    <contour>
      <point x="566" y="1016"/>
      <point x="526" y="1032"/>
      <point x="493" y="1065" type="curve" smooth="yes"/>
      <point x="460" y="1098"/>
      <point x="444" y="1138"/>
      <point x="444" y="1185" type="curve" smooth="yes"/>
      <point x="444" y="1234"/>
      <point x="461" y="1275"/>
      <point x="494" y="1308" type="curve" smooth="yes"/>
      <point x="527" y="1341"/>
      <point x="568" y="1358"/>
      <point x="616" y="1358" type="curve" smooth="yes"/>
      <point x="663" y="1358"/>
      <point x="704" y="1341"/>
      <point x="737" y="1308" type="curve" smooth="yes"/>
      <point x="770" y="1275"/>
      <point x="786" y="1234"/>
      <point x="786" y="1187" type="curve" smooth="yes"/>
      <point x="786" y="1138"/>
      <point x="769" y="1099"/>
      <point x="736" y="1066" type="curve" smooth="yes"/>
      <point x="703" y="1033"/>
      <point x="662" y="1016"/>
      <point x="614" y="1016" type="curve" smooth="yes"/>
    </contour>
  </outline>
</glyph>
<glyph name="plusminus" format="1">
  <advance width="1233"/>
  <unicode hex="00B1"/>
  <outline>
    <contour>
      <point x="498" y="694" type="line" name="hr00"/>
      <point x="88" y="694" type="line"/>
      <point x="88" y="930" type="line"/>
      <point x="498" y="930" type="line" name="sh01"/>
      <point x="498" y="1284" type="line" name="av01"/>
      <point x="735" y="1284" type="line" name="sh02"/>
      <point x="735" y="930" type="line" name="sv01"/>
      <point x="1145" y="930" type="line"/>
      <point x="1145" y="694" type="line" name="sv02"/>
      <point x="735" y="694" type="line" name="dh01"/>
      <point x="735" y="340" type="line"/>
      <point x="498" y="340" type="line"/>
    </contour>
    <contour>
      <point x="88" y="238" type="line" name="sv03"/>
      <point x="1145" y="238" type="line"/>
      <point x="1145" y="0" type="line" name="ab01"/>
      <point x="88" y="0" type="line"/>
    </contour>
  </outline>
</glyph>
<glyph name="twosuperior" format="1">
  <advance width="1233"/>
  <unicode hex="00B2"/>
  <note>
	twosuperior
  </note>
  <outline>
    <contour>
      <point x="500" y="813" type="line"/>
      <point x="519" y="828"/>
      <point x="547" y="850"/>
      <point x="583" y="878" type="curve" smooth="yes"/>
      <point x="820" y="1065"/>
      <point x="938" y="1200"/>
      <point x="938" y="1284" type="curve" smooth="yes"/>
      <point x="938" y="1358"/>
      <point x="907" y="1416"/>
      <point x="845" y="1458" type="curve" smooth="yes"/>
      <point x="782" y="1499"/>
      <point x="695" y="1520"/>
      <point x="582" y="1520" type="curve" smooth="yes"/>
      <point x="538" y="1520"/>
      <point x="492" y="1516"/>
      <point x="445" y="1509" type="curve" smooth="yes"/>
      <point x="398" y="1501"/>
      <point x="349" y="1490"/>
      <point x="299" y="1475" type="curve"/>
      <point x="299" y="1311" type="line"/>
      <point x="350" y="1334"/>
      <point x="399" y="1351"/>
      <point x="444" y="1363" type="curve" smooth="yes"/>
      <point x="489" y="1374"/>
      <point x="530" y="1380"/>
      <point x="567" y="1380" type="curve" smooth="yes"/>
      <point x="617" y="1380"/>
      <point x="657" y="1370"/>
      <point x="686" y="1350" type="curve" smooth="yes"/>
      <point x="715" y="1330"/>
      <point x="729" y="1303"/>
      <point x="729" y="1268" type="curve" smooth="yes"/>
      <point x="729" y="1215"/>
      <point x="624" y="1102"/>
      <point x="415" y="927" type="curve" smooth="yes"/>
      <point x="355" y="877"/>
      <point x="308" y="838"/>
      <point x="274" y="809" type="curve"/>
      <point x="274" y="668" type="line"/>
      <point x="940" y="668" type="line"/>
      <point x="940" y="813" type="line"/>
    </contour>
  </outline>
</glyph>
<glyph name="uni00B2" format="1">
  <advance width="1233"/>
  <unicode hex="00B2"/>
  <outline>
    <contour>
      <point x="274" y="1261" type="line" name="hr00"/>
      <point x="309" y="1290"/>
      <point x="355" y="1328"/>
      <point x="415" y="1379" type="curve" smooth="yes"/>
      <point x="627" y="1556"/>
      <point x="729" y="1664"/>
      <point x="729" y="1727" type="curve" name="dh01" smooth="yes"/>
      <point x="729" y="1750"/>
      <point x="717" y="1781"/>
      <point x="686" y="1802" type="curve" smooth="yes"/>
      <point x="657" y="1822"/>
      <point x="618" y="1832"/>
      <point x="569" y="1832" type="curve" name="dv02" smooth="yes"/>
      <point x="487" y="1832"/>
      <point x="405" y="1813"/>
      <point x="299" y="1763" type="curve"/>
      <point x="299" y="1927" type="line"/>
      <point x="342" y="1940"/>
      <point x="401" y="1954"/>
      <point x="445" y="1961" type="curve" smooth="yes"/>
      <point x="482" y="1968"/>
      <point x="535" y="1972"/>
      <point x="587" y="1972" type="curve" name="dv03" smooth="yes"/>
      <point x="695" y="1972"/>
      <point x="784" y="1952"/>
      <point x="845" y="1909" type="curve" smooth="yes"/>
      <point x="908" y="1866"/>
      <point x="938" y="1806"/>
      <point x="938" y="1753" type="curve" name="dh02" smooth="yes"/>
      <point x="938" y="1656"/>
      <point x="836" y="1527"/>
      <point x="583" y="1330" type="curve" smooth="yes"/>
      <point x="508" y="1271"/>
      <point x="559" y="1311"/>
      <point x="500" y="1265" type="curve"/>
      <point x="940" y="1265" type="line" name="sh01"/>
      <point x="940" y="1120" type="line" name="dv01"/>
      <point x="274" y="1120" type="line"/>
    </contour>
  </outline>
</glyph>
<glyph name="threesuperior" format="1">
  <advance width="1233"/>
  <unicode hex="00B3"/>
  <note>
	threesuperior
  </note>
  <outline>
    <contour>
      <point x="709" y="1113"/>
      <point x="802" y="1134"/>
      <point x="867" y="1177" type="curve" smooth="yes"/>
      <point x="931" y="1219"/>
      <point x="963" y="1280"/>
      <point x="963" y="1360" type="curve" smooth="yes"/>
      <point x="963" y="1423"/>
      <point x="944" y="1472"/>
      <point x="905" y="1509" type="curve" smooth="yes"/>
      <point x="866" y="1546"/>
      <point x="809" y="1570"/>
      <point x="735" y="1580" type="curve"/>
      <point x="801" y="1591"/>
      <point x="851" y="1612"/>
      <point x="886" y="1643" type="curve" smooth="yes"/>
      <point x="921" y="1674"/>
      <point x="938" y="1713"/>
      <point x="938" y="1762" type="curve" smooth="yes"/>
      <point x="938" y="1830"/>
      <point x="907" y="1883"/>
      <point x="847" y="1922" type="curve" smooth="yes"/>
      <point x="783" y="1963"/>
      <point x="692" y="1980"/>
      <point x="591" y="1980" type="curve" smooth="yes"/>
      <point x="548" y="1980"/>
      <point x="503" y="1978"/>
      <point x="456" y="1971" type="curve" smooth="yes"/>
      <point x="407" y="1964"/>
      <point x="360" y="1956"/>
      <point x="317" y="1945" type="curve"/>
      <point x="317" y="1793" type="line"/>
      <point x="362" y="1808"/>
      <point x="407" y="1820"/>
      <point x="454" y="1827" type="curve" smooth="yes"/>
      <point x="501" y="1834"/>
      <point x="547" y="1838"/>
      <point x="586" y="1838" type="curve" smooth="yes"/>
      <point x="641" y="1838"/>
      <point x="675" y="1830"/>
      <point x="702" y="1813" type="curve" smooth="yes"/>
      <point x="731" y="1794"/>
      <point x="741" y="1768"/>
      <point x="741" y="1743" type="curve" smooth="yes"/>
      <point x="741" y="1713"/>
      <point x="727" y="1690"/>
      <point x="699" y="1673" type="curve" smooth="yes"/>
      <point x="670" y="1656"/>
      <point x="631" y="1648"/>
      <point x="582" y="1648" type="curve" smooth="yes"/>
      <point x="471" y="1648" type="line"/>
      <point x="471" y="1502" type="line"/>
      <point x="582" y="1502" type="line" smooth="yes"/>
      <point x="639" y="1502"/>
      <point x="684" y="1491"/>
      <point x="717" y="1468" type="curve" smooth="yes"/>
      <point x="750" y="1445"/>
      <point x="766" y="1414"/>
      <point x="766" y="1374" type="curve" smooth="yes"/>
      <point x="766" y="1336"/>
      <point x="750" y="1306"/>
      <point x="719" y="1285" type="curve" smooth="yes"/>
      <point x="687" y="1264"/>
      <point x="647" y="1253"/>
      <point x="580" y="1253" type="curve" smooth="yes"/>
      <point x="536" y="1253"/>
      <point x="481" y="1258"/>
      <point x="430" y="1267" type="curve" smooth="yes"/>
      <point x="374" y="1278"/>
      <point x="327" y="1292"/>
      <point x="287" y="1308" type="curve"/>
      <point x="287" y="1154" type="line"/>
      <point x="336" y="1141"/>
      <point x="385" y="1131"/>
      <point x="436" y="1124" type="curve" smooth="yes"/>
      <point x="487" y="1117"/>
      <point x="535" y="1113"/>
      <point x="588" y="1113" type="curve" smooth="yes"/>
    </contour>
  </outline>
</glyph>
<glyph name="uni00B3" format="1">
  <advance width="1233"/>
  <unicode hex="00B3"/>
  <outline>
    <contour>
      <point x="588" y="1113" type="curve" name="dv01" smooth="yes"/>
      <point x="535" y="1113"/>
      <point x="487" y="1117"/>
      <point x="436" y="1124" type="curve" name="sv01" smooth="yes"/>
      <point x="385" y="1131"/>
      <point x="336" y="1141"/>
      <point x="287" y="1154" type="curve"/>
      <point x="287" y="1308" type="line"/>
      <point x="327" y="1292"/>
      <point x="374" y="1278"/>
      <point x="430" y="1267" type="curve" smooth="yes"/>
      <point x="481" y="1258"/>
      <point x="536" y="1253"/>
      <point x="580" y="1253" type="curve" name="dv02" smooth="yes"/>
      <point x="647" y="1253"/>
      <point x="687" y="1264"/>
      <point x="719" y="1285" type="curve" name="hr01" smooth="yes"/>
      <point x="750" y="1306"/>
      <point x="766" y="1336"/>
      <point x="766" y="1374" type="curve" name="dh01" smooth="yes"/>
      <point x="766" y="1454"/>
      <point x="697" y="1502"/>
      <point x="582" y="1502" type="curve" name="dv05" smooth="yes"/>
      <point x="471" y="1502" type="line"/>
      <point x="471" y="1648" type="line"/>
      <point x="582" y="1648" type="line" name="dv06" smooth="yes"/>
      <point x="631" y="1648"/>
      <point x="670" y="1656"/>
      <point x="699" y="1673" type="curve" smooth="yes"/>
      <point x="727" y="1690"/>
      <point x="741" y="1713"/>
      <point x="741" y="1743" type="curve" name="sh01" smooth="yes"/>
      <point x="741" y="1768"/>
      <point x="731" y="1794"/>
      <point x="702" y="1813" type="curve" smooth="yes"/>
      <point x="675" y="1830"/>
      <point x="641" y="1838"/>
      <point x="586" y="1838" type="curve" name="dv03" smooth="yes"/>
      <point x="505" y="1838"/>
      <point x="406" y="1822"/>
      <point x="317" y="1793" type="curve"/>
      <point x="317" y="1945" type="line"/>
      <point x="360" y="1956"/>
      <point x="407" y="1964"/>
      <point x="456" y="1971" type="curve" name="sv02" smooth="yes"/>
      <point x="503" y="1978"/>
      <point x="548" y="1980"/>
      <point x="591" y="1980" type="curve" name="dv04" smooth="yes"/>
      <point x="692" y="1980"/>
      <point x="783" y="1963"/>
      <point x="847" y="1922" type="curve" name="hr02" smooth="yes"/>
      <point x="907" y="1883"/>
      <point x="938" y="1830"/>
      <point x="938" y="1762" type="curve" name="ih01" smooth="yes"/>
      <point x="938" y="1665"/>
      <point x="867" y="1603"/>
      <point x="735" y="1580" type="curve" name="iv01"/>
      <point x="809" y="1570"/>
      <point x="866" y="1546"/>
      <point x="905" y="1509" type="curve" smooth="yes"/>
      <point x="944" y="1472"/>
      <point x="963" y="1423"/>
      <point x="963" y="1360" type="curve" name="dh02" smooth="yes"/>
      <point x="963" y="1280"/>
      <point x="931" y="1219"/>
      <point x="867" y="1177" type="curve" smooth="yes"/>
      <point x="802" y="1134"/>
      <point x="709" y="1113"/>
    </contour>
  </outline>
</glyph>
<glyph name="mu" format="1">
  <advance width="1233"/>
  <unicode hex="00B5"/>
  <note>
	mu
  </note>
  <outline>
    <contour>
      <point x="174" y="-428" type="line"/>
      <point x="463" y="-428" type="line"/>
      <point x="461" y="66" type="line"/>
      <point x="478" y="34"/>
      <point x="501" y="10"/>
      <point x="529" y="-6" type="curve" smooth="yes"/>
      <point x="556" y="-21"/>
      <point x="590" y="-29"/>
      <point x="629" y="-29" type="curve" smooth="yes"/>
      <point x="676" y="-29"/>
      <point x="717" y="-16"/>
      <point x="754" y="11" type="curve" smooth="yes"/>
      <point x="791" y="38"/>
      <point x="821" y="77"/>
      <point x="846" y="129" type="curve"/>
      <point x="864" y="74"/>
      <point x="888" y="34"/>
      <point x="919" y="9" type="curve" smooth="yes"/>
      <point x="949" y="-17"/>
      <point x="988" y="-29"/>
      <point x="1036" y="-29" type="curve" smooth="yes"/>
      <point x="1059" y="-29"/>
      <point x="1083" y="-25"/>
      <point x="1108" y="-18" type="curve" smooth="yes"/>
      <point x="1133" y="-11"/>
      <point x="1159" y="1"/>
      <point x="1188" y="16" type="curve"/>
      <point x="1188" y="233" type="line"/>
      <point x="1178" y="226"/>
      <point x="1169" y="220"/>
      <point x="1160" y="217" type="curve" smooth="yes"/>
      <point x="1151" y="213"/>
      <point x="1142" y="211"/>
      <point x="1133" y="211" type="curve" smooth="yes"/>
      <point x="1112" y="211"/>
      <point x="1098" y="221"/>
      <point x="1089" y="242" type="curve" smooth="yes"/>
      <point x="1080" y="263"/>
      <point x="1075" y="297"/>
      <point x="1075" y="344" type="curve" smooth="yes"/>
      <point x="1075" y="1120" type="line"/>
      <point x="786" y="1120" type="line"/>
      <point x="786" y="440" type="line" smooth="yes"/>
      <point x="786" y="363"/>
      <point x="773" y="306"/>
      <point x="746" y="268" type="curve" smooth="yes"/>
      <point x="719" y="230"/>
      <point x="679" y="211"/>
      <point x="625" y="211" type="curve" smooth="yes"/>
      <point x="570" y="211"/>
      <point x="529" y="230"/>
      <point x="502" y="269" type="curve" smooth="yes"/>
      <point x="475" y="307"/>
      <point x="461" y="364"/>
      <point x="461" y="440" type="curve" smooth="yes"/>
      <point x="461" y="1120" type="line"/>
      <point x="174" y="1120" type="line"/>
    </contour>
  </outline>
</glyph>
<glyph name="uni00B5" format="1">
  <advance width="1233"/>
  <unicode hex="00B5"/>
  <outline>
    <contour>
      <point x="154" y="1120" type="line" name="hr00"/>
      <point x="441" y="1120" type="line" name="sh01"/>
      <point x="441" y="440" type="line" smooth="yes"/>
      <point x="441" y="365"/>
      <point x="455" y="308"/>
      <point x="482" y="269" type="curve" smooth="yes"/>
      <point x="509" y="232"/>
      <point x="547" y="211"/>
      <point x="604" y="211" type="curve" name="sv01" smooth="yes"/>
      <point x="658" y="211"/>
      <point x="699" y="230"/>
      <point x="726" y="268" type="curve" smooth="yes"/>
      <point x="753" y="305"/>
      <point x="766" y="363"/>
      <point x="766" y="440" type="curve" name="ah01" smooth="yes"/>
      <point x="766" y="1120" type="line" name="at01"/>
      <point x="1055" y="1120" type="line"/>
      <point x="1055" y="344" type="line" name="sh02" smooth="yes"/>
      <point x="1055" y="298"/>
      <point x="1060" y="264"/>
      <point x="1069" y="242" type="curve" name="sh03" smooth="yes"/>
      <point x="1078" y="221"/>
      <point x="1092" y="211"/>
      <point x="1113" y="211" type="curve" name="dv02" smooth="yes"/>
      <point x="1124" y="211"/>
      <point x="1129" y="213"/>
      <point x="1140" y="217" type="curve" smooth="yes"/>
      <point x="1152" y="222"/>
      <point x="1155" y="224"/>
      <point x="1168" y="233" type="curve" name="iv01"/>
      <point x="1168" y="16" type="line"/>
      <point x="1135" y="-1"/>
      <point x="1115" y="-10"/>
      <point x="1088" y="-18" type="curve" smooth="yes"/>
      <point x="1063" y="-25"/>
      <point x="1041" y="-29"/>
      <point x="1014" y="-29" type="curve" name="dv01" smooth="yes"/>
      <point x="962" y="-29"/>
      <point x="927" y="-14"/>
      <point x="899" y="9" type="curve" smooth="yes"/>
      <point x="864" y="37"/>
      <point x="845" y="74"/>
      <point x="826" y="129" type="curve" name="ih01"/>
      <point x="801" y="77"/>
      <point x="770" y="38"/>
      <point x="734" y="11" type="curve" smooth="yes"/>
      <point x="697" y="-16"/>
      <point x="655" y="-29"/>
      <point x="608" y="-29" type="curve" name="sv02" smooth="yes"/>
      <point x="569" y="-29"/>
      <point x="536" y="-21"/>
      <point x="509" y="-6" type="curve" smooth="yes"/>
      <point x="481" y="9"/>
      <point x="458" y="33"/>
      <point x="441" y="66" type="curve" name="sh04"/>
      <point x="443" y="-428" type="line" name="ab01"/>
      <point x="154" y="-428" type="line"/>
    </contour>
  </outline>
</glyph>
<glyph name="paragraph" format="1">
  <advance width="1233"/>
  <unicode hex="00B6"/>
  <note>
	paragraph
  </note>
  <outline>
    <contour>
      <point x="545" y="1493" type="line" smooth="yes"/>
      <point x="402" y="1493"/>
      <point x="287" y="1454"/>
      <point x="200" y="1377" type="curve" smooth="yes"/>
      <point x="113" y="1300"/>
      <point x="70" y="1198"/>
      <point x="70" y="1071" type="curve" smooth="yes"/>
      <point x="70" y="952"/>
      <point x="107" y="857"/>
      <point x="181" y="784" type="curve" smooth="yes"/>
      <point x="254" y="711"/>
      <point x="359" y="666"/>
      <point x="496" y="649" type="curve"/>
      <point x="496" y="-197" type="line"/>
      <point x="684" y="-197" type="line"/>
      <point x="684" y="1346" type="line"/>
      <point x="874" y="1346" type="line"/>
      <point x="874" y="-197" type="line"/>
      <point x="1065" y="-197" type="line"/>
      <point x="1065" y="1493" type="line"/>
    </contour>
  </outline>
</glyph>
<glyph name="periodcentered" format="1">
  <advance width="1233"/>
  <unicode hex="00B7"/>
  <note>
	periodcentered
  </note>
  <outline>
    <contour>
      <point x="711" y="344"/>
      <point x="803" y="383"/>
      <point x="870" y="450" type="curve" smooth="yes"/>
      <point x="938" y="518"/>
      <point x="977" y="612"/>
      <point x="977" y="708" type="curve" smooth="yes"/>
      <point x="977" y="801"/>
      <point x="942" y="891"/>
      <point x="870" y="962" type="curve" smooth="yes"/>
      <point x="802" y="1027"/>
      <point x="713" y="1065"/>
      <point x="617" y="1065" type="curve" smooth="yes"/>
      <point x="520" y="1065"/>
      <point x="429" y="1026"/>
      <point x="362" y="961" type="curve" smooth="yes"/>
      <point x="294" y="893"/>
      <point x="256" y="806"/>
      <point x="256" y="706" type="curve" smooth="yes"/>
      <point x="256" y="609"/>
      <point x="292" y="519"/>
      <point x="360" y="451" type="curve" smooth="yes"/>
      <point x="427" y="383"/>
      <point x="517" y="344"/>
      <point x="614" y="344" type="curve" smooth="yes"/>
    </contour>
  </outline>
</glyph>
<glyph name="cedilla" format="1">
  <advance width="1233"/>
  <unicode hex="00B8"/>
  <note>
	cedilla
  </note>
  <outline>
    <contour>
      <point x="567" y="0" type="line"/>
      <point x="598" y="-40"/>
      <point x="620" y="-74"/>
      <point x="634" y="-101" type="curve" smooth="yes"/>
      <point x="648" y="-128"/>
      <point x="655" y="-151"/>
      <point x="655" y="-168" type="curve" smooth="yes"/>
      <point x="655" y="-195"/>
      <point x="644" y="-216"/>
      <point x="623" y="-231" type="curve" smooth="yes"/>
      <point x="601" y="-246"/>
      <point x="571" y="-254"/>
      <point x="532" y="-254" type="curve" smooth="yes"/>
      <point x="508" y="-254"/>
      <point x="482" y="-251"/>
      <point x="454" y="-245" type="curve" smooth="yes"/>
      <point x="426" y="-239"/>
      <point x="397" y="-230"/>
      <point x="367" y="-219" type="curve"/>
      <point x="367" y="-375" type="line"/>
      <point x="402" y="-384"/>
      <point x="437" y="-390"/>
      <point x="471" y="-395" type="curve" smooth="yes"/>
      <point x="504" y="-399"/>
      <point x="537" y="-401"/>
      <point x="569" y="-401" type="curve" smooth="yes"/>
      <point x="654" y="-401"/>
      <point x="717" y="-386"/>
      <point x="758" y="-356" type="curve" smooth="yes"/>
      <point x="799" y="-325"/>
      <point x="819" y="-278"/>
      <point x="819" y="-215" type="curve" smooth="yes"/>
      <point x="819" y="-184"/>
      <point x="810" y="-150"/>
      <point x="792" y="-115" type="curve" smooth="yes"/>
      <point x="773" y="-80"/>
      <point x="745" y="-41"/>
      <point x="707" y="0" type="curve"/>
    </contour>
  </outline>
</glyph>
<glyph name="onesuperior" format="1">
  <advance width="1233"/>
  <unicode hex="00B9"/>
  <note>
	onesuperior
  </note>
  <outline>
    <contour>
      <point x="313" y="813" type="line"/>
      <point x="313" y="668" type="line"/>
      <point x="961" y="668" type="line"/>
      <point x="961" y="813" type="line"/>
      <point x="735" y="813" type="line"/>
      <point x="735" y="1503" type="line"/>
      <point x="541" y="1503" type="line"/>
      <point x="319" y="1462" type="line"/>
      <point x="319" y="1313" type="line"/>
      <point x="539" y="1356" type="line"/>
      <point x="539" y="813" type="line"/>
    </contour>
  </outline>
</glyph>
